<?xml version="1.0" encoding="UTF-8"?>
<!-- Created with Inkscape (http://www.inkscape.org/) -->
<svg version="1.1" viewBox="0 0 132 132" xmlns="http://www.w3.org/2000/svg">
  <defs>
    <clipPath id="e">
      <path transform="translate(-215.72 -321.88)" d="m205.72 270.88h38v95h-38z"/>
    </clipPath>
    <clipPath id="d">
      <path transform="translate(-206.72 -293.88)" d="m205.72 270.88h38v95h-38z"/>
    </clipPath>
    <clipPath id="c">
      <path transform="translate(-236.72 -352.88)" d="m205.72 270.88h38v95h-38z"/>
    </clipPath>
    <clipPath id="b">
      <path transform="translate(-227.61 -340.88)" d="m205.72 270.88h38v95h-38z"/>
    </clipPath>
    <clipPath id="a">
      <path transform="translate(-221.72 -344.88)" d="m205.72 270.88h38v95h-38z"/>
    </clipPath>
  </defs>
  <g fill="none" stroke="#231f20" stroke-miterlimit="10">
    <path transform="matrix(1.3333 0 0 -1.3333 54 61.333)" d="m0 0v-51m17.996 0 4e-3 51" clip-path="url(#e)" stroke-width="2"/>
    <g stroke-width="2.6667">
      <path d="m54 97.315h24"/>
      <path d="m53.722 89.247h24"/>
      <path d="m66.007 45.333v44"/>
    </g>
    <path transform="matrix(1.3333 0 0 -1.3333 42 98.667)" d="m0 0v23c0 9.941 8.059 18 18 18s18-8.059 18-18v-23" clip-path="url(#d)" stroke-width="2"/>
    <path transform="matrix(1.3333 0 0 -1.3333 82 20)" d="m0 0v-6c0-6.627-5.373-12-12-12s-12 5.373-11.958 11.833v6c-0.042 6.794 5.33 12.167 11.958 12.167h1.47c8.001 0 12.981-4.852 14.53-11.302-2.051-0.587-4.21-0.92-6.449-0.92-7.82 0-14.294 3.336-18.551 9.222" clip-path="url(#c)" stroke-width="2"/>
  </g>
  <path transform="matrix(1.3333 0 0 -1.3333 69.852 36)" d="m0 0c0.596-1.674 2.178-2.88 4.056-2.88s3.46 1.206 4.055 2.88z" clip-path="url(#b)" fill="#231f20"/>
  <path transform="matrix(1.3333 0 0 -1.3333 62 30.667)" d="m0 0c-1.657 0-3 1.343-3 3s1.343 3 3 3" clip-path="url(#a)" fill="none" stroke="#231f20" stroke-miterlimit="10" stroke-width="2"/>
</svg>
