<?xml version="1.0" encoding="UTF-8"?>
<!-- Created with Inkscape (http://www.inkscape.org/) -->
<svg version="1.1" viewBox="0 0 132 132" xmlns="http://www.w3.org/2000/svg">
  <defs>
    <clipPath id="g">
      <path transform="translate(-303.53 -470.37)" d="m294 422.37h39.369v71h-39.369z"/>
    </clipPath>
    <clipPath id="f">
      <path transform="translate(-326.37 -474.37)" d="m294 422.37h39.369v71h-39.369z"/>
    </clipPath>
    <clipPath id="e">
      <path transform="translate(-317.37 -468.37)" d="m294 422.37h39.369v71h-39.369z"/>
    </clipPath>
    <clipPath id="d">
      <path transform="translate(-320.01 -461.37)" d="m294 422.37h39.369v71h-39.369z"/>
    </clipPath>
    <clipPath id="c">
      <path transform="translate(-302.37 -435.37)" d="m294 422.37h39.369v71h-39.369z"/>
    </clipPath>
    <clipPath id="b">
      <path transform="translate(-326.37 -435.37)" d="m294 422.37h39.369v71h-39.369z"/>
    </clipPath>
    <clipPath id="a">
      <path transform="translate(-313.37 -447.37)" d="m294 422.37h39.369v71h-39.369z"/>
    </clipPath>
  </defs>
  <path transform="matrix(1.3333 0 0 -1.3333 52.456 49.325)" d="m0 0h-3.496c-2.778 0-5.03 2.252-5.03 5.03 0 2.779 2.252 5.031 5.03 5.031h32.339" clip-path="url(#g)" fill="none" stroke="#231f20" stroke-miterlimit="10" stroke-width="2"/>
  <path transform="matrix(1.3333 0 0 -1.3333 82.913 44)" d="m0 0c0-6.627-5.373-12-12-12s-12 5.373-11.958 11.833v6c-0.042 6.794 5.33 12.167 11.958 12.167s12-5.373 12-12z" clip-path="url(#f)" fill="none" stroke="#231f20" stroke-miterlimit="10" stroke-width="2"/>
  <path transform="matrix(1.3333 0 0 -1.3333 70.913 52)" d="m0 0c0.596-1.674 2.178-2.88 4.056-2.88s3.46 1.206 4.055 2.88z" clip-path="url(#e)" fill="#231f20"/>
  <g fill="none" stroke="#231f20" stroke-miterlimit="10" stroke-width="2">
    <path transform="matrix(1.3333 0 0 -1.3333 74.433 61.333)" d="m0 0c0-3.159-2.561-5.72-5.72-5.72s-5.72 2.561-5.72 5.72" clip-path="url(#d)"/>
    <path transform="matrix(1.3333 0 0 -1.3333 50.913 96)" d="m0 0c0-6.627 5.373-12 12-12s12 5.373 12 12-5.373 12-12 12-12-5.373-12-12z" clip-path="url(#c)"/>
    <path transform="matrix(1.3333 0 0 -1.3333 82.913 96)" d="m0 0 5-6h1v15c0 9.941-8.059 18-18 18s-18-8.059-18-18v-15h1l5 6" clip-path="url(#b)"/>
    <path transform="matrix(1.3333 0 0 -1.3333 65.579 80)" d="m0 0 11 12" clip-path="url(#a)"/>
  </g>
</svg>
