<?xml version="1.0" encoding="UTF-8"?>
<!-- Created with Inkscape (http://www.inkscape.org/) -->
<svg version="1.1" viewBox="0 0 132 132" xmlns="http://www.w3.org/2000/svg">
  <defs>
    <clipPath id="c">
      <path transform="translate(-126.64 -185.66)" d="m116.64 134.66h38v95.405h-38z"/>
    </clipPath>
    <clipPath id="b">
      <path transform="translate(-117.64 -157.66)" d="m116.64 134.66h38v95.405h-38z"/>
    </clipPath>
    <clipPath id="a">
      <path transform="translate(-123.68 -210.66)" d="m116.64 134.66h38v95.405h-38z"/>
    </clipPath>
  </defs>
  <g fill="none" stroke="#231f20" stroke-miterlimit="10">
    <path transform="matrix(1.3333 0 0 -1.3333 54 61.603)" d="m0 0v-51m17.996 0 4e-3 51.472" clip-path="url(#c)" stroke-width="2"/>
    <g stroke-width="2.6667">
      <path d="m53.75 97.557h24"/>
      <path d="m53.5 89.739h24"/>
      <path d="m65.833 45.603v44"/>
    </g>
    <path transform="matrix(1.3333 0 0 -1.3333 42 98.937)" d="M 0,0 V 22.535 C 0,32.314 7.603,40.659 17.377,40.989 27.602,41.335 36,33.148 36,23 V 0" clip-path="url(#b)" stroke-width="2"/>
    <path transform="matrix(1.3333 0 0 -1.3333 50.055 28.27)" d="m0 0c0-6.627 5.373-12 12-12s12 5.373 11.958 11.833l1e-3 15.167-2.079 2.868-2.455-2.467-2.455 2.467-2.455-2.467-2.455 2.467-2.455-2.467-2.454 2.468-2.455-2.467-2.455 2.467-2.282-2.869z" clip-path="url(#a)" stroke-width="2"/>
    <path d="m50 17.159h32" stroke-width="2.6667"/>
  </g>
</svg>
