<?xml version="1.0" encoding="UTF-8" standalone="no"?><svg viewBox="0 0 928 294" width="928" height="294" xmlns="http://www.w3.org/2000/svg"><path d="M146.184 132.779c109.66-.29 546.46-3 655.51-3.17m-658.29 1.1c109.28.04 544.95.55 655.36 1.21" stroke="#495057" stroke-width="2" fill="none" stroke-linecap="round"/><path d="M89.798 189.453q-.288-.396-.684-.684-3.24-.792-2.952-2.52-.108-.72.216-1.296.324-.576.972-.54.36-.036 1.008.18.648.18 1.08.036 0-.216-.036-1.944t-.036-2.556q-.036-.828.18-2.484.216-1.656.252-2.088-.072-.72.144-1.332.216-.648.792-1.512.576-.864.648-1.008.792-.972 2.268-.972.684 0 1.836.288 1.404.576 2.772 1.764 1.404 1.152 2.988 2.88 1.62 1.692 2.448 2.412 1.008 1.332 1.116 1.584.18.288.216.612.072.324.036.792v.648q-.108.144-.324.648-.18.468-.432.72-.216.216-.612.036-.828.216-1.368-.936-.216-.756-.216-1.62-.18-.18-1.26-1.332-1.044-1.188-1.26-1.404-.252-.18-1.836-1.584-1.584-1.404-2.268-1.584-1.116-.324-1.944.396-.792.684-1.008 1.872-.54 4.824 0 8.64l.468.252q1.62.36 4.32.72 2.736.36 4.104.648 2.232.72 3.168 1.584.144.54-.216 1.044-.324.504-.936.54-.576.144-1.332.144-.972 0-2.952-.396-1.944-.396-2.304-.432-1.26-.252-2.088-.252-.9 0-1.764.252v.288l-.036.792v.288q-.144 1.476.36 3.78.54 2.304.576 3.312 0 .252-.252.504-.252.216-.648.468-.36.252-.468.324-.36-.072-.648-.252-.288-.144-.468-.288-.144-.144-.324-.468l-.216-.54q-.036-.18-.18-.648-.144-.504-.216-.72-.684-2.448-.684-7.056zm18.359-.684q2.592-3.312 5.688-4.32 1.98-.252 2.088-.252 2.232.072 3.888 1.368 1.656 1.26 1.764 3.456.036 1.908-1.548 3.492-1.548 1.584-3.456 1.728-.72.252-1.548.252-1.872 0-4.14-1.368-.684-.684-.9-.684-.144-.072-.252 0-1.188 1.8-1.152 2.736.396 2.34 2.52 3.96 2.124 1.656 4.5 1.512.36.144 1.26 0 .9-.108 1.188-.18.324-.072 1.224-.36.936-.252 1.296-.36 1.26-.504 3.348-.648h.252q.252-.072.468.108.216.18.252.54v1.332q-1.296 1.476-3.204 1.584l-1.44.396q-1.008.288-1.548.396-.504.144-1.368.252-.828.144-1.512.108-3.168.144-6.084-1.62-2.664-1.368-4.104-4.752-.54-2.124.18-4.14.72-2.016 2.34-4.536zm2.808 1.728q.756 0 1.296.108.324.18.612.288.324.072.756.144.468.036.612.036h1.44q1.872-.576 2.484-1.62.108-.396 0-.684-.072-.324-.396-.54-.324-.216-.612-.324-.288-.108-.792-.252-.468-.18-.684-.252-.864 0-1.764.504-.9.468-1.44.936-.54.468-1.368 1.296 0 .036-.072.18-.072.108-.072.18zm17.245-1.872l.215 1.152q-.108.468.468 2.268 1.44-1.512 2.016-2.736.792-.9.684-1.836 1.584-.9 2.736-.684.648.18 1.368 1.62v3.42l.252.216q.684-.72 1.764-2.124 1.116-1.404 1.404-1.764 1.08-1.476 2.052-2.052 1.512.18 2.268 1.152 1.044 1.764 1.368 5.004-.036.648.072 1.368.108.72.324 1.584.216.864.288 1.368.36 1.008.252 1.836-.036.468-.468.612-.432.144-.9.036-.792-.18-1.368-1.332-.252-.54-.468-1.044-.18-.54-.36-1.296-.144-.792-.216-1.044-.036-.252-.18-1.332-.144-1.116-.144-1.188-.252-.72-.576-.72-.144.072-.54.432t-.792.756q-.36.36-.792.828l-.504.504-.36.504-1.332 1.728-.36.504q-.144.144-.54.684-.36.504-.648.756-.252.252-.612.396-.612.108-1.152-.108-.54-.252-.684-.828-.216-.288-.216-.684v-3.816h-.072q-.144-.072-.18-.036-2.484 3.492-3.852 5.904-.324.432-.468.432-1.548.18-1.8-.432-.108-.18-.288-.72-.18-.576-.18-.648v-8.748q.144-.972.936-.972.432 0 .9.324t.684.756zm33.407 5.22q-.288.216-.684.9-1.908 2.088-3.744 3.348-1.8 1.224-3.924 1.188-1.116.144-2.304-.288-1.188-.468-1.872-1.296-.324-.504-.468-.684-.108-.216-.36-.648-.252-.468-.36-.756-.072-.288-.18-.684-.108-.396-.108-.756 0-.396.108-.792.036-1.224.792-2.484.792-1.26 1.584-2.016t2.052-1.8q.252-.18.36-.288 1.512-1.224 4.104-1.224.54 0 3.42.288.072.072.468.252.432.18.612.396.18.18.036.504l.468.468q1.08.468 1.368.9 1.8 3.672 3.168 5.904.144.18.9.828.792.612.936.792.288.216.684.612.432.36.72.54.288.18.648.216.036.036.468.432.036.108-.036.288-.036.144-.108.36-.072.216-.108.288-.36.54-1.584.864-.432 0-.612.036-.144.072-.504-.072-.324-.108-.468-.18-.108-.036-.468-.252l-.54-.324-.144-.072q-.9-.756-2.484-2.592-1.548-1.872-1.836-2.196zm-10.476 1.116q.648.972 1.944.972.612 0 1.692-.288 1.764-.648 3.204-2.268 1.404-1.944 1.584-3.42 0-.108.144-.828.144-.756.108-1.044-.72.18-2.088.288-1.332.072-2.052.216-.936.144-1.908.9-.972.72-1.476 1.368-.504.648-1.368 1.836-.612.756.216 2.268zm22.536-2.304q.036-2.16.252-5.796.216-3.672.252-5.112-.036-1.764.144-6.588t.072-7.056q.288-.936 1.08-.936 1.008 0 1.656 1.152 0 .468.036.864l.144 2.592q.036.396.036.864-.072 3.384-.468 9.9-.36 6.516-.432 9.216l.108 1.548.108 1.548q.072.468.18 1.224.144.72.36 1.332.252.576.612 1.152.036.504-.252.9-.468.288-1.188.288-.828 0-1.296-.288-.612-.648-.936-1.62-.324-.972-.396-1.512-.072-.54-.072-1.98v-1.692zm10.44-3.888q2.592-3.312 5.688-4.32 1.98-.252 2.088-.252 2.232.072 3.888 1.368 1.656 1.26 1.764 3.456.036 1.908-1.548 3.492-1.548 1.584-3.456 1.728-.72.252-1.548.252-1.872 0-4.14-1.368-.684-.684-.9-.684-.144-.072-.252 0-1.188 1.8-1.152 2.736.396 2.34 2.52 3.96 2.124 1.656 4.5 1.512.36.144 1.26 0 .9-.108 1.188-.18.324-.072 1.224-.36.936-.252 1.296-.36 1.26-.504 3.348-.648h.252q.252-.072.468.108.216.18.252.54v1.332q-1.296 1.476-3.204 1.584l-1.44.396q-1.008.288-1.548.396-.504.144-1.368.252-.828.144-1.512.108-3.168.144-6.084-1.62-2.664-1.368-4.104-4.752-.54-2.124.18-4.14.72-2.016 2.34-4.536zm2.808 1.728q.756 0 1.296.108.324.18.612.288.324.072.756.144.468.036.612.036h1.44q1.872-.576 2.484-1.62.108-.396 0-.684-.072-.324-.396-.54-.324-.216-.612-.324-.288-.108-.792-.252-.468-.18-.684-.252-.864 0-1.764.504-.9.468-1.44.936-.54.468-1.368 1.296 0 .036-.072.18-.072.108-.072.18zm211.965-1.26q-2.376 2.016-4.32 5.004-.072.144-.936 1.584-.828 1.404-1.116 2.052-.396.648-1.152.468l-1.584-1.62v-1.116q.18-.936.396-3.636.216-2.7.288-3.204 0-.18-.036-.324l-.144-.936q-.036-.144-.036-.324v-.144q0-.576.36-.936.396-.36.972-.324 1.152 0 1.62.72.252.972.252 2.52 0 .324-.036.828v.504q.288-.216 1.152-1.08.9-.9 1.116-1.188.252-.324.612-.864.396-.576.756-.972.36-.432.864-.828.18-.252.432-.36.252-.144.468-.144.252-.036.54-.036h.576q.396-.144.792.072.432.18.9.792.468.576.576.792.144.216.576.9 1.116 2.592 1.116 5.652l.684 2.952q0 .108.216.72.252.612.252.648.072.972-.468 1.368-.108.036-.54.216-.396.144-.612.144-.36 0-.432-.36-.072-.108-.504-.792-.396-.72-.648-1.008-.684-2.376-.9-4.572-.108-.252-.324-1.08-.18-.864-.36-1.188-.756-.864-1.008-.936-.288 0-.36.036zm7.92 5.003v-3.887q-.253-.396-.253-1.152 0-.756.252-1.116.54-.396 1.26-.828.72-.432 1.584-.936.864-.504 1.26-.756 1.512-.9 3.78-.9 2.664 0 5.112 1.152 2.484 1.152 4.104 3.168 1.872 2.556.9 4.788-2.304 3.96-6.84 5.004-.576.216-1.296.324-.684.108-1.116.108-.432.036-1.368 0h-1.224q-1.836-.396-2.556-.576-.684-.18-1.476-.72-.792-.576-1.188-1.332-.36-.756-.936-2.34zm3.42 0q.251.505.827 1.117.576.576 1.008.684.828.432 2.376.432 1.44 0 2.988-.396 1.584-.432 2.916-1.44 1.332-1.044 1.512-2.448.036-.432.036-.684 0-.252-.252-.576-.216-.36-.396-.54-.18-.18-.504-.468-.324-.288-.468-.468-3.06-1.692-4.644-1.692-.792 0-1.512.324-.324.108-.684.468-1.044.972-1.368 1.116-.108.108-.432.396l-.504.504q-.216.18-.432.468-.18.252-.216.468-.216.396-.252.9-.036.504 0 .936.072.396 0 .9zm25.415-5.003q-2.376 2.016-4.32 5.004-.072.144-.936 1.584-.828 1.404-1.116 2.052-.396.648-1.152.468l-1.584-1.62v-1.116q.18-.936.396-3.636.216-2.7.288-3.204 0-.18-.036-.324l-.144-.936q-.036-.144-.036-.324v-.144q0-.576.36-.936.396-.36.972-.324 1.152 0 1.62.72.252.972.252 2.52 0 .324-.036.828v.504q.288-.216 1.152-1.08.9-.9 1.116-1.188.252-.324.612-.864.396-.576.756-.972.36-.432.864-.828.18-.252.432-.36.252-.144.468-.144.252-.036.54-.036h.576q.396-.144.792.072.432.18.9.792.468.576.576.792.144.216.576.9 1.116 2.592 1.116 5.652l.684 2.952q0 .108.216.72.252.612.252.648.072.972-.468 1.368-.108.036-.54.216-.396.144-.612.144-.36 0-.432-.36-.072-.108-.504-.792-.396-.72-.648-1.008-.684-2.376-.9-4.572-.108-.252-.324-1.08-.18-.864-.36-1.188-.756-.864-1.008-.936-.288 0-.36.036zm7.632.323q.072-.863 1.98-1.763.576-.144 1.404-.144.72 0 3.024.288h.18q.36.036 1.188-.108.864-.144 1.368-.036.252.036 1.008.072.792 0 1.26.072.504.036.756.144 1.044.72.828 1.656-.54.648-1.944 1.476-.324.036-.792 0-.468-.072-1.08-.18-.612-.144-.864-.18h-1.404q-.36.036-1.188.216-.792.144-1.476.252-.648.072-1.188.036-1.224.072-2.16-.324-.972-.972-.9-1.476zm14.904-1.727q.432-2.088.468-2.484.072-1.008.468-5.292.396-4.32.432-6.552.072-.216.18-.396.144-.216.396-.432l.324-.324q.36-.288.72-.288 1.008 0 1.584 1.188-.036 1.368-.324 3.816-.288 2.448-.36 3.492-.612 5.004-.288 7.416l.072-.036h.252l1.152-.216q.18-.036.324-.036 2.952-.252 3.564-.252 2.592 0 4.68.972 1.224.576 2.052 2.052.864 1.44.756 2.7.144.9-.288 1.8-.432.864-.9 1.332-.432.468-1.368 1.332-2.772 1.908-6.264 1.836-1.98.18-4.572-1.332-2.7-1.692-3.06-5.04-.072-2.628 0-5.256zm3.852 4.968q.036.36-.036.54-.072.144.144.504.216.324.252.468.072.108.36.432.288.288.36.396l.396.396q.324.252.36.288 1.728.396 3.636.216 2.988-.648 3.42-2.52.288-.936-.504-1.872-.792-.972-1.764-1.296-.648-.18-1.332-.18-2.412 0-4.572 1.296-.36.288-.504.396-.108.108-.216.36-.072.252 0 .576zm14.077-13.824q.215-.54.755-.864.576-.36 1.188-.288.216-.036.396 0 .18.036.36.144.216.108.324.18.108.072.288.324.216.252.288.324.072.036.288.36l.216.288q.144.36 1.368 1.584.252.36.252.864.036.468-.252.756h-.792q-.612.108-1.26-.072-.612-.18-1.656-.72-1.008-.54-1.08-.576-.612-.36-.828-1.008-.18-.684.144-1.296zm2.303 18.252q-.072-.432-.216-1.872-.144-1.476-.288-3.06-.144-1.62-.18-1.908-.072-.972 0-2.052.54-.936 1.8-.684.468.216.936 1.368 0 .756.108 1.584.144.828.252 1.404.144.576.396 1.512t.36 1.44q0 .288-.072.936-.036.612-.108 1.188-.036.576-.036.612-.036.108-.108.396-.036.288-.108.468-.036.18-.18.396-.108.18-.288.288-.972.18-1.584-.432-.612-1.08-.684-1.584zm15.012-7.992q-2.376 2.016-4.32 5.004-.072.144-.936 1.584-.828 1.404-1.116 2.052-.396.648-1.152.468l-1.584-1.62v-1.116q.18-.936.396-3.636.216-2.7.288-3.204 0-.18-.036-.324l-.144-.936q-.036-.144-.036-.324v-.144q0-.576.36-.936.396-.36.972-.324 1.152 0 1.62.72.252.972.252 2.52 0 .324-.036.828v.504q.288-.216 1.152-1.08.9-.9 1.116-1.188.252-.324.612-.864.396-.576.756-.972.36-.432.864-.828.18-.252.432-.36.252-.144.468-.144.252-.036.54-.036h.576q.396-.144.792.072.432.18.9.792.468.576.576.792.144.216.576.9 1.116 2.592 1.116 5.652l.684 2.952q0 .108.216.72.252.612.252.648.072.972-.468 1.368-.108.036-.54.216-.396.144-.612.144-.36 0-.432-.36-.072-.108-.504-.792-.396-.72-.648-1.008-.684-2.376-.9-4.572-.108-.252-.324-1.08-.18-.864-.36-1.188-.756-.864-1.008-.936-.288 0-.36.036zm21.565 4.608q-.289.216-.685.9-1.908 2.088-3.744 3.348-1.8 1.224-3.924 1.188-1.116.144-2.304-.288-1.188-.468-1.872-1.296-.324-.504-.468-.684-.108-.216-.36-.648-.252-.468-.36-.756-.072-.288-.18-.684-.108-.396-.108-.756 0-.396.108-.792.036-1.224.792-2.484.792-1.26 1.584-2.016t2.052-1.8q.252-.18.36-.288 1.512-1.224 4.104-1.224.54 0 3.42.288.072.072.468.252.432.18.612.396.18.18.036.504l.468.468q1.08.468 1.368.9 1.8 3.672 3.168 5.904.144.18.9.828.792.612.936.792.288.216.684.612.432.36.72.54.288.18.648.216.036.036.468.432.036.108-.036.288-.036.144-.108.36-.072.216-.108.288-.36.54-1.584.864-.432 0-.612.036-.144.072-.504-.072-.324-.108-.468-.18-.108-.036-.468-.252l-.54-.324-.144-.072q-.9-.756-2.484-2.592-1.548-1.872-1.836-2.196zm-10.477 1.116q.648.972 1.944.972.612 0 1.692-.288 1.764-.648 3.204-2.268 1.404-1.944 1.584-3.42 0-.108.144-.828.144-.756.108-1.044-.72.18-2.088.288-1.332.072-2.052.216-.936.144-1.908.9-.972.72-1.476 1.368-.504.648-1.368 1.836-.612.756.216 2.268zm21.097-5.581q.251-1.583 1.08-2.735.827-1.152 2.34-2.52 1.295-.648 3.347-.648 2.52 0 4.14.864 3.06 1.908 4.356 3.204 0 .108.036.54.036.432-.036.72-.036.288-.252.324-1.152.18-2.34-.36-.288-.18-.936-.54-.648-.396-.972-.576-.324-.18-.864-.36t-1.044-.216h-.936q-.648-.036-1.044 0-.36 0-.9.108t-.972.36l-.216.216q-1.296 1.728-1.62 2.664.072 1.08 0 1.944-.072.828-.036 1.908.072 1.08.288 1.908.252.432.288.864.036.396-.18.936t-.324.756q-.072.18-.468.828-.324.432-.792.432-.504 0-1.044-.432-.864-.54-1.368-2.016 0-5.688.468-8.172z" style="white-space:pre" font-size="36" font-family="Virgil 3 YOFF"/><path d="M544.113 211.809v-.432q.288-.684 1.62-4.248 1.368-3.564 1.8-4.644.936-2.376 1.116-3.78l-.504-.036q-.504-.036-.612 0-1.008.252-1.584.252-1.08 0-2.052-.72-1.98-.792-3.204-4.104-.252-1.044-.252-2.196 0-1.188.108-2.088.144-.9.324-2.196.216-1.332.288-2.196.324-1.188 1.764-1.188.612 0 1.188.288.9.612.72 1.476-.036.252-.72 1.26-.576 1.764-.432 5.256.036 1.044.972 1.8.972.72 2.088.972.432-.036.792-.18.396-.144.792-.432.396-.324.612-.504.216-.216.684-.72.504-.54.648-.72.648-.756 1.152-1.872.54-1.152.756-1.764.216-.648.612-2.052l.108-.54q.108-.396.18-.612.072-.252.216-.504.18-.252.396-.396.864-.468 1.728-.468 1.008 0 1.692.684.756 1.08-.684 3.204-.684 1.368-2.268 4.104-.144.18-.432.756-.252.54-.252.612-1.188 3.132-1.584 4.788-.432 1.188-1.584 4.32-1.116 3.132-1.836 4.968-.324.648-.468 1.332-.108.72-.216 1.8-.108 1.116-.252 1.908-.072.972-.684 1.368-.54.216-1.116.216-.576 0-.936-.216-.684-1.368-.684-2.556zm224.909-23.184l.216 1.152q-.108.468.468 2.268 1.44-1.512 2.016-2.736.792-.9.684-1.836 1.584-.9 2.736-.684.648.18 1.368 1.62v3.42l.252.216q.684-.72 1.764-2.124 1.116-1.404 1.404-1.764 1.08-1.476 2.052-2.052 1.512.18 2.268 1.152 1.044 1.764 1.368 5.004-.036.648.072 1.368.108.72.324 1.584.216.864.288 1.368.36 1.008.252 1.836-.036.468-.468.612-.432.144-.9.036-.792-.18-1.368-1.332-.252-.54-.468-1.044-.18-.54-.36-1.296-.144-.792-.216-1.044-.036-.252-.18-1.332-.144-1.116-.144-1.188-.252-.72-.576-.72-.144.072-.54.432t-.792.756q-.36.36-.792.828l-.504.504-.36.504-1.332 1.728-.36.504q-.144.144-.54.684-.36.504-.648.756-.252.252-.612.396-.612.108-1.152-.108-.54-.252-.684-.828-.216-.288-.216-.684v-3.816h-.072q-.144-.072-.18-.036-2.484 3.492-3.852 5.904-.324.432-.468.432-1.548.18-1.8-.432-.108-.18-.288-.72-.18-.576-.18-.648v-8.748q.144-.972.936-.972.432 0 .9.324t.684.756zm33.408 5.22q-.288.216-.684.9-1.908 2.088-3.744 3.348-1.8 1.224-3.924 1.188-1.116.144-2.304-.288-1.188-.468-1.872-1.296-.324-.504-.468-.684-.108-.216-.36-.648-.252-.468-.36-.756-.072-.288-.18-.684-.108-.396-.108-.756 0-.396.108-.792.036-1.224.792-2.484.792-1.26 1.584-2.016t2.052-1.8q.252-.18.36-.288 1.512-1.224 4.104-1.224.54 0 3.42.288.072.072.468.252.432.18.612.396.18.18.036.504l.468.468q1.08.468 1.368.9 1.8 3.672 3.168 5.904.144.18.9.828.792.612.936.792.288.216.684.612.432.36.72.54.288.18.648.216.036.036.468.432.036.108-.036.288-.036.144-.108.36-.072.216-.108.288-.36.54-1.584.864-.432 0-.612.036-.144.072-.504-.072-.324-.108-.468-.18-.108-.036-.468-.252l-.54-.324-.144-.072q-.9-.756-2.484-2.592-1.548-1.872-1.836-2.196zm-10.476 1.116q.648.972 1.944.972.612 0 1.692-.288 1.764-.648 3.204-2.268 1.404-1.944 1.584-3.42 0-.108.144-.828.144-.756.108-1.044-.72.18-2.088.288-1.332.072-2.052.216-.936.144-1.908.9-.972.72-1.476 1.368-.504.648-1.368 1.836-.612.756.216 2.268zm22.536-2.304q.036-2.16.252-5.796.216-3.672.252-5.112-.036-1.764.144-6.588t.072-7.056q.288-.936 1.08-.936 1.008 0 1.656 1.152 0 .468.036.864l.144 2.592q.036.396.036.864-.072 3.384-.468 9.9-.36 6.516-.432 9.216l.108 1.548.108 1.548q.072.468.18 1.224.144.72.36 1.332.252.576.612 1.152.036.504-.252.9-.468.288-1.188.288-.828 0-1.296-.288-.612-.648-.936-1.62-.324-.972-.396-1.512-.072-.54-.072-1.98v-1.692zm10.44-3.888q2.591-3.312 5.687-4.32 1.98-.252 2.088-.252 2.232.072 3.888 1.368 1.656 1.26 1.764 3.456.036 1.908-1.548 3.492-1.548 1.584-3.456 1.728-.72.252-1.548.252-1.872 0-4.14-1.368-.684-.684-.9-.684-.144-.072-.252 0-1.188 1.8-1.152 2.736.396 2.34 2.52 3.96 2.124 1.656 4.5 1.512.36.144 1.26 0 .9-.108 1.188-.18.324-.072 1.224-.36.936-.252 1.296-.36 1.26-.504 3.348-.648h.252q.252-.072.468.108.216.18.252.54v1.332q-1.296 1.476-3.204 1.584l-1.44.396q-1.008.288-1.548.396-.504.144-1.368.252-.828.144-1.512.108-3.168.144-6.084-1.62-2.664-1.368-4.104-4.752-.54-2.124.18-4.14.72-2.016 2.34-4.536zm2.807 1.728q.756 0 1.296.108.324.18.612.288.324.072.756.144.468.036.612.036h1.44q1.872-.576 2.484-1.62.108-.396 0-.684-.072-.324-.396-.54-.324-.216-.612-.324-.288-.108-.792-.252-.468-.18-.684-.252-.864 0-1.764.504-.9.468-1.44.936-.54.468-1.368 1.296 0 .036-.072.18-.072.108-.072.18z" style="white-space:pre" font-size="36" font-family="Virgil 3 YOFF"/><path d="M145.814 113.369l11.59 18.94-15.06 12.36-14.2-12.74" fill="#e64980" fill-rule="evenodd"/><path d="M143.084 114.259c4.13 3.81 6.68 8.11 13.9 17.97m-13.55-17.29c5.97 5.42 11.04 10.1 14.9 15.61m2.41.77c-8.49 4.84-12.52 9.28-15.15 14.25m12.4-13.82c-3.56 4.84-8.55 9.14-13.14 14.27m-1.29-.03c-6.86-4.76-9.16-11.33-14.79-15.43m14.93 16.43c-5.74-5.62-11.1-11-15.65-16.25m-.65-1.32c7.91-5.02 12.05-10.73 15.48-15.8m-15.91 16.7c6.51-5.79 13.04-11.47 16.73-16.19" stroke="#000" fill="none" stroke-linecap="round"/><path d="M471.904 114.809l15.94 15.36-14.2 18.26-18.97-14.97" fill="#be4bdb" fill-rule="evenodd"/><path d="M472.834 112.439c3.96 6.28 9.4 14.53 16.99 19.97m-15.76-18.62c5.2 5.23 8.68 10.53 16.16 18.29m-1.89-.97c-1.82 2.4-4.27 7.15-14.24 14.8m15.94-13.77c-4.74 4-8.97 8.64-16.11 14.69m-2.28.98c-3.59-7.5-11.11-12.99-15.59-15.54m16.75 15.68c-4.05-3.83-7.23-7.67-16.74-16.85m.9-.5c2.93-4.3 6.49-9.36 17.92-18.27m-19.94 18.72c7.05-5.9 13.02-12.88 19.44-18.35" stroke="#000" fill="none" stroke-linecap="round"/><path d="M800.344 113.669l16.8 18.26-15.97 16.03-15.93-17.52" fill="#228be6" fill-rule="evenodd"/><path d="M799.954 114.069c3.9 6.42 10.15 10.28 17.25 15.92m-14.35-15.11c2.94 4.28 8.69 9.96 13.34 17.04m1.26-2.52c-3.66 5.86-9.38 9.41-15.79 14.7m15.86-13.15c-5.15 5.73-11.16 10.62-14.75 14.88m.63-.9c-5.26-3.81-10.25-7.07-18.99-14.39m16.81 15.48c-5.4-6.14-11.22-12.22-15.76-15.27m.36-.58c2.45-3.99 8.47-7.29 17.12-17.09m-16.92 17.73c3.43-4.28 8.28-7.87 15.16-15.14" stroke="#000" fill="none" stroke-linecap="round"/><path d="M628.284 85.219c6.87-3.52 16.94-2.95 25.53-1.42 8.59 1.53 19.65 4.91 26.01 10.59 6.37 5.69 10.45 15.15 12.19 23.51 1.74 8.36 1.16 18.33-1.74 26.65-2.9 8.31-8.86 18.23-15.65 23.23-6.78 5.01-17.11 6.23-25.07 6.79-7.95.56-15.68.42-22.64-3.43-6.97-3.84-14.7-11.84-19.15-19.64-4.45-7.8-7.9-19.01-7.54-27.17.35-8.16 1.5-14.65 9.69-21.78 8.19-7.14 29.26-18.85 39.44-21.01 10.18-2.16 21.31 6.75 21.64 8.05m-13.38-5.11c8.65 1.08 18.33 3.45 24.24 9.43 5.9 5.98 9.9 17.29 11.19 26.48 1.28 9.18-.75 20.65-3.48 28.63-2.72 7.97-5.87 15.16-12.87 19.2-7 4.04-20.13 4.88-29.12 5.05-8.99.16-17.69.06-24.8-4.06-7.12-4.13-13.94-12.69-17.89-20.69-3.96-8-6.75-19.48-5.83-27.34.92-7.86 5.06-14.2 11.34-19.84 6.28-5.64 18.09-10.96 26.32-14 8.23-3.04 20-4.2 23.06-4.25 3.06-.05-4.58 2.56-4.69 3.96" fill="#b8afe6"/><path d="M616.464 95.949c5.04-5.71 12.88-9.6 21.17-10.86 8.28-1.27 20.24-.06 28.55 3.27 8.3 3.34 16.38 10.3 21.28 16.73 4.89 6.42 8.01 13.48 8.1 21.84.1 8.36-2.8 20.94-7.54 28.31-4.74 7.37-12.84 12.81-20.92 15.91-8.07 3.1-18.85 3.58-27.51 2.68-8.66-.9-18.52-2.55-24.43-8.08-5.9-5.53-9.06-16.45-11.01-25.12-1.94-8.66-4.44-18.48-.64-26.87 3.79-8.38 18.05-18.5 23.43-23.45 5.38-4.95 9.11-6.75 8.87-6.25m-15.08 6.46c5.78-4.22 16.4-5.27 25.02-4.91 8.63.35 19.64 3.2 26.73 7.05 7.1 3.84 12.69 8.65 15.86 16.03 3.17 7.37 4.56 19.73 3.16 28.2-1.4 8.47-5.82 15.88-11.56 22.63-5.74 6.75-15.51 15.94-22.88 17.88-7.37 1.94-13.67-2.92-21.33-6.24-7.65-3.32-18.52-7.77-24.59-13.68-6.08-5.91-10.67-13.03-11.89-21.77-1.22-8.74.49-22.77 4.56-30.66 4.08-7.89 17.09-14.85 19.89-16.68 2.81-1.83-3.12 5.01-3.05 5.7" stroke="#000" fill="none" stroke-linecap="round"/><path d="M623.143 122.926l.292 1.561q-.146.635.635 3.075 1.952-2.05 2.733-3.71 1.073-1.22.927-2.488 2.147-1.22 3.709-.927.878.244 1.854 2.196v4.636l.342.293q.927-.976 2.39-2.88 1.514-1.903 1.904-2.39 1.464-2.002 2.782-2.782 2.05.244 3.074 1.561 1.415 2.391 1.854 6.783-.048.879.098 1.855.146.976.44 2.147.292 1.171.39 1.854.488 1.367.341 2.49-.049.634-.634.829-.586.195-1.22.049-1.074-.244-1.855-1.806-.341-.732-.634-1.415-.244-.732-.488-1.757-.195-1.074-.293-1.415-.049-.342-.244-1.806-.195-1.513-.195-1.61-.342-.976-.78-.976-.196.097-.733.585-.537.488-1.073 1.025-.488.488-1.074 1.123l-.683.683-.488.683-1.806 2.342-.488.684q-.195.195-.732.927-.488.683-.878 1.025-.342.341-.83.536-.83.147-1.561-.146-.732-.342-.928-1.122-.292-.39-.292-.928v-5.172h-.098q-.195-.098-.244-.05-3.367 4.734-5.222 8.004-.439.586-.634.586-2.098.244-2.44-.586-.146-.244-.39-.976-.244-.78-.244-.878v-11.859q.195-1.317 1.268-1.317.586 0 1.22.439.635.439.928 1.025zm30.402.194q3.514-4.489 7.71-5.855 2.684-.342 2.83-.342 3.026.098 5.271 1.855 2.245 1.708 2.391 4.684.05 2.587-2.098 4.734-2.098 2.147-4.685 2.342-.976.342-2.098.342-2.538 0-5.612-1.854-.927-.928-1.22-.928-.195-.097-.342 0-1.61 2.44-1.561 3.71.536 3.171 3.416 5.367 2.879 2.245 6.1 2.05.488.195 1.708 0 1.22-.147 1.61-.244.44-.098 1.66-.488 1.268-.342 1.756-.488 1.708-.683 4.538-.879h.342q.342-.097.634.147.293.244.342.732v1.805q-1.757 2.001-4.343 2.148-.537.146-1.952.536-1.367.39-2.099.537-.683.195-1.854.342-1.122.195-2.05.146-4.294.195-8.247-2.196-3.611-1.854-5.563-6.441-.732-2.88.244-5.612.976-2.733 3.172-6.15zm3.806 2.343q1.025 0 1.757.147.44.244.83.39.439.098 1.025.195.634.049.83.049h1.951q2.538-.78 3.367-2.196.147-.537 0-.927-.097-.44-.536-.732-.44-.293-.83-.44-.39-.146-1.074-.341-.634-.244-.927-.342-1.171 0-2.391.684-1.22.634-1.952 1.268-.732.635-1.854 1.757 0 .049-.098.244-.098.147-.098.244z" style="white-space:pre" font-size="48.8" font-family="Virgil 3 YOFF" text-anchor="middle"/><path d="M2.024 3.169c300.65 3.27 601.08 4.07 924.31.5m-924.55-.36c193.64-3.24 387.51-2.95 924.11.12m-1.07.48c1.27 90.38 3.45 180.35-.04 287.18m1.11-287.91c-1.4 92.56-1.69 185.96.51 288.54m-.56-.64c-223.95 1.79-448.32 1.19-923.88-.12m923.6.64c-290.94-2.25-581.88-2.35-923.78-.07m-.35-1.46c-.84-83.63-.42-167.61.92-285.89m-.85 287.31c2.02-114.37 1.5-227.09.91-288.6" stroke="#495057" stroke-width="2" fill="none" stroke-linecap="round"/></svg>
