<svg version="1.0" xmlns="http://www.w3.org/2000/svg" width="700" height="700" viewBox="0 0 700 700"><path d="M347 103c-3 3-3 3-3 1s-5-1-8 1h-2c1-2 1-2-1 0l-4 3c-2 1-3 1-5-2-2-2-2-2-4-1l-3 2-2 1-7 1-9 1c-1 1-2 1-2-1l-3-3h-6l-1 2-5 1-4 1-3 1 1-2c4-3 2-3-4 0l-7 4-10 5-9 4c-1 0-15 14-14 15l-1 1c-1 0-1 3 1 3h1v3 3a115 115 0 010 37c1 2 1 12-1 20v6l-1 2v1l-2 2-1 5 2 7-1 3v2l5 1h5c-1-2-1-2 3-2h4l5 1h6l3-1 3-1c-1-1 1-2 4-2 7 0 11-1 13-2h6c2 0 3 0 5 2l1 1h3c0-2 2-1 4 1 1 2 7 5 9 5l2 2 2 1 3 1 7 4c3 1 5 6 3 8l-1 8-1 16c-2 10-2 16-1 24 2 8 2 8 0 11l-5 8-1 1v2c1 2 4 10 3 13l5 17 7 7c8 8 14 10 23 8l10-2c5 0 12 2 12 3l-4 5c-4 4-5 4-14 6-12 2-13 3-25 10-14 10-22 12-30 8l-8-5c-2-3-4-3-8-3-8-1-11-4-9-14l5-13a107 107 0 008-21l2-7c1-6 1-7 3-9l1-4c0-7 0-7 2-7l3-1c0-2 3-2 5-1v3h1l2-1 1-5v-3c-2-1-2-7-1-7v-1l2-7c2-5 2-11 1-11l-4-3c-2-2-4-2-6-1h-34l-1 1-2-1h-1l-3 1c-4 1-7 4-5 5 1 1-1 1-4 1-5 0-6 0-7 3-1 2-2 2-4 2-3 0-4-1-5-3-2-5-6-6-13-4-8 3-11 5-11 10 0 2 1 3 2 3l1 2v4l1 6 1 7 1 4 3 6v3c-2 0-1 3 2 11l4 9 2 6 2 6 4 8 1 2 1 3 1 3c0 1 0 2 2 3 2 2 2 2 0 4h-1v2c-1 1-2 2-1 3l-1 4v12l1 7 4 10 3 5a236 236 0 017 15l1 2c1 2 3 3 4 2v1c-2 3-2 6 0 7v1c-2 2-2 2 0 6l4 6 1 4c-1 5 3 15 9 22l4 6 1 1c1-1 2 0 3 1l5 4h3c1-2 2-2 3-1l1 2c-1 1 0 2 1 3l3 4 2 1c0-1 1-1 3 1l4 2 6 1 7 2 1 1h4c11 3 28 1 34-2l5-4c5-3 1 1-5 5l-9 7c-16 15-16 15-15 17l-1 2v3l1 2c1 1-1 1-6 1-7 0-7 0-13 4a185 185 0 00-16 14l-1 4h-2c-2-1-4 0-8 3-19 11-39 17-60 17-10-1-11-1-17-4-7-4-7-4-7-2v2l1-1v1c0 2 0 2 2 1l1 1v1c1-1 4 0 3 1h2v2 1c2-1 4 0 3 1l1 1c2-1 2-1 2 1h3l1 1c-1 2 1 3 3 2h1c-1 2-1 2 1 1h1l3 2 3 2 1 1 3 1 4 2 3 2 3 1 2 1 3 1 2 2h1l1 2h1c1-2 1-2 1 0h2c0 1 0 2 1 1h1l2 2c1-1 2 0 4 1h2l1 1 1 1h4l3 1 1 1h1l1 1h3l1 1h3l2 2c-1 1 0 1 0 0 2-1 4 2 4 3-1 1-1 1 0 0 2-2 3-2 6 0l3 1c2 0 3 0 2 1h6c2-1 2-1 2 1-1 1-1 1 0 0h7c-1 2 1 2 3 1 1-1 1-1 1 2l-1 2 1-2c2-3 3-4 2-1l1-1c1-2 2-2 2-1h2c0 2 0 2 1 1 1-2 3-2 4 0s1 2 1 0l1-2 1 2c-1 2-1 2 1 0l1-3v7l1-1v-3c0-2 0-2 1 0 1 3 1 3 1 1v-2l1-1 1 1c-1 1 0 2 2 1l2 2 2-2 1-2v3l1-2c1-2 1-2 1 0v4c0 2 0 2 2 2l3-1 4-1a90 90 0 0045-21l1-1 3-1a133 133 0 0025-26c2-5 3-6 7-7l9-1 4-1a297 297 0 00-31-43c-3-3-11-9-14-9-4-1-23-11-24-13l2-2c2-1 3-5 1-5l1-6h7c0-1-4-3-5-2l-1-1-1-3 2-11c1-8 2-10 5-13l9-10 8-9a176 176 0 0033-70c2-6 3-7 6-9s5-5 8-13c5-9 5-12 7-21 0-6 1-7 4-20 4-16 5-32 2-37-2-3-2-3-6-3-3 1-4 0-5-2v-2l1-1c1-1 0-2-1-2l-1 1h-1v3l-2 9c-1-1-2-6-1-7l-1-4c-1-5-1-6 2-5 2 2 4 2 4 1l-3-4-2-2v-1l1-4v-7h4l-1 1 1 10 3 4c1 3 1 3 0 0v-4l-1-1-1-2-1-1v-1h1l1-2v-3c1 1 1 0 0 0l1-2v-2l1-2h2c2 0 2-1 1-4v-4c2 1 2-4 1-8v-2l1-1h-2l1-2 2-6-1-5v-1c1 1 1 1 0 0l-1-2-2-6-1-4v-1c1 1 1 0 1-2v-4c-1-1-5-10-4-11s-3-9-6-12c-2-2-6-9-4-8l-3-6-7-11c-6-11-15-18-28-22l-6-2-2-2-2-2c0-1-2-3-7-4l-5-2-10-3 1 1 3 1c2 2 2 2-2 1-5 0-7 1-2 2 3 1 3 1 0 2-2 1-9 1-14-1h-7c-3 1-3 1-3-1v-3h-6l3-1c3-1 3-1 2-2h-4c-3 2-3 1-1-1l2-2-2-1h-2l-1 1-3 1v-1c3-2 3-6 2-7l-2 1h1l1 1c-1 1-3 0-2-2 0-2-1-1-4 2h-1c2-4 0-3-2 0zm57 136h2c-1-2 1-1 2 0l5 2c10 2 11 2 9 3s-2 1 0 1c3 0 4 2 2 2-1 0-1 1 1 1 1 1 0 1-3 1l-6 1h-7l-6 1-4 3c-4 1-6 2-7 1-2-1-3-1-3 1l-1 4c0 1 8 4 14 4l8 2 4 1 21 8c8 4 11 7 9 8-1 1-1 1 2 2l2 2c-2 1-5 0-8-3-4-3-5-2-2 1 1 2 3 4 6 4 4 1 4 2 2 2l-6-1c-4-3-8-3-8-2l-5-1-10-1h-6l-1-1h-10-1l-3-2a204 204 0 01-21-3l1-2c1-2 1-2-1-4s-3-4-2-6c0-1 0-3-2-4l-1-3-1-2-2-4-1-4c-1-1-1-2 3-5l12-6 2-1 3-1c3 0 3 0 2 1v1l2-1c2-2 11-2 14 0zm69 5c1 2 0 3-1 2l-1-3c1-3 2-3 2 1zm-10 46l1 2 1 1c0 1-1 1-1-1l-2-3c0-2 0-2 1-1v2zm14 4l-1 7-3 9v5l-2-4-1-7-2-4c-2-1-1-2 3-5 5-3 6-4 6-1zM279 401l4 2 2 1c0 2 9 5 13 5l4 1 8 2h16c5-1 7 0 10 1 4 2 12 3 13 2h1l1-1 17-3 19-2c3-2 8-2 8-1l-6 2-10 4-20 4-12 2c-6 1-11 2-30 1l-12 1h-11l-10 1c-1 1 5 6 6 5l1 1 15 8 1 1 6 1a123 123 0 0120 1c2 0-1 2-4 2l-17-1-4 1-2 2c1 0 0 5-2 8-1 1-5 2-8 1h-3c-3 2-9 2-15-1h-2c-2 0-5-3-5-5h1l2 1v-2c-2-2-3-6-1-6l2 2c2 2 6 3 8 2v-7l-3-4-5-7-6-5-5-4c-3-2-4-5-1-6 3 0 4-2 4-5-1-2 1-5 2-4l2-1c1-2 6-2 8 0zm115 111l-1 1v-1l1-2v2zm30 28c8 10 9 11 12 19 4 12 1 21-11 34a1121 1121 0 00-10 9c12-14 15-24 12-41a97 97 0 00-12-30c0-2 3 1 9 9zm-71 94l-2 1h-2l2-1h2z"/><path d="M385 111l2 1h2l-2-1h-2zm32 4h-5l-5 1 10-1 1-1-1 1zm45 53l1 1 3 2 3 2-2-3c-4-3-5-4-5-2zm-208 77l-3 2-1 2c0 1-2 1-2 3s0 2 1 1h2c1 2 5 3 14 3l12-2c2-2 0-5-3-5-2 0-2-1-2-2l-1-1h-2c-7-2-11-2-15-1zm210 11l1 2 1 1-1-3h-1zm-161 80l-5 6c-1 3-1 4 2 9 2 5 3 6 6 7 6 2 8 0 8-6l-2-7-1-5-2-4c-3-2-3-2-6 0zm105 169c-2 0-5 4-3 4l-1 2c-2 3-2 3 1 2l4-2 3-1h5l-1-1v-2h-3c-2 0-3 0-2-1v-2l-3 1zm-12 3c0 3 1 4 2 3l-1-2v-1l2-1-2-2c-1 0-2 1-1 3zm26 5l-1 1c-1-1-4 0-3 1l1 1h2l1 1h1c0 2 1 2 3 1l3-3-1-2h-6zm8 3v3l1 1c-1 2 3 1 4 0 1-2 1-3-2-5-4-2-4-2-3 1zm13 7v4h3c2 0 2 1 2 2-1 1 0 2 1 2 1 1 2 1 1 2l1 1 1-2v-1l1-1c-1-1 0-1 0 0 1 1 2 3 1 4l1 2 1 1 3 1h2c-1 1 0 1 3 3s3 2 1 2l-2-1-1-1c-1 1 0 2 1 3 2 1 2 3 2 3l1 1 4 1-2-6 2-1c4 1 3-2 0-4l-4-2-2-1-2-1-2-1-2-1-2-1v-2c0-2 0-2-1-1h-3l-2-1-2-1-4-1h-1l1-2v-1l-1 1z"/><path d="M457 529l1 1 1-1-2-1v1zm-334 2c0 1 2 1 3-1l-1-1-2 2zm31-1c1 1-2 3-4 3-1-1-1-1-1 1 1 2-2 5-4 4-1-1-2 2-1 4l1 3v-3l2-3c2-2 2-2 4 0v3c-2 3 0 4 2 2l1-1c0 2 1 2 3 1s2-2 2-3h-1c0 2 0 2-2 1s-3-2-3-4l2-6v-3l-1 1zm-64 6c0 1-1 2-2 1-2 0-1 1 0 3h2l1-1v1l1 1 1-2h4c1-2 1-2-1-3h-6zm388 1c-1 1 0 2 1 2 2 2 3 3 1 2l-2 1 5 1 1 1 2 1 1 1 1 2 1-1 6 1c2 2 11 8 13 8l1 1h-2c-2 0-2 0-1 1 1 2 0 3-3 2l-2 1-1 2-1-2c0-3-1-5-4-6-4-2-6-2-6-1s3 2 4 1l1 1v2l1 2 2 1c1-1 1-1 1 1-1 1 0 2 1 3 2 1 2 2 2 5l-1 1c0-2-5-8-6-8s-4-2-4-4l-1-2-2-2c0-2 0-2-1-1h-1l-2-3-2-2c0-1-1-2-2-1l-2-2-1-3v2c0 1 0 2-1 1l-3-2c-1-1-2-1-2 1l1 1 2 1v1l-1 1 2 1c1-1 3 0 2 1v5l1-2 1 1 1 3c3 3 1 5-3 4l-2 1 3 1 2 4h1c3-1 3-2 1-3l-1-2h1l1 1 5 5h-1c-1-1-8 0-9 2-1 1 6 1 11-1 2 0 2 0 0 1-1 1-2 2-1 3h2c1-1 1-1 2 1 0 2 1 3 2 2v-2l2-1 4 2h2v2h-5c-1-1-1 0-1 1h-2c-2 0-3 2-1 4l1-1 1-1 1 1v2h1l1-2 1 2v3l1 2 3-6-2-1-1-1c0-1 5 0 7 2v3l-2 1h-2c-2 0-1 3 1 4l2 1 1 1 3 1 2 3h1c-1-1 1-2 5-2 2-1 2 0 0 1h-2l-1 1 1 2 1-1 1-1c2 0 2 1 0 3-2 3-1 4 3 3l2 1c-1 2 0 1 1 0l3-1 1 1-3 1c-2 1 0 5 3 5 1 0 2 0 1 1 0 1 2 3 4 3l2 1 2 1 1 1 2 2c2 0 3 1 3 2-1 2 3 8 4 6l2 1 1 2c3 0 9 4 9 6l2 1 4 2 1 2-1-1-4-2h-3-2-1l-1-2-5-4-3-3-4-3c-4-3-4-3-4-1l2 3c2 0 3 2 0 2v-1l-1-1c-2 1-3 0-5-2v-1c2 2 3 1 2-1l-2-3-7-8c-6-5-9-6-11-6-3 0-3 0-2 2s1 1-2 1c-2 0-2 0-1 1v2c0 2 5 4 6 3h1l4 2 2-1c0-2 0-2 2 0l1 2v1l-1 1c-2-2-7-2-7 0l-1 1v1c1 1 1 1-1 1-1 0-2 0-1 1l3 3c1 1 2 2 3 1 1 0 1 1-1 2l-4 2-2 1v1c-1 0-1 1 1 1h2c2-1 5-1 5 1 1 1 0 1-1 1l-2 1-1 1h-1c0 2 4 1 6-1v-3l1-1 3-1c1-1 2-2 3-1s1 1-1 1l-3 3c0 2 1 2 4 2s3 0 2 1c-2 1-3 2-4 1v2c0 2 0 2-2 1h-2l1 3h-1l-2-4c0-1-5-1-5 1h-2l-1 1 3 1h1l1 1h1l-1 1-1 2c1 2 2 3 2 1h1c2 2 3 1 3-1h2l9-1-4 1c-4 0-4 0-2 2l2 2-1 1h-2c-1 1-1 1 0 0l-1-2c-1-1-2 0-1 1v4h-2-1c-2 0-2 0-1-3s-1-4-3-2c-1 3-3 2-2-1h-1-4l4 3 4 2h-1c-1-1-1 0-1 1l4 1c2 0 3 2 1 3-2 0-2 3-1 3l2-1 3-2c2 0 2 0 1-1v-1l2 1h1c1-1 4 0 3 2h-1-2v1l4 2 2 1h1c2 2-3 3-5 1h-2l1 1v2 1l1 1-3 1h-3l3 1h3c2-1 2-1 1 1l-2 1-1 1c1 1 0 2-1 3v2h8l2 1c2-1 3-1 2 1 0 1-1 2-2 1l-1 1 1 1v2c-1 2 0 5 1 6v1l-1 2 3 1c2 0 2 0 2-3 0-2 0-2 3-2l5 2-1 1h-2l-1-1v2l4 1c4 0 4 0 2-1-1-2-1-2 1-2l3 2c0 1 5 2 9 0 1 0 2-1 1-2 0-1 1-1 2 1l3 2v-1l-2-1v-4h2l1 2-1 1h2l1 1c-1 2 0 2 11 2h11v-4a460 460 0 01-6-40l-3-19c-3-6-4-10-3-10l1-1h-1c-2 0-2-1-2-2l-1-4-1-3-3-4-2-5-1-2-2-13-1-3v-1l-1-2-1-3-2-5c-3-3-4-4-5-3l-2 1 1-3c2-1 2-1 1-2h-3-1l1-1-1-4c-1-3-4-3-2 0h-1c-2-1-2-4-1-4l1-1h-3l-1-1c1-2 0-3-1-3l-2-1 1-1h1l-2-1-4-2-4-3h-1l-3-1c-2 0-1 1 2 2l4 4 4 4 4 5c0 4 0 5 2 4l4 1c2 2 2 2-1 2-2 0-2 0-1 2v1l-1 1v2c-1 1 0 1 2 1 3-1 4 0 4 1s0 2 1 1l1 1h-2c-2-3-3-2-3 0v2l-1 1h2c2 0 2 0 1 2-2 1-2 2-1 2l2-1c1-2 4 1 5 4v3l-2-3c-1-2-6-3-6-1h-1l-3-1 1 1 1 2c0 2-2 1-2-1-1-2-1-3 1-3s2 0 1-1v-1l-2-1-2 2h-2l-2 1 1 2c2 0 3 2 1 2l1 3c3 3 4 5 2 4-1-1-1 0 0 0 2 2 2 2 0 3l-2 1h2c2-1 2-1 2 2v2l1 1v3l1 1 1 1 1 1v1h1l2-2v1 3c2 1 1 2-1 1l-3-2h-1l3 4c6 4 6 5 3 3-2-1-3 0-1 2 2 0 1 2 0 2l-2-1-4-9c-2 0-2-3-1-3l1-1c0-3-2-2-2 0-1 5-1 8 1 8s1 2-1 2l-5-2c-1-3-5-4-3-2l-1 1c-2-1-1-3 1-3l2-1c-1-1 0-1 1-1v-1l-1-2c1-3 0-4-2-4-1 1-2 0-2-1l1-1 2-1 1-2-2 1h-1l1-2 1-1c-2 0-2 0-1-1v-3l-3-4-2-1h2c2 1 4-2 1-2v-2-1l-2-1h1l1-1-1-3h-1l-1 2c0 3-2 1-2-2 0-5-2-8-6-8-2 1-4 3-2 3s4 4 5 5l1 2 1 3 1 2v4 7h-3l-3-1h1c2 0 2-1-1-4-2-2 0-5 2-3h1l-1-1v-2l-3-4c-2-1-2-3-2-3 2-1 0-3-2-2-2 0-2 0-3-2l-2-2c-3-1-4 0-2 1 1 1 0 1-1 1l-3-1h1l1-2c-1-2-1-2 4-1l2 2 1-2v-2-2l-2-2 2 1h4l1 2c-1 2 0 2 4 2 3 0 4-1 3-2 0-2-4-5-4-3l2 2h-2c-2-1-3-2-2-3l-1 1c-2 1-3 0-6-1l-3-1c1 1 0 4-2 4s-2 0 0-2c1-1 1-2-2-4l-3-2v-1l-1-5-2-1h-1l-4-2c-4 0-7-2-7-5 1-2-4-6-5-6v1l2 2c1 2 0 3-1 1l-5-1-3-1-3-3-3-3v-1h-5zm36 24l-5 1 1-1v-1c-1-1-1-1 1-1l2-1h1v3zm-1 5v2c2 4 2 5 1 5l-1 3c0 2 0 3-2 2h-3c-2 0-3-3-1-3v-1c-1-2-1-2 1-3l2 1c2 2 3 1 2-1v-1c2 0 1-2-2-2-5-2-5-4-1-3l4 1zm-17 7h-3c-1 0-2 0-1-1 2-1 3-1 4 1zm27 8h-1v-1h1v1zm-11 1h2c2-1 1-1 0 0 0 3-3 2-4 0l1-2 1 2zm17 0l-1 1-1-1 1-1 1 1zm-3 5l1 2-5-4c0-1 1-1 4 2zm-6 1c-3 2-3 2 0 1h2c0 1-4 2-5 1v-3c4-2 5-1 3 1zm-16 0l-1 1-1-1 2-1v1zm66 2v1l-1-1v-1l1 1zm-46 3c3 2 2 7-1 5v-3l-1-1-2-1c0-3 2-2 4 0zm44 3l1-2 2-2 1 1-1 1h-1l2 2 2 1-2 1-2 1h2v1c-1 2-2 2-4 1-1-1-2-1-3 1-2 2-2 3-1 4h6l-1-1c-2-2-2-2 1-2l7 4-3-1c-2-2-2-2-2 0v1h1l-2 1-5 2-1-1-1-3c-3-2-4-3-1-3v-1c-1 0-1-1 1-2v-2l-3-2-1-2 2-2c1-1 1-1 4 1l3 3zm-38 1l-2 1-1-1 2-1 1 1zm12 8v2c2 0 1 3-1 2v-1l-2-2c-2-3-1-4 2-3 2 1 2 1 1 2zm6 6c0 2-2 5-3 5v-3-2l1-1 2 1zm23 0l-1 1-1-1 1-1 1 1zm4 6l-1 1h-2c-2 0-2 0-1 2l1 2c-1 1-4-3-3-4 1-2 6-2 6-1zm-46 9l-3 1v-1-2h2l1 2zm-2 3l2 1-4 2c-2 0-3 0-2-2l1-1h3zm38 2v1l-1-1h-2c-2 1-3 0-3-1s5-1 6 1zm-20 4c-1 1-7 1-6-1l-1-1c-2 0-1-2 2-2 3-1 6 2 5 4zm26-2l2 3v2c-2 1-3 0-2-1l-1-3c-2-2-2-3 0-2l1 1zm-46 0l-1 1-1-1 2-1v1zm43 3v1l-1-2c0-2 1-1 1 1zm4 6v1l-5-2 5 1zm-24 3c0 2 0 2 2 0s3-3 4-2 1 1-1 3c-4 4-7 4-10 0l-2-3h3l4 2zm17 2l1 2c1 0 1 1-1 1h-3l1-1v-3l-2-3 2 1 2 4zm-12 2c-1 2-1 3 1 3l1-1 2-1 1 1c-1 1 1 3 3 2l-1 1-3 2-1 1h-2c-1-1-2-1-3 2l-1 2 1-2-1-4v-1l-1-1h-2l1-1 3-2 2-3v2zm21 1l2 2 1 1h-1l-2 2 1 3 1 2 1 1v2l1 2 1 2v8l-1-1-1-2-5-14-1-5v-3c1-1 2-1 3 1zm-5 6c2 0 2 0 1 1v1l1 1-3-1c-2-1-2-1-2 1l-1 3-2 1v-1c2 1 1-2-1-3h-2c-2 1-1-1 1-3 2-1 3-2 4-1l4 1zm-7 10l-2-1-1-2 2 1 1 2zm21 2c0 2-1 3-2 3v-4c1-3 2-2 2 1zm-30 0l-2 1-2-1 2-2c2 0 2 1 2 2zm12 0c-1 2 0 3 2 2h1c0 2-6 3-7 1h1l1-1c0-2 1-2 3-3l-1 1zm-21 3h-5v-1h3l2 1zm29 3l-2 2v2l2 2 1 1 2 1 1 1-1 1c-5-2-6-2-6-1h1l1 1-2 1-1 3c1 3 1 3-1 3l-1-2-2-5c-2-2-2-2 0-2h1c-2-2-2-6 0-7v-1h1c1 1 2 0 4-1 3-2 4-2 2 1zm-13 4v1l1 2c0 2-2 1-3-1 0-3 1-4 2-3v1zm-14 1c1 1 0 2-1 1v1l3 4c1 1 1 2-1 1l-3-1 1-1h1c0-2-3-3-5-3l-3-1 5-1 1-1c0-2 2-1 2 1zm-10 2h-2l-1-1c0-1 2-1 3 1zm42 4l-1 1-1-1 1-1 1 1zm-5 3l-1 1-2-1 1-1 2 1zm10 2v6 1l1 1-2 1-1-3-1-4v-3c2-1 3-1 3 1z"/><path d="M541 633l1 1h2l-3-1zm21 24h2l2-1h-2l-2 1zm3 19l2 2c1 1 1 1 0 0l-2-2zM99 539l1 1v-1l-1-1v1zm6 1c1 2 3 3 2 0-1-1-1-1 1-1h2l-4-1c-2 0-2 0-1 2zm386-1l-1 2h1c1-1 2-2 3-1 2 0 2 0 1-1h-4zm-432 1l1 1v2h1c3-1 3-3 1-3h-3zm29 4c1 2 3 6 3 4l1-1c2 1 2-2 0-2l-3-2-1 1zm70 0v6l1-3 1-1v-1l-2-1zm-88 3l-2 2-1 2 2-1 1-1h2l2-1 1-1-2-1-3 1zm83-1v1l-1 1-1 1-4 7c0 1-3-2-2-3h-1c-2 1-2 1-1-1l2-1v-2l-1-3-2 4-2 4v2l2 1 2-2 1 1v1l1 1h-2l-1 2c1 2 3 2 4 0l2-3 1-2 2-2 1-1 1-3c2-1 2-2 0-3h-1zm-95 1l-2 8 3-1c1-1 2-2 1-3v-3c1-2 0-3-2-1zm24 0l2 1 3 3 1 2 1-1v2c-2 2-2 2 0 3l2-1 2-1 1-1-3-3-4-3-1-1h-4zm375 1l2 4 2 2c-1 1 0 1 0 0l2-1-1-1c0 1-3-1-3-3l-1-2c-2-1-2-1-1 1zm-363 0v2c1 2 1 2 2 0 0-3 0-3-2-2z"/><path d="M84 550l-2 1v-1l-3-1c-4 0-4 0-4 3l1 2 3-1c3 0 6-2 6-4h-1zm428 0l1 3c6 1 9 0 3-1l-3-3c-1-1-1 0-1 1zm-357 2l1 1 1-1-2-1v1zm-71 1l-1 1h1l1-1h-1zm77 1l-1 3c1 1-1 4-2 3l-1-2-1-2c-1-1-4 1-3 2l-1 2-1-1c1-1 0-1-1-1-2 0-3 2-1 5s2 3 0 5c-1 1-2 2-1 3v1l-1 2v1c-1-1-1 1-1 3h-1c-2 0-4 3-3 5l-1 2c-2 0-2 1 0 2 3 3 3 3 2 0 0-2 0-3 2-3l1-1 2-2c2 0 2 1 2 4s-1 4-4 2l-1-1v5l-1 2v2h1l2 2c2 0 2 1 1 2-2 3-3 3-3 0l-1-3-1 2 1 4 2 1c1-1 1 0 1 3v2l1-2v2c1 1 1 1 1-1 0-1 0-2 1-1l1-2h1v3l1 2 1-2 1-2v2c0 2 3 7 4 6l1 2h24l2-1h2c1 0 2 0 2-2h1l2 1c1-1 0-5-3-7l-2-2v-1c-2 0-14-10-18-15l-8-9-5-5v4c0 9-1 9-2 10v1l-1 1-1-1-1-1c-1 1-1 0-1-1 0-2 1-3 2-3l1-2h-1l-1 1v-2l4-7 1-2h1l2 2 5 4c3 1 6 5 8 8 3 5 5 6 4 3v-1l1 2c0 2 4 5 5 5 0-1 2 0 3 2l2 2c1 0 2 0 3 2l3 2 2 1c0 1 1 2 2 1l1 1c0 1 0 2 1 1l3 2c2 2 6 3 9 1 2 0 1-1-4-5a153 153 0 01-20-15c2 2 3 2 4 1h1c-1 1 0 2 1 3 2 1 2 1 1-1h1l2 3 1 2c1 1 1 1 1-1-1-2-1-2 0 0l2 2 1 1c1 1 1 2 2 1l1 1h1c1-1 1-1 1 1s0 2 2 1l2 1c-1 1 0 2 1 2h1l1-1 1 2h7l-1-1-3-2-1-1-8-5-1-1-4-3c-1-2-4-2-4-2l-2-2-1-1a175 175 0 01-25-24l-4-6-6-8-2 1zm-4 8h-2v-2h1v2zm0 6c0 2 0 2-1 1v-2c0-1 1-1 1 1zm-6 9l-1 1-1 1-1 1c-2 0-1-3 1-4 3-1 3-1 2 1zm348-22l1 1v1c0 1 0 2 2 1 2 0 2 0 0-2-1-2-3-3-3-1zm-417 2l-1 1 2 2c4 1 6 0 3-2-1-2-2-2-3-1h-1l1-1-1 1zm435 0l1 2v1h2c2 0 1-3-1-3h-2zm-47 2c-1 2 0 3 2 2 3 0 3-1 0-3-1-1-2 0-2 1zm-416 1l-1 1-2 1h3l2-1 2-1-2-1-2 1zm15 1l-3 1c-2 0-2 0-1 1h2l3-1c1 0 2-1 1-2 0-1-1-1-2 1zm457 0l-1 1v1h4c2 2 3 2 2 0l-3-3c-2-1-2-1-2 1zM61 562h-2l-2 2-1 1-2 1 1 1h2l2 1v-1l-1-3 5 4c0 2-4 5-5 4v2c2 1 2 2 1 2l3 1c4 1 5 0 3-4-2-3-2-5 1-6 4 0 4 0 3-1h-1l-4-1-2-2 1-1h-2zm16 1c-2 1-1 2 2 2l3 1-2 1-1 1 4 1c2 1 2 0 3-1 2-2 2-2 0-4l-2-1h-6-1zm63 0v1l1 1 1 1c1 0 2-1 1-2h-1l-1-1h-1zm402 3v3l2 1c2 1 2 0 1-4l-2-1-1 1z"/><path d="M72 568l-1 2v1l-1 1c-2-2-5-2-5-1l1 2 1 4c0 3 1 3 2 2s1-1 0 0l-1 2-1 2c-1 2-6 3-7 1h-1v3l2 1h3l-1 1-1 1h2l2 1-2 1h-1c1 1 2 2 4 1 4 0 4 2 1 5-1 2-2 2-2 1 1-1 0-2-1-3-3-2-3-2-3 0s0 2-1 1v-3c2-1 2-2 1-3-2-1-2-1-3 1v4l-1 4c-2-1-4 2-4 4 1 1 0 1-2 1v-2l-1-3 1-3h1v1h1l1-2c1-1 1-1-1-1s-4 1-4 3c-1 3-3 2-2-1 0-4 3-7 5-7l1-1v-2-1c-2 2-5 2-5-1 0-1 0-2 2-1l2-1 1-1v-1l1-2 1 1 1 1h4c0-1-1-2-3-2h-4l-2-2h-1l-1 1 1-3h1l2 1v-2c-2-2-4-1-5 1l-2 2c-2 0-2 2-1 3 1 2 1 2-1 2s-2 5-1 8v-1c0-2 0-2 1-1 1 2 1 2 2 1l2-1c2 2-1 5-4 6-2 0-3 0-2 1v2l2 1v1h-4c0 2 0 2-3 0h-3v2l3 1-1 1c-1-1-3 3-3 4v1 10c-2 2-3 6-2 7v1l1 1 1-1 1-1-1 2c-2 2-2 2 1 2 3-1 4 0 6 2 3 2 4 3 4 0h3v-2l-2-2c0-2 0-2 2 0s5 2 6-1l-1-2v-3c0-2 1-3 2-3l1-2 3-1h3l-2 2-4 3c-1-1-2 1-1 3 2 2 2 2 4-2 3-3 3-3 5-1v5l-1-1-1-3-1 1v2l-1 5-2 4-1-1-1-1-1 1c1 1-2 2-4 2l-2 2c0 1 3 2 5 1s4 1 3 2c0 1-1 1-1-1-1-1-1-1-1 1l2 2c2 0 2 0 1 1v1l1 2c0 3 0 3-2 2s-6 0-7 2c0 2-6 1-6 0 0-2 2-2 3-1l2-1v-1c1 2 2 0 1-2l-1-5-2-5-1 1-2 1-3-2v-3h-5-1l-3 1v1c1 0 1 6-1 8-1 2 2 1 3-1l4-2h3l2 1 1-2v1h4l-4 4-2-1-4-1-2 1c1 0 0 2-2 3-3 2-2 4 1 2h3l1-2c1-3 4-2 4 1 0 1-1 2-3 2-3 0-3 0-2 3 0 2 0 2-2 2l-2 3 1 3c2 0 2-1 2-2 0-3 3-2 3 1s-1 4-5 3l1 1c2 2 3 2 4 1s1-1 0 0l1 2 1 1v2l1-3 1-3c3 0 2 4-1 7l-2 4 2-1c1-2 1-2 3-1s4 2 5 1v1c-2 2-3 3-1 3h2l-1 1-5 5c0 2 2 1 3-2l2-2 6-1-2-1v-1c2-2 1-5-2-4l-1-1-1-1-1-2 1-2 1-1c0-2-1-2-2-1h-3l1-1c1 0 2-1 1-4l1-4 1 1c0 1 4 5 5 4v-1l-2-1-1-1h3l3 5 1 2h-1l-2-1h-2c-1 1-1 3 1 2s5 1 5 4l3 4v1c-2 1-3 5-2 5l4-1h2c0 1-1 2-2 1l-2 1c-1 2-3-1-3-3l-2-2-1 2v3l-2 2h-3c-2-1-4-1-3 1h2c2-1 1 2-1 4v2c2 1 5 0 4-1l1-1v2c-1 1-1 2 1 2v2l-2 1h-2c-2 3 1 6 5 6l3 1 3 1c2 0 2 0 1-1v-1l2-2-1-1h-1l2-1 2 2 1 1 2 1-3 1h-2 17v-1-3h-1-3c-3 0-3 0-3-2 0-1 1-2 3-2 1 0 2-1 2-3 0-1 0-2 1-1v-2l-1-1c1 1 2 0 3-1l3-2 1-1-1-1c-1 1-1 0-1-1h-1v-1c0-2 0-3-2-5l-2-3-2-1-2 5 1 5c1 0 1 2-1 2l-1 1 1 1 2 2c1 3 1 4-1 5-2 2-5 3-3 1v-3h-3v1l-1 2-1-1h-6l-3 1c-3 0-4-2-2-5l1-1v2l-1 1c0 2 3 0 3-2l3-2 3-1-1-1c-1 1-2 0-1-1l1-1c2 0 3-4 2-5v-3h5c0-1-1-3-3-3-3-1-3-2 1-1l5-2h1c0 4 3 1 3-3 0-2 0-2-2-1-2 2-7 2-10 0v-1l2 1c1 2 4 1 4-1h-1c-1 1-1 1-1-1-1-1 0-2 1-1 2 1 3-5 1-6l-1-2-2-2h-3l3-1c2 0 2-1 2-3s1-2 2-2c1 1 2 0 2-1l-1-1v-1c2-2 2-4-1-4l-1 2h-1l1-3c1-2 1-2-1-1-2 0-2 0-1-1 2-1 2-2 1-5s-1-4-2-3h-2c-1-1-1-1 1-1 1-1 2 0 3 1h1v-4c2 0 2-1 1-3v-2-1c-1-1 0-4 1-5v-1l-1-1v-1c-1-1-1 0-1 1l-1 4-1 1v1l-2-1c0-2-4-1-5 1-1 4-1 5-2 2 0-1-1-2-2-1l-1-1h-1l-1-1h5c3-1 2-3 0-2-8 1-9 1-9 3v1l-2-1c-1-2-1-2-3 0-2 0-3 2-3 3-1 1-1 1 0 0h2c0 1-1 2-4 2-4 0-5-1-6-4l-2-5 1-1 3-2c1-1 5 0 5 1h-1l-1 1c1 1 0 2-1 2l-3 1 1 2 2-1h1l3-2h1c-1 1 1 2 1 1l2-1c1 1 2 0 2-1v-1l-1-1 2-1 2-2 6-2h5l1-3 3-1c2 0 3 1 2 2l-2 1c-2-1-2-1-2 1l-1 1c-2 0-4 3-4 4l9-2c2-1 7-1 7 1v2c-2 1 0 2 3 1 3 0 5-2 4-3l-2 1h-2l-1-1-1-1c-1-2 2-5 4-5 2 1 3 0 1-2v-1c2 1 2 0 2-2l1-4-1-3h-1c0 2 0 3-2 2s-4 0-2 3c1 1 1 1-1 1v3l1 1v1l-1 1-2 1c-2 2-3 2-2-1l-1-1v-2-4l1-3 1-2 1-2h1l1-2c0-2 0-2-2-1l-2-1 3-3c1-1 1-2-1-2l-4-1c-2 0-5-5-4-8v-2l-1 2zm1 7l-1 2c1 4 0 6-2 6v-1c1-1 2-4 0-6s-1-3 2-2l1 1zm-22 5h-3c-2-1-2-1 0-1l3 1zm25 3l-1 3c-2 0-2-4-1-5 2-1 2-1 2 2zm-28 2l-1 1-1-1 2-1v1zm28 6l1 3c1 2 0 2-1 1s-2-1-1-2 0-1-2-1c-3 1-4 0-2-1h5zm-3 5l-1 1-1-2 1-1 1 2zm-3 10h-1l-2-1h2l1 1zm2 9l1 2h2c0 2-2 2-4 0l-1-1h-1v-3h2l1 2zm-33 3l-1 1v1h-1c-1-2-1-4 1-4l1 2zm7 3h2l1-1h1l1 2h-8-2l-2 2v2-5c0-2 5-3 7 0zm-9 5c-1 1-1 0-1-1l1-1v2zm31 1l-1 1v-2c0-2 1-1 1 1zm2 0h-1l1-2v2zm-4 4l-1-2c-1-1-1-1 0 0l1 1zm7 3c1 1 1 1-2 1l-2-1h4zm-8 2l-1 2h-1v-1l-1-1-1 2-1 1-1-1c0-2 3-3 4-2l2-1v1zm5 5l1 2 1 2v1l-2-2-2-2v1l1 3c0 2 0 2-1 1s-1-1-1 1l-1 2v-3-3l-1 2-1 3v2l3 1-1 1-2 2c0 3-2 5-3 4l1-2v-10-1l-2-1c0-3 1-5 3-5l3-2c0-2 0-2 1 0l3 3zm3-4l1 2c0 2-1 2-2 0h-2l-1-1c0-2 0-2 2-1h2zm-24 21c0 1-1 2-3 1h-4c-1 0-1-2 1-5h1v1c1 1 1 0 2-1v-2l1 2 2 4zm19-2l-1 3c0 2-2 3-4 2v-1l2-2 3-3v1zm0 11c2 3-1 7-4 7v-1c3-1 4-4 1-4-2 1-2 1-1-1 2-2 2-2 4-1zm15 6v1l-2-1 1-1 1 1zm-24 7l-2 1 1-2c2-1 2-1 1 1zm19 16l1 2-2-1-2-1-5-1c0-1 5-1 8 1z"/><path d="M79 570v2c-1 2 2 3 4 1l-1-1-1-1-1-2-1 1zm467 3c-2 1-2 1-1 2l2 2 1 2 1 2c-1 1 2 5 3 4l-2-2c-2-2-1-2 3 0h3l-1-1-1-1-1-2v-3c1-1 1-3-1-3v1h-2c-2-1-3-2-5-1zm3 4v1l-1-1v-2l1 2zm-524-1l-1 1c0 1 3 1 6-1 1-1 1-1-1-1l-4 1zm503 0v3l1-3h-1zm-55 1l1 1h1l-1 2-2 2c0 2 1 2 2 2 2-1 2 0 2 1l1 2 2 1 1 2 1-3c0-2 2-3 4 0l1 1h-3c-1 1-1 1 1 3s2 5 0 4h-1l3 1 2 1-1 1c-2-1-2 1 0 3h6l-1 1-2 1 1 1 2 1c1 1 1 1-1 2h-2l-2-2c-2 0-3 1-2 2h2l2 1-1 2v4l1-1v-3c1-1 2-2 4-1 3 1 3 1 2-1s-1-3 1-3h4l2-3 1-1c-1 2-1 2 1 2 1-1 2 0 3 2s2 3 3 2l4-1h3l-5-3c-3-2-5-3-6-2l-1-1-2-1-2-1c-1-1 0-1 0 0l2-1-1-1c-2 0-5 0-4-1l-1-3-4-2c-2-2-2-2-3-1 0 2 0 2-4 3-1 0-2-1-1-3 1-1 2-2 3-1 2 1 1-2-2-3l-5-4-3-2-3-1c-1-2-3-2-3-1zm24 18v4c-3 2-4 1-2-2l1-4h1v2zm4 7l-2 1-2-1 2-1 2 1zm40-23l1 2 1-1-1-2-1 1zm-520 5c-2 2-3 3-1 3v2l2-1 3-3c0-1-2-2-4-1zm62 2h1l1-1-1-1-1 2zm-44 3c-2 3-2 4 0 7 1 1 1 1 1-1-1-2 0-3 1-3v-2l1-1c0-3-2-2-3 0zm-7 1c-1 1 0 1 1 1l2-1c1-1 0-2-1-2l-2 2zm-18 6l1 1c1-1 1-2-1-2v1zm-4 3l1 2 1-1h5l-2-1h-5zm83 0c-2 1-4 5-3 5l2-2 2-3h-1zm44 3c-2 0-3 2-2 4s2 1 2-1l2-2 2-1h-4zm-125 2c-2 1-3 2-2 3 0 1 3 1 2-1l1-1h1l1-1c1 0 2 1 1 2h-1l-1 1-2 2v2l2 3c0 3 0 3 3 3 3 1 4 2 2 2l-3 1 1 1h1c-1 2 2 2 4 0v-2l-1-1 1-1 3-1v-2c-2-1-2-4-1-4l1-2c-1-2-4 2-3 4 0 2-1 3-2 1v-1-1l-2 2c0 2 0 2-1 1l-2-1 1-1 4-2v-4l1-3c-1-1-7-1-9 1zm17 1v5l-1 3 1 1 1-2 1-1 1-3v-3h1c0-2-4-2-4 0zm35-1h-3c-4 0-4 0-1 3 2 2 2 2 4 1l1-5-1 1z"/><path d="M138 605l3 1-1-1h-2zm-6 2v2 2l3-1c1 0 0-3-2-3h-1zm18 1c0 3 1 5 2 5v-1l2-1 2-1h-2l-3-1-1-1zm-63 1v4l1 3 1-3c1-2 1-2 1 2l1 6 2 1 2 1c1-1 0-5-1-5l-1-1 2 1h3c1 0 1-1-1-1-2-1-2-1-1-2l-1-2v-3h-1c-2 2-3 4-1 3l1 1c1 2-1 2-2-1v-3c1 0 1-1-1-1h-4zm48 3l-1 2 1 1 1 3v3c2-1 1-9 0-10l-1 1zm9 1c1 2 1 3-1 3-1 0-2 1-2 3l-2 3-3 2c-2 2-2 2 0 2 1 1 2 0 2-1h2l2-1v-1-3l1-2 2-1 2-2 1-1v-2l-1 1c0 1-1 1-2-1-1-1-1-1-1 1zm347-1l1 1 1-1-2-1v1zM0 615l1 2 2 1 3-1c2 0 2-3 1-3l-4-1c-3-1-3-1-3 2zm156-2v4c0 2 0 2 1 1v-5-1l-1 1zm348 0l-1 1h6l-1-1h-1-3zm-11 1v1c2 1 5 0 5-1h-5zm-414 2v2c1 2 3 0 3-2s-1-3-3 0zm72 0l-1 3-1 3c-1 2-1 2 1 1v-1l1-1 1-1v-3c1-4 1-4-1-1zm-38 0l-1 2-1 2c-1 2-1 2 1 0 1-2 3-3 3-2l1-1-2-2c-1 0-2 1-1 2zm389 1v2l1-1 1-2-2 1zm6 0l-1 1c-1-1-2 0-2 1l-2 2-1 1 3 1h4v-1l1-1h1l1-1 1-2h-1l-3-1h-1zm0 3c-2 2-4 1-1 0l2-1-1 1zM147 620l-1 3-3 1 1 1h1c1 1 2 0 2-2l2-5c-1-2-3-1-2 2zm351-1c-1 1-1 1 0 0l2-1h-2zm-416 2l-4 5c-1-1-1 0-1 1 0 2 3 4 4 4v-4c0-2 0-2 1 0h2c-1-1 0-2 1-3h1v2c2 0 1 2-3 6l-2 3 1 1h1l2-3 1-2 1-1 2-1c-1-2 1-3 3-2v3c-3 2 0 3 2 1s3-5 1-6h-3-1l-1-1 1-1v-1c-2-1-3 0-2 2h-2c-1-1-2-2-3-1l-1-2c1-3 0-3-1 0zm13 7l-1 1v-2c1-1 2-1 1 1z"/><path d="M143 620l2 1 1-1-1-1-2 1zM0 624c0 2 0 2 1 1l2-2h1l-2-1c-1-1-2 0-2 2zm499-2l1 1 1-2h-1l-1 1zm-346 1c0 1 2 3 4 2 3 0 2-3-1-3l-3 1zm-6 3l1 1 1-1-1-1-1 1zm350 0l-1 1h4l1-1h-4zm4 1l-1 2h10l1-2c0-2-1-2-4-2l-6 2zm7 0l-1 1-1-1 2-1v1zm-366 0v1l-1 2c0 3 0 5-2 7h-2l1-1 1-1c1-1 0-2-1-2l-2 1-2 4-2 3h3c1-1 2 0 2 1l-1 1-2 1 3 1c2 0 2 1 3 2 1 2 0 4-2 1l-3-1c-2 0-2-1-2-3s0-2-2-1l-6-1v3h-2l1 1 1 2 1-1c4-4 5-4 3 1-1 2-2 4-1 5v1h-3l2 3 1 2h-2c0-1-1-2-3-2s-1 1 2 2l3 4c0 2 0 2-1 1l-2-3h-1l-1 2v4 4c1 1 2 2 1 4l-1 2-1 1-2 7-2 2-1 3-1 1-1 2h2l2-3 1-3h2c0-1 0-2 2-3h2l1 2v1l-2 1-1 1-5 2c-2 2-2 3-2 5h3c0 2 1 3 3 2l1 1h11l4-1v-1l1-1v-2l-1-2-1-3-2-3c2 1 4-4 3-6 0-2 0-2 1-1 2 0 2 0 2-2l1-3 1 1 1 2v-1l1-2 1-4 1-3v-2l-1 1c-1 1-1 1-1-1l-4-7v3c0 2 0 2-1 1l-2-2c-2-2-1-3 1-3l2-1 2-1h1l1 2h3l1-1 2-3 2-11-1-2-1 3-1 4c-1 1-1 0-1-1l-1-3c-2-1-1-2 0-2 2 1 2 0 2-1 0-2 0-2-1-1h-3v-3h-1l-1 1-2 1-1 2-1 1-1-2 1-2 1-2v-1l2-3 1-3v3c0 4 1 3 2-1 1-1 0-2-1-2l-3-2-1 1zm2 16v2l-1-1h-4l-2-1 4-2 3 2zm-8 10l1 1-3 1c-1 0-2 0-1 1l-2 1c-3 0-3-1 0-4 2-2 2-2 3-1 0 1 1 2 2 1zm-1 6c1 2 2 5 0 5v-2l-2-3c-2 0-2-1-1-1l3 1zm4 3l-1 1-1-1 1-2 1 2zm0 4l2 5c0 1 1 1 1-1l2-1-3 4-1 3-1 1-1-2h-2c-1 2-1 2-2 1v-2-1c-2-1-3-4-1-5l1 1c-1 2 2 4 4 4 2-2 1-4-1-4-2 1-3-2-1-3l1-1 1-1 1 2zm-8 4c0 4 0 5 2 7l3 2h1v3c1 2 0 3-1 3-1-1-1 0-1 1 0 4-1 4-2 0l2-4v-1h-1-4l-2 1c0-2 3-4 4-4l-1-1-2-3v-1-3c-1-2-2-3-1-4 2-2 4 0 3 4zm-6 24l-3 4v-2l1-1 1-1c1-3 2-2 1 0zm32-66c-1 2-1 3 1 4 3 3 4 2 3-2-2-4-3-5-4-2z"/><path d="M132 631l-3 5v1l2 1h1l1-3 2-2v-2h1l2 1 2-2c0-1-1-2-2-1l-3-1c-1-1-2 1-3 3zm378 0l-2 3 1-1 2-1 3-2c0-1-1-1-4 1zm-387 1l-2 3c0 1 1 1 2-1 3-2 2-3 0-2zm-30 4l1 3v-4c-1-1-1-1-1 1zm60 0v2l1-2h1l1-1c-1-2-3-1-3 1zM0 636l3 1h3l1 1-1 3-2-1H3c0 2 0 2-1 1-2 0-2 0-2 2s0 3 1 2l2-2c0-1 1-2 3-2s2 0 2-2c0-4 0-4 2-1 2 1 2 1 2-1-1-1-2-2-6-2l-6 1zm118 1c0 2 0 3 1 2 2 0 2-1 1-2-1-3-2-3-2 0zm39-1l1 1v2l-1 2v2c1 1 0 2-1 3v2c1-1 1 0 1 1 0 2 0 2 1 1v-6l1-3c2 1 2 5-1 10l-3 5 1-1v-1c-1 0-3 5-2 6l2-1c2-1 2-1 2 1l-1 3c-1-1-6 2-6 3l1 1c4-1 4 3 0 5l-3 3c0 1 2 2 2 0h3c1 1 1 1-1 1s-2 1-2 5l2 11c1 3 1 3-1 2l-1 1c1 1 0 1-1 1-1-1-2 0-2 1l-3 2c-2 1-1 1 5 1s7 0 6-2h-2l-1-1 2-1 5-2c4-4 6-3 2 1 0 1-1 1 0 0h-1l-2 4 1-1h1c0 2 1 2 4 2s4 0 3-1l1-2c1-1 1 0 2 1v2h173l174-1c1 0 1-1-1-5a93 93 0 00-11-21l-3-6-3-7-5-9-3-4c-3-8-5-11-7-10l-16 5-23 7a199 199 0 01-21 5 419 419 0 01-44 10 868 868 0 00-37 6c-4 0-5 1-5 2h-1c0-2-5-1-6 1h-1v-2c-2 0-2 2-1 4h-1l-1-2-1-2-2 1h-1c-1-1-8 0-9 1h-1a291 291 0 00-76 5c-2 1-8 2-12 1-13-1-20 0-18 2h-3l-5 1c-6 0-14 2-16 3l-3 1-3 1-3 1c-3 0-3-1-4-3 0-3-1-4-1-2l-1 2h-1l-1 1-1 1v3l-1-2-1-2v-1l1-2v-2c2-1 2-5 1-5h-2l1 1h1-3l-1-1 1-4c0-3 2-2 2 0 1 2 1 2 2 1 1-2 0-5-3-4l-3-1 1-1c1 0 3-6 2-7l1-1h1l-1-1-1-4-1-4v-1l1-2-2-3-1-4 1-2v-1l-5-1zm1 30l-2 2c-1-1 0-2 1-3 2-1 2-1 1 1zm0 16v1l-1 1-2 3-1 1v1l-2-3 1-3h1l-1-1c-2-1-3-3-1-3l1 1c0 2 3 0 3-1 0-2 0-2 1-1l1 4zm4 1l1 4c1 3 1 3-1 2h-1l-1 2h-1l-2-2-1-1 1-1c0 1 3-1 2-3l1-2c2-1 1-2-1-2h-1l1-1c2-1 4 2 3 4zm3-3l-1 1-1-1 1-1 1 1zm4 13c-2 2-2-2-1-4l1-3 1 3-1 4zm4 0v3l-2-1-1-1 2-3c0-3 1-2 1 2zm-69-53c-1 3-2 4-2 2-1-1-2-1-3 2l-1 4-1 1v3c-2 1-3 5-2 5 2 0 4-1 3-2l1-2 2-2 1-1v-2l1-1 1-1c-1-1 1-5 2-5 1 1 1 0 1-1 0-4-2-4-3 0z"/><path d="M330 639c-1 1-1 1 0 0l1-1-1 1zm25 0l-1 1h-1l2 1v-2zm-247 3v1h2c0 2-2 3-4 3-1-1-2 0-1 1v3l1 1 1-1h1l2-1v-2h2l1-1 1-3 1 3c0 3 0 4-2 4-1 0-2 0-2 3v7l-1 1c0 1 3-1 3-3h1c1 1 1 1 1-2 0-2-1-3-2-3-1-1-1-1 1-1l3-3 2-1h1l-1-1v-3-3l-1 2h-2l-4-2c-3-1-3-1-4 1zm-97 1H8c-2 0-3 1-1 3h2c1-1 4 0 4 2l-4 1-5 1H3l-1-1c-1-1-2 0-2 1s1 2 3 2l2-1 1-1v1l2 3c1 1 1 1 1-1-1-3-1-4 3-3 3 0 3 0 2-2l1-1 1-1c0-2 0-2 2-1l1 3c-1 2 0 2 1 1 2-1 2-2 1-3l-2-3h-8zm74 0v3c0 1 4 4 4 2v-1l-2-1-2-4v1zm-34 1c0 2 2 2 2 1 1-1 0-2-1-2l-1 1zm44 1c-2 2-2 2-1 3h1l1-1v-2c1-3 1-2-1 0zm-4 3l-1 4h1c2-2 2-4 1-5l-1 1z"/><path d="M11 652v1l-2 2H7 5 4 2l-2 1h1v1 2l2 1h1c2-1 5-1 6 1l-1 1v1l-1 2c-1-1-1 0-1 1l1 2c1-1 1 0 1 1l-1 1H7l-2 2v-1-4l-1-1-1-1-2 2v2 6h5c0-2 3-3 3-1l-1 1H7l3 1 2 2c1 1-2 4-3 2-2-1-5 3-4 5l-1 2c-2 1-2 1-2-1l1-3c2-1 1-2-1-1l-1 1v-3c-1-2-1 0-1 5v8h7c-1 1-1 1 1 1v2c-1 1-2 0-2-1H3l-2 2-1 1c0 2 1 2 7 2 7 0 8 0 6-2v-1c3 1 2-1-1-4-2-2-3-3-4-2l-2-1 2-1 1-2v-2c4-1 6 0 7 1s1 1-2 1c-3-1-3-1-3 2l1 2h1l2 2v1h3l3 1-2 1-3 1 2 1 3 1 7 1c5 0 6 0 6-2l1-1c1 1 2-2 1-4h-5c-3 0-4-1-4-2l5-1 5 1c1 1 1 0 1-1l-1-1-1-2v-1h1l-1-1v-1l-1-1c-1 1-2 0-2-2l-1-6-2-1 1-1 1-2v-2l-2 2c-2 3-4 4-5 1l-1-1-2-1-3-2v-1h3c1 1 7 1 8-1 1-1-2-5-4-5v-1c1-1 1-5-1-5l-1 1-1 1-2-2h1c2 0 6-3 5-4l-2 1-3 1-11-1zm8 4c2 2 2 2 0 4-1 1-1 1 1 1 3-1 3 1 0 3h-3c-2-2-5-2-5-1h2l1 1 1 2h1c0 1-3 1-4-1-2-1-3-6-1-5h2c2 1 2 1 1-1l-1-1c-1 0-2-2-1-3 1-2 4-1 6 1zm8 8l-1 1-1-1 1-1 1 1zm-7 7h-1l1-2v2zm-5 3l-1 1h-1-2v-1h4zm19 12l-1 2c0 2 0 2-2 0h-1-5l2-1 1-1-2-1 8 1zm-11 6h-7l-2-2c0-2 1-2 4 0l5 2zm-10 4h-1l-2-1h2l1 1zm13 0v1l-3 1v-3c2-1 3-1 3 1zm76-41l-1 4-1 2-1 2h2l2-2h2l-1-1-1-2h1l1-2c0-3-2-3-3-1zm405 2v3l2-4c0-2-2-1-2 1zm-410 1l-2 1-1 1v1c2 0 4-3 4-4l-1 1zm47 1h1l2 2h2c1-1 0-2-3-3-1-1-2 0-2 1zm-32 5l-1 4c0 2 0 2 2-1l2-5c0-2-2-1-3 2zm-15 1l-1 2v1c1 2 2 1 2-2l-1-1zm4 2l2 2c1 1 2 0 2-2 0-3-3-4-4 0zm-44-1l1 2c2 2 3 1 1-1 0-2-2-2-2-1zm466 1v1l1 2c-1 3 0 3 1 0 1-2-1-5-2-3zm-407 2c-1 1-1 2 2 1 4 0 4 0 3-1-1-2-3-2-5 0zm-17 1v2h1v-1-1h-1zm7 1l-2 1-2 2-1 1-3 3 1 1h2c0-2 1-2 2-2h4l2 1c1 2 2 1 0-2l-2-2h-1l1-1 1-1-1-1h-1zm7 0v1l1-1v-1l-1 1zm-41 3c1 1 7 2 6 0h-2l-1-1-3-1v2zm48-1l2 1h1l-1-1h-2zm-6 2v2h2l1-1-1-1-2-1v1zm-42 2c-1 1 1 4 3 4l2-1c1-2 1-2-1-2-1-1-1 0 0 0h-1c-2-2-3-2-3-1z"/><path d="M102 680l1 1v2l-1 1v1h2l1-1v-2c1-2 1-3-1-3-1-1-2 0-2 1zm-31 2c0 1 1 2 2 1 1 0 0-2-2-2v1zm-25 2c-2 1-1 1 1 1l3-1 1-1c0-2-2-1-5 1zm21 1l1 1 1-1-1-1-1 1zm82 5l-1 1c-2 0-4 3-3 5 1 1 1 0 3-3l2-4-1 1zm-97 8c-2 1-1 2 0 2l2-1-2-1zm58 0c0 1 1 2 3 2s2-1-1-2h-2zm-19 1l2 1 1-1-1-1-2 1zm-74 1h2l-2-1v1z"/></svg>
