<svg version="1.0" xmlns="http://www.w3.org/2000/svg" width="933.333" height="933.333" viewBox="0 0 700 700"><path d="M346.6 103c-2.3 2.8-3.1 3-2.7.7.2-1.4-5-.7-7.6 1-2.6 1.7-2.7 1.7-2-.2.7-2 .7-2-1 0-1 1.1-3 2.5-4.4 3.2-2.4 1-2.9.9-4.9-1.4-2-2.3-2.3-2.4-3.9-.9-1 .9-2.2 1.6-2.7 1.6-.6 0-1.5.5-2.2 1.2-.6.6-4 1.2-7.4 1.3-3.5.1-7.3.5-8.4.9-1.7.5-2.3.2-2.7-1.7-.4-1.3-1.4-2.3-2.4-2.3s-2.8-.4-4.1-.8c-1.5-.5-2.2-.4-2 .4.2.7-.4 1.4-1.2 1.5-.8.2-3.1.6-5 1-1.9.3-3.9 1-4.4 1.6-.6.5-1.6.9-2.4.9-.9 0-.5-.7.9-1.9 4.3-3.4 1.4-3.1-4 .4-2.9 1.9-6.1 3.5-7.1 3.5s-5.4 2-9.9 4.5-8.5 4.5-8.9 4.5c-1.7 0-14.9 13.9-14.4 15.2.1.5-.3.8-.9.8-1.4 0-.6 2.5.9 2.6.7.1 1.4.2 1.6.3.3 0 .1 1.4-.4 3-.6 2-.5 3.1.3 3.4 1.6.5 1.4 31.2-.2 33.1-1 1.1-1 2-.1 3.7 1.2 2.2.9 12.4-.6 19.9-.3 1.9-.8 4.4-.9 5.5-.1 1.1-.4 2.1-.5 2.2-.1.2-.3.8-.4 1.3 0 .6-.7 1.5-1.5 1.9-1 .7-1.2 1.9-.7 4.7 1.1 6 1.2 6.3 1.9 7 .3.3-.1 1.7-1 3-1.3 2.1-1.3 2.5-.1 2.9.8.3 2.8.4 4.3.1 1.6-.3 3.5 0 4.4.7 1.2 1 1.4.9.8-.6-.6-1.6-.3-1.8 2.8-1.4 1.9.3 3.7.1 4-.3.3-.5 2.8-.1 5.7.8 4 1.3 5.2 1.4 5.6.4.2-.6 1.7-1.2 3.4-1.2 2 0 2.9-.4 2.5-1.3-.3-.9.9-1.3 4.7-1.3 6.2-.1 10.3-.9 12.1-2.4.8-.7 1.5-.7 1.9-.1.4.5 2.2.7 4.2.4 2.7-.4 3.8-.1 4.9 1.3.8 1.1 1.5 1.5 1.5 1s.7-.3 1.5.4c1 .9 1.5.9 1.5.1 0-1.6 2.3-.9 3.8 1.1 1.3 1.8 6.8 4.8 8.8 4.8.7 0 2 .7 2.8 1.6.9.8 1.6 1.3 1.6 1 0-.3 1.5.3 3.3 1.4 1.7 1.1 4.6 2.7 6.4 3.5 3.2 1.5 5.2 6.2 3.7 8.7-.4.6-.9 4.4-1.1 8.2-.1 3.9-.8 10.9-1.5 15.6-1.4 9.8-1.5 16.4-.4 23.5 1.3 8.2 1.3 8.9-.9 11.6-3.4 4.4-4.8 6.7-4.6 7.4.2.4-.3 1.1-1 1.6-.9.5-1 1.1-.2 2.1 1.7 2.1 4 10.1 3.7 12.8-.3 3.1 2.3 12.4 4.5 16.5.9 1.6 3.8 5.1 6.6 7.8 8.4 8 14.7 9.9 23.8 7.3 3-.9 7.4-1.6 9.7-1.6 4.5 0 12 1.9 12 3 0 .3-1.9 2.5-4.3 4.8-4 3.9-5.1 4.4-13.8 6.2-12.2 2.4-12.8 2.7-24.5 10.3-14.8 9.7-22.6 11.7-30.9 7.8-2.2-1-5.5-3.3-7.2-5.1-2.7-2.6-4.2-3.3-8.4-3.5-8.3-.6-10.5-3.9-8.8-13.2.6-3.2 2.8-9.4 4.9-13.8 2.1-4.4 4.3-10.1 5-12.5.6-2.5 1.7-6.2 2.5-8.2.8-2.1 1.7-5 2-6.5 1.2-6.6 1.5-7.7 3-9.3.8-.9 1.5-2.8 1.5-4.1.1-6.7.1-6.9 2.1-6.9 1.1 0 2.2-.7 2.5-1.5.7-1.8 3.5-2 5.1-.4.6.6.9 1.8.6 2.5-.4 1 0 1.2 1.1.8.9-.3 1.6-1 1.6-1.5 0-1.4.2-2.3 1-4.5.5-1.3.4-2.6-.2-3.2-1.4-1.4-2.1-7.2-.8-7.2.5 0 .7-.6.4-1.3-.3-.8.4-3.7 1.6-6.6 1.9-5 2.4-11.1.9-11.1-.4 0-2.1-1.2-3.8-2.6-2.5-2.1-3.7-2.5-5.9-1.9-1.5.4-5.2.7-8.2.5-20.6-.8-26-.8-26 .1 0 .5-.7.9-1.5.9s-1.5-.6-1.5-1.3c0-.8-.3-.9-.8-.1-.4.6-1.9 1.4-3.4 1.7-3.7 1-6.4 3.7-4.6 4.8.8.5-1 .9-4.5.9-5.2 0-5.8.2-6.7 2.5-.7 2-1.6 2.5-4.2 2.5-2.7 0-3.6-.6-4.9-3.3-2.2-4.5-6.4-5.5-13.3-3.3-7.8 2.4-10.6 4.9-10.4 9.2.1 2.2.6 3.3 1.3 3 .7-.2 1.1.8 1 2.8 0 1.7.3 3.4.8 3.7.4.3.8 3 .8 6 .1 3 .5 5.9 1 6.5.4.5 1 2.6 1.3 4.6.2 2 1.2 4.8 2.1 6.2 1.5 2.3 1.5 2.6.2 2.6-1.9 0-1.2 2.7 2.5 11 1.4 3 2.9 7.1 3.3 9 .4 1.9 1.6 4.8 2.7 6.3 1.1 1.6 2.1 4.3 2.2 6 .3 3 2.4 7.7 3.6 7.7.3 0 .6 1 .7 2.2.1 1.1.7 2.4 1.3 2.8.7.4 1 1.6.8 2.6-.2 1.1.6 2.7 1.7 3.6 2 1.7 2 1.7 0 3.3-1.1.9-1.3 1.3-.5.9 1.2-.6 1.2-.4-.1 1.2-.9 1-1.5 2.4-1.3 3 .3.5-.2 2.7-.9 4.8-1 3.1-1.1 5.3-.1 11.2.6 4.1 1.1 7.6 1 7.8-.1.3 3 6.8 4.5 9.6.5.8 1.7 3.1 2.7 5 1.1 1.9 2.7 4.8 3.6 6.5.9 1.6 1.6 3.7 1.6 4.5 0 .9.5 2.1 1.2 2.8.7.7.8 1.2.3 1.2s.2 1.1 1.4 2.4c1.5 1.5 2.9 2.2 4 1.8 1.3-.4 1.4-.3.5.9-2 2.5-2.3 5.7-.6 6.4 1.3.5 1.3.7-.3 1.8-1.6 1.3-1.6 1.6.5 5.8 1.2 2.4 2.8 5.1 3.6 5.9.7.9 1.2 2.4 1 3.5-.7 5 3.5 15.1 9.6 22.8 2.1 2.7 3.8 5.3 3.8 5.8 0 .6.5.7 1.1.4.5-.4 2 .4 3.3 1.8 1.3 1.3 3.3 3 4.6 3.7 1.9 1 2.4 1 3.2-.4.8-1.3 1.3-1.5 2.4-.5.7.6 1.2 1.5.9 1.9-.3.5.3 1.6 1.2 2.6 1 .9 2.6 2.9 3.5 4.3 1 1.4 1.8 2 1.8 1.3 0-1 .8-.9 3.3.5 1.7 1 3.4 2.1 3.7 2.4.3.3 2.9.9 5.9 1.2 2.9.4 5.9 1.2 6.7 1.8.8.6 1.4.9 1.4.6 0-.3 1.9 0 4.3.5 10.6 2.5 27.3 1.2 33.3-2.6 1.3-.9 3.6-2.4 5.1-3.4 5.2-3.3 1.1.8-4.6 4.7-3.2 2.2-7.4 5.5-9.3 7.3-15.9 15.1-15.5 14.6-15 17 .2 1-.2 1.8-.8 1.8-.9 0-1 .3-.1 1.3.6.8.8 1.7.4 2-.3.4-.1 1.2.5 1.9.8 1-.4 1.2-6 1-6.9-.3-7-.3-12.5 3.9-3 2.4-7.8 6.6-10.7 9.4-2.8 2.7-5.4 4.9-5.8 4.7-.8-.2-1.2 1.3-.9 3.5.1.9-.5 1-2 .4-1.7-.6-3.7.1-8.3 2.9-18.8 11.4-38.3 16.9-59.2 16.6-10.4-.1-11.2-.3-17.6-3.7-6.4-3.4-6.7-3.5-7.2-1.5-.3 1.1-.3 2.2-.1 2.5.3.2.5-.1.5-.7 0-.7.4-1.2 1-1.2.5 0 .7.7.4 1.5-.5 1.1-.2 1.3 1.2.8 1.3-.5 1.5-.3.9.7-.5.8-.4 1.1.3.7 1.4-.9 4.3.3 3.6 1.4-.3.5.2.6 1.2.2 1.4-.5 1.5-.3.4 1.8-1 1.9-1 2.2 0 1.2 1.5-1.4 4.3-.6 3.3 1-.4.7 0 .8 1.1.4 1.4-.6 1.7-.3 1.2.9-.5 1.4-.4 1.5.9.4 1.1-.9 1.5-.9 1.5-.1 0 .7.5.9 1.2.5.7-.5.9-.2.5.9-.7 1.9 1.6 2.9 3.3 1.4 1-1 1.2-.8.6.7-.5 1.6-.4 1.7.9.6.8-.7 1.5-.8 1.5-.2 0 .5 1.4 1.5 3 2.2 1.7.7 3 1.7 3 2.2 0 .5.4.7.9.4.5-.3 2 .3 3.3 1.4 1.4 1 3.1 2 3.9 2.2.7.2 2 .9 2.7 1.6.7.6 2.2 1.2 3.3 1.2 1 0 1.9.4 1.9.9s1.1 1.2 2.5 1.5c1.4.4 2.3 1.1 2 1.6-.4.6.1.7 1.1.3 1.4-.5 1.6-.3 1.1 1.3-.7 1.9-.7 1.9.8 0 1.5-2 1.5-2 1.5 0 0 1.6.2 1.7 1 .4.8-1.2 1-1.2 1 .5s.2 1.7 1 .5c.8-1.3 1-1.3 1 .2 0 1 .7 1.5 1.8 1.4.9-.2 2.6.3 3.8 1.1 1.1.7 2.4 1 2.7.6.4-.3.7 0 .7.7s.3 1.1.6.7c.4-.3 2.1 0 3.9.8 1.9.7 3.6 1.1 3.9.7.3-.3.6 0 .6.7s.5.9 1 .6c.6-.3 1 0 1 .7 0 .9.3.9 1-.2s1-1.1 1-.2c0 .7.5 1 1 .7.6-.3 1 0 1 .7 0 .9.2 1 .8.1.5-.8 1.1-.8 2.4.1 1 .7 1.6 1.6 1.3 2-.3.3 0 .2.6-.3 1.5-1.2 4.3 1.4 3.4 3.1-.4.7-.1.6.7-.2 1.5-1.8 2.5-1.9 5.5-.2 1.2.7 2.6 1.2 3 1.1 2.2-.4 3.4.2 2.7 1.3-.5.9-.2.9.9-.1 1.1-.8 1.7-.9 1.7-.2s.8.8 2.6.1c2.2-.9 2.5-.8 2 .5-.4 1.1-.2 1.4.7.8 2.2-1.4 4.9-1.4 4.1-.1-.5.8 0 .7 1.1-.2 1.7-1.4 1.8-1.3 1.3.2-.7 1.7.7 1.9 3.1.4 1.1-.7 1.3-.3.8 2l-.6 2.9 1.2-2.8c1.2-3 3-3.8 2.1-1-.3 1 .2.7 1-.7 1-1.6 1.5-1.9 1.6-1 0 1.3.1 1.3 1 0 .8-1.2 1-1.2 1.1.5 0 1.5.2 1.6.7.5 1-2.1 3.6-1.9 4.4.5.6 1.9.6 1.8.7-.3.1-1.2.6-2.2 1.2-2.2s.8.9.4 2.2c-.5 2.2-.5 2.1 1-.2l1.6-2.5-.4 2.8c-.2 1.5 0 3 .5 3.3.4.3.8.2.7-.3-.1-.4 0-1.9.1-3.3.2-2.4.3-2.4 1 .5.6 2.2.8 2.5 1 1 .1-1.1.2-2.3.1-2.7 0-.5.4-.8 1-.8s.9.6.6 1.4c-.4 1 .1 1.3 1.9 1.1 1.8-.2 2.4.2 2 1.1-1.1 2.9.6 1.3 1.9-1.8 1.1-2.5 1.4-2.8 1.5-1.3l.1 2 1-2c.8-1.6.8-1.5.4.8-.4 1.7-.2 2.6.4 2.3.5-.3.7.3.4 1.4-.4 1.6 0 2 2 2 1.4 0 2.8-.4 3.1-.8.2-.4 1.9-.9 3.8-1 6.3-.5 18.3-4.4 27.1-8.9 8.6-4.3 18.8-11.4 18-12.5-.3-.6-.2-.8.4-.5.5.3 2.1-.2 3.5-1.1 4-2.7 19.8-18.4 19.3-19.2-.3-.5.1-1 .8-1.3.8-.3 2.6-3 4.2-5.9 2.5-4.8 3.4-5.6 7.2-6.6 2.4-.7 6.3-1.2 8.8-1.2 2.5 0 4.5-.3 4.5-.7 0-2-20.5-30.5-27.2-37.7-1-1.1-2.8-3.4-4-5.2-2.6-3.8-10.9-9.6-14-9.8-3.5-.2-23.2-10.4-23.4-12.1-.1-.8.6-2 1.7-2.5 1.9-1 2.7-5 1.1-5-1.5 0-.6-4.2 1.2-5.6 1.3-.9 2.5-1 4.2-.4 1.5.6 2.4.6 2.4-.1 0-1.1-4.1-2.9-5.2-2.2-.5.2-.8.1-.9-.4 0-.4-.3-1.9-.5-3.3-.3-1.4.2-6.4 1.2-11.3 1.4-7.5 2.1-9.2 5.3-12.5 2-2 6.1-6.6 9.1-10.2 3-3.5 6.5-7.6 7.8-9 4.8-5.2 14.5-20.7 19.7-31.4 5.2-10.6 10.2-24.6 13.9-38.6 1.5-5.5 2.4-7 5.4-9 2.7-1.9 4.7-4.9 8.3-12.5 4.4-9.3 5.2-12.1 6.5-21.5.7-5.6 1.1-7.3 4.2-19.7 4.1-15.9 5-32.5 2.1-37.3-1.8-3-2.4-3.2-5.9-2.7-3.3.4-3.9.2-4.9-2-.6-1.3-.7-2.2-.2-1.9.5.3 1.1-.3 1.4-1.4.3-1.3 0-2-.9-2-.8 0-1.4.6-1.4 1.2 0 .9-.4.8-1-.2-.7-1.1-.8-.3-.4 2.7.7 4.6-.2 9.7-1.5 8.9-1.2-.8-2-5.5-1.1-6.1.4-.3.1-2.3-.7-4.6-1.5-4.6-1.3-5.5 1.4-4.4 2.4 1.1 4.3 1.4 4.3.8 0-1.4-2.3-4.3-3.4-4.3-.8 0-1.7-.7-2-1.6-.3-.8-.2-1.3.3-1 .5.4.8-1.8.6-4.7-.2-3 0-5.8.3-6.4.8-1.2 4.2-1.3 4.2-.1 0 .4-.3.8-.8.8-1.1 0-.6 9.2.6 9.9.6.4 1.8 2.2 2.7 4.1 1.5 3.3 1.6 3.4.9.5-.3-1.7-.7-3.6-.7-4.3 0-.6-.4-1.2-.9-1.2-.4 0-.8-.7-.8-1.5s-.5-1.5-1.1-1.5c-.5 0-.7-.5-.4-1 .4-.6 1.1-.7 1.7-.4.7.5.9-.2.4-2-.4-1.8-.3-2.5.3-2.1.7.3.8 0 .5-.9-.3-.9-.2-1.6.4-1.6.6 0 .8-1 .4-2.2-.3-1.4-.2-1.9.6-1.4.7.4 1.2.3 1.2-.3s.6-.8 1.4-.5c1.1.4 1.2-.3.6-3.6-.5-3-.4-4 .4-3.7 1.3.5 1.3-4.1.1-8.1-.5-1.4-.3-2.2.4-2.2.6 0 1.1-.4 1.1-1 0-.5-.8-.6-1.7-.3-1.2.5-1.2.2.4-1.4 1.6-1.6 2-3.1 1.8-6.1-.1-2.2-.6-4.5-1-5.2-.5-.9-.4-1.1.3-.6.8.5 1 .2.6-.8-.3-.9-1-1.6-1.4-1.6-.9 0-2.2-3.3-2.5-6-.1-.8-.5-2.6-.9-4-.5-1.7-.4-2.1.2-1.1.7 1 1.1.3 1.4-2.3.2-2 .1-3.7-.2-3.8-1.5-.8-4.8-9.3-4-10.4 1.2-1.3-2.8-9.6-5.9-12.5-2.3-2.2-5.9-8.5-4.2-7.5 1.9 1.2 1.2-.3-2.7-6.2-2.1-3.1-5.3-8.2-7-11.3-6.3-11.1-15.2-17.8-28.4-21.5-3.2-.9-5.8-2-5.8-2.5 0-.4-.9-1.1-2-1.4-1.1-.3-2-1.3-2-2 0-1.7-2.3-3-6.9-4-1.9-.4-4.1-1.4-4.8-2.1-1.6-1.6-9.2-3.8-10.1-3-.3.3.1.6.9.6s2.3.7 3.3 1.5c1.7 1.3 1.5 1.4-2.7 1-5.1-.4-6.3.9-1.9 2 2.7.7 2.7.7.4 1.6-2.6 1-8.8.6-14.5-.9-2.3-.6-5-.7-6.9-.2-2.4.7-2.9.6-2.4-.5.3-.8.1-1.7-.5-2-.5-.4-.7-1-.4-1.5.3-.4-1.1-.4-3 0s-3.3.4-3 0c.2-.4 1.9-1 3.7-1.4 3-.6 3.1-.8 1.4-1.8-1.4-.8-2.4-.8-3.7.1-2.9 1.8-3.2 1.3-.7-1.2 1.3-1.2 2.2-2.1 1.9-2-.2.2-1-.2-1.7-.8-1-.9-1.5-.7-2 .5-.3.9-1 1.3-1.5 1-.6-.3-1.8 0-2.7.7-1.2 1-1.2.7.2-.9 2.2-2.6 3-5.8 1.7-6.7-.5-.3-1.3 0-1.7.6-.5.8-.3.9.6.4.9-.5 1.1-.4.6.4-1.1 1.6-2.6.3-1.9-1.6.7-1.8-.6-1.3-4.2 1.6-1.8 1.5-1.9 1.5-.6-.2 2.5-3.2.4-2.9-2.3.3zm57.3 135.9c1.4.8 2.1.9 1.7.2-1-1.6 1.5-1.3 2.8.3.6.8 2.5 1.7 4.1 2 10.6 1.8 11 1.9 9 2.7-1.7.6-1.6.8.8.8 2.6.1 4 2 1.5 2.2-.7 0-.4.5.7 1 1.5.7.8.8-2.6.6-2.8-.1-5.1.3-5.8 1.1-.9.9-3 1.1-7.2.7-3.5-.3-5.9-.1-5.9.4 0 .6-2 1.9-4.5 3-3.3 1.5-5.2 1.8-6.9 1.1-2-.7-2.5-.5-3 1.3-.3 1.2-.6 2.7-.6 3.3 0 1.2 8.4 4.1 14 4.8 1.9.2 5.3 1 7.5 1.7s4.2 1.3 4.5 1.4c2.8.6 15.9 5.4 21 7.7 7.6 3.4 11.1 6.5 8.9 7.9-1 .6-.5 1.2 2 2.2 2.5 1.1 2.9 1.6 1.7 2-2.1.8-4.4-.1-8-3-3.5-2.9-4.5-2.3-1.9 1.1 1 1.5 3.7 3.2 6.2 3.9 3.6 1.1 4.1 1.5 2.3 1.9-1.2.3-3.7-.3-5.8-1.4-4.5-2.4-8.1-3.2-8.9-1.9-.3.6-2 .4-4.1-.5-2.4-1-5.7-1.3-10-1.1-3.8.3-6.4.1-6.4-.5s-.6-.8-1.4-.5c-.8.3-1.7.3-2.1-.1-1.1-1.1-7.5-.8-7.5.3 0 .5-.5.3-1-.5s-1.7-1.6-2.7-1.7c-6.1-.7-10.4-1.3-15.2-2.2-2.9-.6-5.6-1.1-5.8-1.1-.2 0 .1-.9.7-1.9.8-1.6.5-2.5-1.4-4.5-1.6-1.8-2.2-3.4-1.8-5.1.3-1.8-.2-3.3-1.7-4.9-1.2-1.2-1.9-2.5-1.6-2.8.3-.3-.1-1.1-1-1.8-.8-.7-1.5-2.4-1.5-3.9s-.6-3.3-1.2-4c-1.1-1-.5-1.9 2.7-4.8 4.1-3.6 10.1-6.7 12.2-6.4.6.1 1.4-.3 1.8-.9.3-.5 2.1-1 3.8-1 2.4 0 2.8.3 1.7 1-.8.5-1 1-.5 1 .6-.1 1.7-.6 2.6-1.3 2.2-1.6 10.7-1.5 13.8.2zm69.3 5c.3 2.1.1 2.8-.9 2.4-.7-.3-1.2-1.6-1.1-2.9.3-3.3 1.5-3 2 .5zm-9.8 46.2c-.2.4 0 1 .6 1.4.5.3 1 1.1 1 1.8 0 .6-.7.2-1.5-.9-.8-1-1.4-2.8-1.5-3.9 0-1.6.2-1.7.9-.5.6.8.8 1.7.5 2.1zm13.9 3.4c.4.8-.2 4-1.3 7.2-1 3.2-2.2 7.6-2.6 9.8l-.7 4-1.3-4c-.7-2.2-1.3-5.3-1.3-6.8-.1-1.5-.8-3-1.6-3.3-2.4-1-1.8-2.2 2.7-5.4 4.7-3.4 5.4-3.6 6.1-1.5zm-198 107.7c.9 1 2.6 1.8 3.7 1.8s2 .6 2 1.2c0 1.6 8.5 5.2 12.5 5.3 1.6 0 3.6.4 4.4.9.8.5 4.6 1.1 8.5 1.3 9.7.5 9.4.5 15.9 0 4.4-.4 6.8 0 9.8 1.5 4.4 2.1 11.6 3.1 12.5 1.6.3-.4.9-.6 1.4-.3.5.3 1.1.1 1.4-.4.6-.9 12-2.9 16.6-2.9 6.3.1 16.5-1.4 19.1-2.7 3-1.6 8.4-2 7.5-.6-.3.4-2.7 1.4-5.3 2.1-2.7.8-7 2.3-9.8 3.5-5.8 2.5-11.2 3.6-20.8 4.1-3.8.1-9.2 1.1-12 2-5.2 1.8-10.5 2-29.7 1.5-5.2-.1-10.6.1-12 .4-1.4.3-6.4.7-11.3.9-4.8.2-9.1.6-9.5 1-.7.7 4.9 5.4 5.6 4.8.2-.2.9.4 1.5 1.2 1.4 1.8 12.4 7.6 14.4 7.6.7 0 1.3.3 1.3.7 0 .5 2.8.8 6.2.8 3.5 0 9 .4 12.3.8 3.3.4 6.6.8 7.3.9 2.4.2-.5 1.9-3.4 2-2.6 0-15.3-1-17.2-1.4-.4 0-2.3.6-4.2 1.5-1.9.9-3 1.6-2.4 1.7 1.2 0 0 4.8-1.8 7.6-1 1.5-5 2.2-7.4 1.3-1-.4-2.8-.1-3.9.5-2.7 1.6-8.4 1.2-14.5-1.1-.8-.4-1.9-.5-2.4-.4-1.4.3-4.6-3.1-4.5-4.8 0-1 .2-1.2.6-.4.2.7 1.1 1.3 1.9 1.3 1.3 0 1.3-.3 0-2.2-1.5-2.2-2.2-5.8-1.1-5.8.3 0 1.5.9 2.6 1.9 2.2 2 6.2 3.2 7.6 2.2 1.6-1.2 1.5-6.1-.1-6.7-.9-.3-2.1-2.4-2.8-4.6-.7-2.3-2.6-5-4.7-6.8-2-1.6-4.7-4-6.1-5.3-1.4-1.3-3.8-3.1-5.3-4.1-3.1-1.9-3.3-4.8-.3-5.2 2.6-.4 3.7-2.4 3.1-5.2-.6-2.4 1.1-5.6 2.5-4.7.4.3 1.2-.1 1.8-.8 1.5-1.8 6.4-1.5 8.5.5zM394 511.5c0 .8-.4 1.5-1 1.5-.5 0-.7-.7-.4-1.5.4-.8.8-1.5 1-1.5.2 0 .4.7.4 1.5zm30.3 28.9c7.4 9.7 8.2 11.1 11.2 19 4.4 11.7 1.7 20.6-10.4 33.6-3.8 4.1-8.9 9.7-11.4 12.5-2.5 2.7-4.8 4.8-5 4.5-.3-.3 2.4-3.9 6-8 12.1-13.7 15.1-24.5 11.8-41.5-1.8-9.2-7.5-24.7-10.1-27.6-.8-.8-1.4-1.9-1.4-2.4 0-1.5 3.1 1.8 9.3 9.9zm-71.3 94c0 .2-.9.6-2 .9-1.1.3-2 .1-2-.4s.9-.9 2-.9 2 .2 2 .4z"/><path d="M385 111.4c0 .2.9.6 2 .9 1.1.3 2 .1 2-.4s-.9-.9-2-.9-2 .2-2 .4zm31.8 3.1c-.2.3-2.6.6-5.2.6-2.6.1-4.9.5-5.1.9-.7 1.1 9.6.3 10.8-.9.6-.6.9-1.1.6-1.1-.3 0-.8.2-1.1.5zM462 168c0 .5.4 1 .9 1s1.7.8 2.7 1.7c.9 1 2.4 1.8 3.3 2 .9.1 0-1.1-1.9-2.7-3.7-3.1-5-3.6-5-2zm-207.8 77.4c-2.4.6-4 1.5-3.6 1.9.4.3-.1.9-1 1.3s-1.6 1.7-1.6 3.3c0 2 .2 2.3 1 1.1.7-1 1.2-1.2 1.8-.4 1.6 2.4 5.1 3.1 14.3 3 7.6-.2 10-.6 11.4-1.9 2-2.1.7-4.4-2.8-4.9-1.2-.2-2.1-.9-1.9-1.6.1-.6-.1-1.2-.5-1.3-.5 0-1.7-.2-2.8-.4-6.5-1.2-10.5-1.2-14.3-.1zM464 255.5c0 .5.5 1.7 1 2.5s1 1 1 .5c0-.6-.5-1.7-1-2.5s-1-1.1-1-.5zm-161.4 80.7c-1.6 1.2-3.5 3.7-4.3 5.6-1.3 3.2-1.3 3.8 1.4 9.2 2.3 4.8 3.4 6.1 6.4 7 5.7 1.9 7.8.2 7.5-5.8-.2-2.6-.8-5.7-1.4-6.9-.7-1.2-1.2-3.5-1.2-5.2 0-2-.8-3.5-2.2-4.5-2.8-2-2.7-2-6.2.6zm105.6 168.5c-1.9.4-5.3 4.3-3.6 4.3.3 0-.1 1.1-.9 2.3-1.5 2.3-1.5 2.4 1.1 1.9 1.4-.3 3.5-1.3 4.6-2.3 1.1-1.1 2.4-1.5 3-1.1 1 .7 1.9.8 4.2.3.4 0 .1-.7-.5-1.4-.6-.8-.8-1.7-.4-2.1.4-.3-.8-.3-2.5 0-2.7.6-3.1.4-2.6-1 .3-.9.5-1.5.3-1.5-.2.1-1.4.4-2.7.6zm-12.7 3.1c.5 2.9 1.2 3.8 2.2 2.8.4-.4.1-1.1-.7-1.6-1.3-.8-1.3-1 .1-1 .9 0 1.6-.6 1.6-1.4 0-.8-.8-1.4-1.8-1.3-1.4.1-1.8.7-1.4 2.5zm26.9 5.3c-.3.5-.9.7-1.4.4-1.2-.8-4.1.6-3.4 1.6.3.5.9.7 1.4.4.5-.3 1.1-.1 1.5.5.4.6 1.1.8 1.6.5.5-.4.9 0 .9.9 0 1.2.5 1.2 2.9.3 1.8-.6 2.8-1.7 2.6-2.6-.2-.9-.4-1.8-.4-2.1-.2-.9-5.1-.8-5.7.1zm7.1 2.9c0 1.6.4 3 .8 3 .5 0 .5.4.2 1-.9 1.5 3.1 1.2 4.3-.3 1.6-1.9 1.1-3.1-2-5-3.6-2.2-3.4-2.2-3.3 1.3zm13.2 6.7c-.2.5-.2 1.4-.1 2 .1.7.2 1.7.3 2.2 0 .4 1.2.7 2.6.5 2.1-.2 2.5.1 2 1.6-.4 1.2.1 1.9 1.6 2.3 1.3.4 1.8 1 1.3 1.8-.4.8-.3 1 .5.5.6-.4.9-1.2.6-1.7-.4-.5-.1-.9.5-.9s.8-.6.5-1.3c-.4-.6 0-.4.9.6.8 1.1 1.2 2.5.9 3.3-.3.8.2 1.7 1.1 2 .9.3 1.3 1.1 1 1.6-.4.7.6.8 2.7.3 2.3-.4 3-.3 2 .3-1.1.8-.5 1.5 2.5 3.1s3.4 2 1.7 2.1c-1.2 0-2.3-.6-2.6-1.3-.2-.6-.8-.9-1.1-.5-.4.3.3 1.7 1.6 3 1.3 1.2 2.2 2.6 2.1 3-.2.5.2.9.7.9 2 .3 2.5.4 3.7 1.2 1.4.9.6-2.8-1.5-6.6-.2-.5.6-.7 1.9-.5 3.4.4 3-2-.6-4-1.6-.9-3.3-2.1-3.6-2.5-.3-.5-1-.8-1.5-.8-.5.1-1.7-.6-2.6-1.4-1-.8-1.8-1.2-1.8-.9 0 .3-.7-.2-1.6-1-.8-.9-1.9-1.4-2.4-1.1-.4.3-.6-.5-.3-1.7.3-1.4.1-1.9-.4-1.2-.5.6-1.8.7-3.3.3-1.4-.4-2-.8-1.5-.8.6-.1-.3-.8-2-1.5-2.1-.9-3.4-1-4.3-.3-1 .8-1.2.7-1-.4.2-.8.8-1.7 1.3-2.1.6-.5.6-.8-.2-.8-.6 0-1.4.3-1.6.7z"/><path d="M457 529c0 .5.5 1 1.1 1 .5 0 .7-.5.4-1-.3-.6-.8-1-1.1-1-.2 0-.4.4-.4 1zm-334 1.6c0 1.7 2.2 1.4 2.8-.4.2-.7-.3-1.2-1.2-1.2-.9 0-1.6.7-1.6 1.6zm31.2-1.1c1.1 1.2-2.1 3.8-3.8 3.1-1.3-.5-1.5-.2-1.1 1.4.5 2.1-2.5 4.6-4.2 3.6-1.4-.9-2.1 2.2-1.1 4.6l.9 2.3v-2.2c.1-1.2 1.1-2.9 2.2-3.7 1.9-1.3 2.3-1.3 3.7.1 1.3 1.2 1.3 1.9.3 3.5-1.6 2.6-.3 3.8 1.5 1.4 1.2-1.7 1.4-1.8 1.4-.3 0 2 1 2.2 3.4.4 1.1-.8 1.6-2 1.3-2.8-.4-1-.6-1-.6.3-.1 1.5-.5 1.6-2.5.7-1.8-.9-2.3-1.8-2.2-4.3.1-1.7.7-4.1 1.4-5.3 1-1.7.9-2.3 0-2.9-.7-.4-1-.4-.6.1zm-63.8 6.9c-.3.8-1.2 1.2-2 .9-1.9-.7-1.8 1.1.1 2.7 1 .9 1.5.9 1.5.1 0-.6.5-1.1 1.1-1.1.5 0 .7.4.4 1-.3.5-.1 1 .4 1 .6 0 1.1-.8 1.1-1.8 0-1.2.3-1.3.8-.5.6 1 1.2 1 2.8-.1 1.8-1.4 1.8-1.5-.9-2.5-3.7-1.4-4.7-1.4-5.3.3zm387.1.6c-.3.5.3 1.5 1.5 2.2 2.3 1.5 2.7 3 .5 2.2-.8-.4-1.5-.1-1.5.5 0 1 1.6 1.5 4.8 1.4.6-.1 1.2.3 1.2.8s.7.9 1.5.9 1.4.5 1.3 1.1c-.2.6.3 1.4 1 1.6.6.3 1.2 0 1.2-.6 0-1.2 5-.4 6 .8 1.8 2.3 11.4 8.1 12.6 7.7.8-.3 1.4.1 1.4 1 0 1.1-.6 1.3-2.2.8-2-.6-2.1-.5-1 .9 1.6 1.9.1 3.1-2.8 2.2-1.4-.5-2-.2-2 .9 0 .9-.5 1.6-1.1 1.6-.5 0-.9-.8-.8-1.8.3-2.8-1.2-5.3-4-6.4-3.8-1.6-6.1-1.9-6.1-.9 0 1.2 2.9 2.3 4.1 1.5.5-.3 1 0 1 .5.1.6.3 1.5.4 2.1.1.5.3 1.5.4 2.1 0 .6.8.8 1.7.5 1.3-.5 1.5-.2 1.1 1.4-.4 1.4.2 2.4 1.7 3.3 1.8 1 2.1 1.7 1.5 4.2-.4 1.6-.7 2.2-.8 1.2-.1-1.9-4.9-7.7-6.4-7.7s-3.2-2.4-3.2-4.5c0-1.1-.5-1.9-1.2-1.8-.6.2-1.5-.7-1.8-1.9-.6-1.6-.9-1.8-1.6-.7-.6 1-.9 1.1-1 .1-.4-3.3-.6-3.7-1.8-3.4-.7.1-1.5-.7-1.8-1.8-.4-1.4-1.1-1.9-2.2-1.5-1.2.3-1.7-.1-1.8-1.6-.1-1.2-.7-2.7-1.2-3.2-.7-.7-.9-.1-.5 1.9.2 1.6.1 2.4-.3 1.8-.5-.6-1.7-1.6-2.9-2.2-1.6-.9-2.1-.8-2.1.3 0 .8.3 1.3.6 1.1.3-.2 1.2.2 1.9 1 .8.9.9 1.4.2 1.4-.6 0-.8.5-.5 1 .4.6 1.1.8 1.6.5 1.4-.9 3.1.5 2.1 1.8-1.2 1.7-1.3 5.7-.1 5.7.6 0 .8-.4.4-.9-.3-.5 0-1.3.6-1.7.8-.4.9-.3.5.4-.4.6.3 2.1 1.4 3.2 2.7 2.7 1.1 5.3-2.6 4.4-1.5-.4-2.4-.2-2.4.5 0 1 .7 1.3 2.7 1 1-.1 2.5 3 1.9 4-.4.5.3.7 1.4.4 3-.8 3.3-2 1-3.6-1.1-.7-1.7-1.7-1.3-2 1-1.1 2.5-.8 1.8.3-.3.5-.2 1 .3 1 1.6 0 6.2 4.9 5.3 5.5-.5.3-1.2.1-1.5-.4-.7-1-7.4.3-8.8 1.7-1.1 1.1 5.9.9 11.2-.3 2.5-.5 2.5-.5.3.8-1.6.9-2 1.6-1.3 2.7.9 1.3 1.1 1.3 1.9 0 .8-1.1 1.2-.9 2 1.3.6 1.6 1.5 2.6 2.1 2.2.5-.3.6-1.3.3-2.1-.5-1.3-.1-1.5 1.8-.9 1.3.4 2.9 1.1 3.5 1.6.6.5 1.5.4 2.2-.3 1.3-1.3 1.6.1.4 1.7-.8 1.2-3.2 1.3-4.9.2-1.2-.8-1.7-.2-1.5 1.4.1.4-.8.5-1.8.2-2.1-.6-2.9 2-1 3.2.6.3 1 .1 1-.4 0-.6.5-1.1 1.1-1.1.5 0 .8.4.5.9-.3.5.1 1.4.9 2.1 1.3 1.1 1.4 1 .9-.4-.3-.9-.1-1.6.5-1.6s1.2.8 1.3 1.7c0 1 .2 2.2.3 2.8.2.5.3 1.4.4 2 .2 1.3 3-3.6 3.1-5.3 0-.6-.7-1.2-1.5-1.2s-1.5-.5-1.5-1.1c0-1.4 4.7-.3 6.6 1.6 1.6 1.6 1.8 3.4.4 3.6-.5.1-1.4.3-2 .4-.5.1-1.4.3-2 .4-1.8.2-1 3 1 3.6 1.1.3 2 1.1 2 1.6s.3.8.8.8c2-.3 3.2.2 3.2 1.5 0 .7.8 2 1.7 2.7.9.8 1.4.9 1 .3-.8-1.3 1.7-2.7 5.1-2.9 2.2-.1 2.2 0 .6 1.2-.9.7-2.1 1-2.5.7-.5-.3-.9.2-.9 1 0 .9.5 1.6 1 1.6.6 0 1-.5 1-1 0-.6.7-1 1.5-1 1.9 0 1.9.9-.1 3.1-2.1 2.4-.9 4.1 2.3 3.3 1.8-.5 2.4-.3 1.9.5-1 1.6.5 1.4 1.8-.3.7-.9 1.8-1.1 3.1-.6 1.3.6 1.5.9.5.9-.8.1-2.1.5-2.9 1-1.9 1.2.3 5.1 3 5.1 1.1 0 1.8.4 1.4.9-.7 1.2 1.4 2.6 4 2.6 1.1 0 2 .7 2 1.5.1.8.6 1.4 1.3 1.3.7-.2 1.2.1 1.2.5 0 .5 1.1 1.4 2.5 2 1.4.6 2.5 1.5 2.4 1.9-.4 2.6 3.2 7.9 4.4 6.6.4-.3.9.2 1.3 1.1.3.9 1.2 1.6 1.9 1.6 2.1 0 8.4 4.3 8.5 5.7 0 .7 1.1 1.3 2.3 1.3 1.3 0 3.2.9 4.2 2s1.3 2 .7 2c-.7 0-1.2-.4-1.2-.8 0-.5-1.6-1.3-3.5-1.9-2.4-.8-3.5-.8-3.5-.1 0 .6-.6.5-1.5-.2-.8-.7-1.5-.9-1.6-.4 0 .5-.4-.1-.9-1.4-.5-1.2-2.5-3-4.5-3.9-1.9-.9-3.5-2.2-3.5-2.9 0-.6-1.8-2.3-4-3.8-3.7-2.4-4-2.5-4-.7 0 1.1.9 2.3 2 2.6 2.4.8 2.7 2.5.4 2.5-.9 0-1.2-.5-.8-1.2.5-.7.2-.9-.8-.6-1.7.7-2.7.1-4.8-2.7-1.1-1.6-1.1-1.7 0-.7 2.2 1.9 3.5 1.4 1.7-.6-1-1-1.7-2.5-1.8-3.3 0-.8-3.3-4.2-7.3-7.7-5.8-4.8-8.1-6.2-10.6-6.2-2.8 0-3.1.2-2 1.5s.8 1.5-1.6 1.5c-2.1 0-2.5.3-1.7 1.1.6.6.9 1.7.7 2.3-.6 1.6 4.3 3.9 5.2 2.5.4-.6 1-.4 1.7.5s2.3 1.7 3.7 1.8c1.9.2 2.4-.1 2.2-1.5-.3-1.7-.2-1.7 1.5 0 1.1 1 1.5 2 1.1 2.1-.5.2-.5.9-.2 1.4.5.7.2.8-.6.3-2.4-1.5-7-1.4-7 .1 0 .8-.6 1.4-1.2 1.4-.9 0-.8.4.2 1 1.2.8 1 1-1 1.1-1.4.1-1.8.3-.9.6.9.2 2.2 1.5 2.9 2.8.8 1.5 1.8 2.1 2.9 1.8 1-.4.7.3-.9 1.8-1.3 1.3-3.3 2.2-4.3 2.1-1.2-.2-1.7.1-1.3.7.4.6.1 1.1-.6 1.2-.7 0-.4.4.7.9 1.1.4 2.4.4 2.9-.1 1.5-1.4 4.3-1.1 5 .6.4 1-.1 1.5-1.4 1.5-1.1 0-2 .5-2 1.1 0 .5-.4.7-1 .4-.5-.3-1-.1-1 .5 0 1.6 4.2.8 5.6-1 .7-.8 1-2 .7-2.7-.3-.7.1-1.3.8-1.3.7 0 2-.7 2.8-1.4 1-.9 2.2-1.2 3-.7.9.6.6 1-1.3 1.5-1.7.4-2.6 1.3-2.6 2.6 0 1.6.7 2 3.7 2 3.4 0 3.5.1 1.8 1.4-1.1.8-2.5 1.1-3.3.8-1.1-.4-1.3 0-.7 1.7.6 2.1.5 2.2-1.4 1.2-1.6-.9-2.1-.9-2.1.2 0 .7.6 1.9 1.3 2.7.6.8.2.6-1-.4-1.3-1.1-2.3-2.5-2.3-3.2 0-1.8-4.8-1.4-5.5.4-.3.7-1 1-1.6.6-.8-.5-.9-.3-.5.5.5.7 1.4 1 2.2.7.8-.3 1.4-.1 1.4.5s.5.7 1 .4c.6-.3 1-.1 1 .4 0 .6-.4 1.1-.9 1.1s-.8.7-.7 1.5c.3 2 1.6 3.2 1.6 1.5 0-1.1.3-1.1 1.2-.2 1.7 1.7 2.8 1.5 2.9-.6 0-1.1.2-1.2.6-.4.3.8.9 1 1.6.4 1.6-1.2 8.7-2 8.7-1 0 .4-1.9.8-4.2.8-4.1 0-4.2 0-2 1.6 1.2.8 2.2 2 2.2 2.6 0 .6-.3.8-.7.5-.3-.4-1.2-.2-2 .5-1 .8-1.2.8-.8-.4.4-.9 0-1.8-.9-2.1-1-.4-1.4 0-1.1 1.4.2 1 .6 2.3.9 2.8.3.5-.1 1.1-.9 1.5-.8.3-1.5.1-1.5-.4s-.7-.7-1.5-.4c-1.8.7-1.9 0-.5-2.6s-.9-3.9-2.6-1.6c-1.5 2.1-3.5 1.3-2.8-1.2.5-1.3.4-1.4-.4-.3-.7.9-1.2 1-1.6.2-.9-1.4-2.6-1.4-2.6 0 0 .6 1.8 1.8 4 2.7 2.2.9 4 2.1 4 2.5 0 .5-.5.5-1.2.1s-.8-.3-.4.4 1.8 1.2 3.2 1.2c2.6 0 3.3 1.7.9 2.6-1.9.8-2 3.4-.1 3.4.8 0 1.6-.7 2-1.5.3-.8 1.6-1.5 2.8-1.5 1.9 0 2-.2.8-1-.8-.5-1-1-.4-1 .5 0 1.5.5 2.1 1.1.7.7 1.3.7 1.7 0 1-1.5 3.6-.2 2.9 1.6-.4.9-.8 1.1-1.2.4-.4-.6-1.2-.7-2.1-.1-1.3.8-1.2 1 .3 1 .9 0 2.5.9 3.4 2 1.1 1.3 1.9 1.6 2.4.9.5-.8.8-.8 1.3 0 1.2 1.9-3.7 3.1-5.6 1.3-1.1-.9-1.8-1.1-1.8-.4 0 .7.5 1.2 1.1 1.2.8 0 .7.6-.2 1.7-1 1.1-1 1.4-.1.9.7-.4 1.2-.1 1.2.9 0 1.3-.6 1.5-3 1-1.9-.4-3-.3-3 .4 0 .9.9 1.3 3 1.3.3 0 1.6-.3 2.8-.7 2.2-.6 2.3-.5 1.2 1.4-.6 1.2-1.6 1.8-2.2 1.5-.7-.5-.8-.2-.4.5.5.7 0 2.1-1.1 3.3-1 1.2-1.3 1.8-.6 1.5.6-.4 1.4-.3 1.8.2.3.7 1.5.7 3 .1 1.6-.6 2.7-.6 3.1.1.3.6 1.7.8 2.9.5 1.9-.5 2.2-.3 1.8 1.3-.3 1.2-1.1 1.7-1.9 1.4-.8-.3-1.4 0-1.4.6s.5 1.1 1.1 1.1c.7 0 .8.7.4 1.7-1.1 2.6-.8 5.5.7 6.4 1 .7 1 .9.1.9-.7 0-1.3.7-1.3 1.5 0 .9.9 1.5 2.5 1.5 2 0 2.5-.5 2.5-2.6 0-2.4.2-2.6 3.2-2 1.8.3 3.7 1.1 4.3 1.8.7.8.7.9-.2.4-.6-.3-1.4 0-1.6.6-.4 1-.6 1-.6 0-.1-.6-.5-1.2-1.1-1.2-.5 0-.7.7-.4 1.5.4 1 2 1.5 4.7 1.5 3.8 0 3.9-.1 2.1-1.5-1.8-1.4-1.8-1.4.4-1.5 1.2 0 2.5.7 2.8 1.5.6 1.5 5 2 9.1.9 1.4-.4 2-1.1 1.6-2.2-.3-1 .3-.8 1.5.7 1 1.3 2.5 2.1 3.3 1.8.9-.4.8-.6-.5-.6-1.1-.1-1.6-.4-1.3-.8.4-.3.2-1.2-.4-1.9-.6-.7-.7-1.9-.2-2.7.6-1.1 1.1-1 2.6.5.9 1 1.2 1.8.6 1.8-.5 0-.7.5-.4 1 .4.6 1.1.7 1.7.4.7-.5.9-.1.5.9-.6 1.5.6 1.7 11 1.7h11.6l-.8-4.2c-1-6.3-2.5-16.1-2.6-17.8-.1-.8-.8-4.4-1.6-8-.8-3.6-1.7-9.7-1.8-13.5-.4-9.2-1.5-17.4-2.5-19.4-2.8-5.8-4.1-10.1-3-10.1.6 0 1-.4 1-1 0-.5-.7-.7-1.5-.4-1.1.5-1.5-.1-1.5-1.8 0-1.3-.5-2.9-1-3.4-.6-.6-1.2-2.1-1.5-3.4-.2-1.3-1.3-3.3-2.4-4.4-1.1-1.2-2.3-3.3-2.5-4.6-.2-1.4-.5-2.5-.6-2.5-.4 0-1.5-5.7-2.4-12.5-.2-1.4-.5-2.7-.6-3-.1-.3-.2-.9-.1-1.4.1-.4-.3-1.4-.9-2.1-.6-.7-1-1.7-.8-2.1.1-.5-1-2.8-2.6-5.2-2.3-3.4-3.2-4-4.3-3.1-.7.7-1.7.9-2.1.5-.4-.4.2-1.4 1.2-2.2 1.7-1.2 1.7-1.4.3-2-.9-.3-2.1-.3-2.7.1-.5.3-1 .1-1-.4 0-.6.4-1.1 1-1.1.5 0 .2-1.6-.7-3.5-1.6-3.3-4.1-3.9-2.8-.6.5 1.3.4 1.3-.6.4-1.6-1.6-2.1-4.3-.8-4.3.6 0 .8-.4.4-1-.3-.5-1.2-.7-2.1-.3-.8.3-1.4.2-1.3-.3.4-2.2-.2-3.4-1.6-3.4-.8 0-1.5-.5-1.5-1.1 0-.5.5-.7 1-.4.6.3 1 .1 1-.4 0-.6-.8-1.1-1.8-1.1s-2.9-1.1-4.2-2.5c-1.3-1.4-3-2.3-3.7-2.1-.7.3-1.5.1-1.8-.4-.4-.6-1.6-1-2.8-1-1.6 0-1.1.6 2.1 2.2 2.3 1.2 4.2 2.7 4.2 3.3 0 .6 1.8 2.6 4 4.4 2.3 1.9 4 4.1 3.9 5-.3 3.8.1 4.9 1.9 4.5.9-.3 2.6.2 3.7 1 2 1.5 2 1.5-.4 1.6-2 0-2.1.2-1.1 1.5 1 1.2 1 1.5 0 1.5-.7 0-1 .6-.7 1.4.3.8.1 1.7-.6 2-.7.3.5.4 2.6.2 3.1-.3 3.7 0 3.7 1.6 0 1.2.4 1.6 1.2 1.2.7-.5.8-.3.3.6-.6 1-1.1 1-2-.3-1.7-2.3-2.8-2.1-2.2.3.3 1.1.1 2-.4 2s-.9.5-.9 1.1c0 .6.9.8 2.2.3 2.1-.6 2.2-.6.4 1.2-1.3 1.3-1.5 1.9-.6 2.2.7.3 1.6-.1 2-.8 1.2-1.9 4.4.9 4.7 4l.2 2.5-1.6-2.3c-1.6-2.3-6.3-3.1-6.3-1.1 0 .8-.5.7-1.5-.1-.9-.7-1.8-1-2.2-.6-.3.3-.2.6.4.6.5 0 1 .7 1 1.5 0 2-1.3 1.9-2.1-.1-1-2.7-.7-3.4 1.7-3.5 1.2 0 1.6-.3.9-.6-.6-.2-1-.9-.6-1.4.3-.5-.4-.9-1.4-.9-1.1 0-2.2.7-2.6 1.5-.3.8-1.2 1.2-2 .9-.8-.3-1.7-.1-2 .5-.4.5.3 1.2 1.4 1.6 2.2.7 2.7 2.1.9 2.7-.6.2.1 1.6 1.5 3.1 2.8 3.1 3.3 4.2 1.4 3.2-.7-.4-.4 0 .6.9 1.9 1.5 1.8 1.6-.5 2.6l-2.4 1.1 2.4-.5c2.1-.4 2.3-.2 1.9 2.4-.3 1.8 0 2.7.6 2.3.5-.4.7 0 .3.9-.3.9-.3 1.9.1 2.3.4.4.7 1.2.7 1.8.1.7.7 1.1 1.4.9.7-.1 1 .2.7.7-.4.5-.2 1.2.3 1.5.5.3 1.1-.1 1.5-.9.3-.8 1.1-1.5 1.7-1.5.9 0 .9.4 0 1.4-.8 1-.9 1.6-.1 2.1 2.1 1.3.9 2.4-1.5 1.3-1.4-.6-2.5-1.5-2.5-2s-.5-.6-1-.3c-.6.4.9 2.2 3.2 4.2 5.5 4.5 5.8 4.8 3.1 3.4-2.2-1.1-3.4.1-1.3 1.4 1.5.9 1.2 2.2-.5 2.2-.8 0-1.5-.6-1.5-1.2 0-1.9-3.1-7.6-4.4-8.1-1.3-.5-1.8-3.4-.6-3.4.4 0 .7-.7.7-1.5 0-2.3-1.6-1.8-2.1.7-.8 4.7-.4 7.8 1 7.8 2.5 0 1.5 1.6-1.1 1.8-1.7.1-3-.6-4.1-2.3-1.6-2.4-5.3-3.7-3.8-1.3.4.7.3.8-.4.4-1.9-1.1-1.4-2.6.9-2.6 1.1 0 1.7-.5 1.4-1-.3-.6.2-1 1.2-1 1.3 0 1.5-.2.5-.9-.7-.4-1.2-1.2-1.1-1.7.5-3.1-.2-4.6-2.1-4.1-1.3.3-2 0-2-1 0-.8.4-1.2.8-.9.5.3 1.6-.4 2.5-1.5 1.4-1.6 1.4-1.9.2-1.9-.8 0-1.5.5-1.5 1.1 0 .5-.5.7-1.1.3-.8-.4-.3-1.2 1.2-2 2.2-1.2 2.2-1.3.4-1.4-1.6 0-1.7-.2-.5-1 1.2-.7 1.2-1.3.1-3.3-.7-1.4-2.3-3-3.5-3.6l-2.1-1.2 2.2.5c2.6.5 3.9-2 1.5-2.9-1.4-.5-1.4-.7-.2-1.5 1.3-.8 1.2-1-.2-1-1 0-1.8-.5-1.8-1.1 0-.5.5-.7 1.2-.3.8.5.9.2.5-1-.4-1-.7-2-.7-2.2 0-.2-.4-.4-1-.4-.5 0-1 .9-1 2.1 0 3.3-1.7 1.3-1.8-2.1-.1-4.7-2.6-7.9-5.9-7.7-2.6.2-4.6 2.7-2.1 2.7 1.3 0 4.2 3.6 4.3 5.3 0 .4.5 1.1 1 1.5.6.4 1.2 1.6 1.3 2.7.2 1.1.7 2.4 1.2 2.9s.4 2-.1 3.4c-.7 1.8-.6 2.8.3 3.4 1 .7 1 1.1.1 1.4-.7.3-.9 1.3-.6 2.2.6 1.4.4 1.5-.9.5-.8-.7-1.7-1-2.1-.7-.3.3-1.4.1-2.4-.6-1.6-1-1.5-1 .6-.4 2.5.7 2.3-.3-.7-3.8-1.8-2.1-.7-4.4 1.4-2.7.9.7 1.4.8 1.4.1 0-.6-.5-1.4-1-1.7-.6-.4-.8-1-.5-1.4.2-.5-.9-2.2-2.5-3.9-1.6-1.7-2.5-3.4-2-3.7 1.7-1 .1-2.3-2.1-1.8-1.5.4-2.2 0-2.6-1.5-.2-1.1-1.4-2.3-2.6-2.6-2.5-.6-3.7.2-1.8 1.3.9.6.5.8-1.3.8-1.4 0-2.6-.4-2.6-.9s.5-.6 1.1-.2c.7.4.9 0 .5-1.4-.7-2.1-.6-2.2 4.4-1 .8.1 1.9.7 2.3 1.3.5.5.6-.3.2-1.8-.4-2.2-.3-2.7.7-2.1.7.4.4-.3-.7-1.5l-1.9-2.2 2.8 1.1c1.5.5 3.3.7 3.8.4.7-.5.9 0 .6 1.4-.5 1.9-.2 2.1 3.7 2 3.5 0 4.2-.4 3.8-1.7-.5-1.9-4.3-4.7-4.3-3.2 0 .6.8 1.5 1.8 2 2.5 1.5.8 1.3-2.2-.2-1.4-.8-2.2-1.8-1.8-2.2.4-.4-.2-.3-1.3.3-1.6.8-2.7.6-5.4-1.1-1.9-1.1-3.1-1.6-2.8-1 1.1 1.7-.2 3.9-2.3 4-1.8.2-1.9 0-.4-1.4 1.4-1.5 1.3-1.8-1.2-4-1.5-1.2-3.1-2.3-3.5-2.3-.5 0-.6-.6-.3-1.4.3-.8-.1-2.7-1-4.3-.8-1.5-1.6-2.1-1.6-1.3 0 1.2-.3 1.1-1.1-.3-.6-1.1-2.2-1.7-4.3-1.7-3.4 0-6.3-2.3-6.2-5 .1-2.1-4.1-6.3-5.6-5.7-.9.4-.8.6.3.6.9.1 1.9 1 2.2 2 .7 2.6-.3 3.4-1.8 1.5-.6-.9-2.6-1.7-4.3-1.7-1.8-.1-3.2-.4-3.2-.7 0-.3-1.6-1.6-3.5-2.9-1.9-1.3-3.2-2.8-2.8-3.5.3-.6.3-.8-.2-.4-.4.4-1.6.3-2.6-.2-1.1-.7-2-.7-2.4 0zm36.9 24c-1.6 1.4-5.4 2.2-5.4 1.1 0-.6.6-1.1 1.3-1.1.8 0 .7-.4-.3-1-1.2-.8-1.1-1 .8-1 1.2 0 2.2-.6 2.2-1.3 0-.6.5-.4 1.1.6.6 1.1.7 2.2.3 2.7zm-1.8 4.6c0 .5.3 1.6.6 2.4 1.5 3.9 1.7 5 .8 5-.6 0-1 1.3-1 2.9 0 2.2-.4 2.8-1.7 2.6-1-.2-2.6-.4-3.5-.4-1.9-.1-2.5-3.1-.7-3.1.8 0 .8-.5-.1-1.5-1-1.2-.9-1.6.5-2.1.9-.4 2.1-.2 2.8.5 1.7 1.7 3.1 1.3 1.7-.4-.9-1-.9-1.5-.1-1.5 2.3 0 1-1.6-2.1-2.5-4.3-1.3-4.7-3.2-.6-3 1.8.1 3.3.6 3.4 1.1zm-16.9 7.1c.2.6-.7.8-2.3.5-1.9-.3-2.2-.7-1.2-1.3 1.5-1 3-.7 3.5.8zm27.7 8.4c-.3.5-1 .7-1.5.3-.5-.3-.7-1-.3-1.5.3-.5 1-.7 1.5-.3.5.3.7 1 .3 1.5zm-11.2.9c-.3 1.1 0 1.1 1.3 0s1.5-1 .9.4c-.8 2.2-3.8 1.6-4.2-.8-.3-1.2.1-1.7 1-1.3.7.2 1.2 1 1 1.7zm16.8 0c0 .5-.4 1-1 1-.5 0-1-.5-1-1 0-.6.5-1 1-1 .6 0 1 .4 1 1zm-3.2 4.5c1.5 1.4 2.2 2.5 1.6 2.5-1 0-5.4-3.7-5.4-4.5 0-1 1.2-.4 3.8 2zm-5.9 1.6c-2.4 2-2.4 2-.1.9 1.2-.6 2.2-.7 2.2-.2 0 1.5-4.1 2.2-5.5.9-1-.9-.8-1.4.9-2.3 3.5-2 5-1.6 2.5.7zM504 588c0 .5-.5 1-1.1 1-.5 0-.7-.5-.4-1 .3-.6.8-1 1.1-1 .2 0 .4.4.4 1zm66 2c0 .5-.2 1-.4 1-.3 0-.8-.5-1.1-1-.3-.6-.1-1 .4-1 .6 0 1.1.4 1.1 1zm-45.6 2.9c2.2 2.4 1.3 6.9-.9 5.1-.8-.6-1.1-1.8-.8-2.6.3-.8-.1-1.4-1.1-1.4-.9 0-1.6-.7-1.6-1.5 0-2.1 2.4-1.9 4.4.4zm44.1 3.1c.3 0 .5-.9.5-2s.7-2 1.5-2 1.5.5 1.5 1.1c0 .5-.4.7-1 .4-.5-.3-1 .1-1 .9 0 1 .9 1.6 2.2 1.6 1.2 0 1.8.3 1.4.7-.4.5-1.3.8-1.8.8-.6 0-1.3.6-1.6 1.3-.2.8.2 1 1.5.6 1.7-.6 1.7-.6.2 1.1-1.3 1.3-2.1 1.5-3.7.6-1.7-.9-2.3-.7-3.6 1.3-1.2 1.9-1.3 2.6-.3 3.5.8.6 1.8.6 2.7.1.8-.5 1.9-.6 2.5-.4.5.3.1-.2-1-1-1.8-1.6-1.8-1.6 1-1.3 3.4.4 7.9 2.6 7.1 3.4-.3.4-1.4-.1-2.5-1.1-1.7-1.5-1.9-1.5-2.5-.1-.3.9-.2 1.3.4 1 .6-.3 1-.2 1 .3 0 .6-1.1 1.3-2.4 1.6-1.3.3-3.2.9-4.3 1.3-1 .3-1.5.3-1.1-.2.4-.4-.4-1.8-1.7-3.1-3-2.7-3.1-3.4-.7-3.5 1 0 1.2-.3.5-.6-1-.3-.9-.9.3-2.1 1.3-1.2 1.3-1.7.4-2-.7-.3-2.1-1.3-3.1-2.3-1.4-1.4-1.5-1.9-.5-1.9.8 0 1.7-.8 2.1-1.8.6-1.5.9-1.4 3 1 1.3 1.6 2.7 2.8 3 2.8zm-39 1c-.3.5-1.1 1-1.6 1-.6 0-.7-.5-.4-1 .3-.6 1.1-1 1.6-1 .6 0 .7.4.4 1zm12.4 8.2c-1.1.7-1.1 1.1-.1 1.5 1.8.7 1.5 3.4-.3 2.7-.8-.4-1.3-1-1-1.4.2-.4-.4-1.5-1.5-2.5-2.5-2.2-.7-3.9 2.3-2.3 1.6.8 1.7 1.2.6 2zm6.1 5.9c0 1.9-2.1 5-3.1 4.4-.6-.4-.5-1.3.1-2.4.5-1 .6-2.1.3-2.5-.3-.3.1-.6 1-.6 1 0 1.7.5 1.7 1.1zm23 .1c0 .4-.4.8-.9.8-.6 0-1.2-.4-1.5-.8-.3-.5.1-.9.9-.9s1.5.4 1.5.9zm4 5.9c0 .5-.3.8-.7.8-.5-.1-1.7-.1-2.7 0-1.8.1-1.8.2-.2 2 1 1.1 1.3 2.1.7 2.5-1.5 1-4.2-3.4-2.9-4.8 1.3-1.3 5.8-1.7 5.8-.5zm-46.3 9.1c-.7.4-1.8.8-2.6.8-1 0-1.1-.3-.2-1.3.6-.8.7-1.7.3-2.2-.4-.4.3-.2 1.5.6 1.6.9 1.9 1.6 1 2.1zm-2 3c1.9-.4 2.4-.1 2.1.9-.3.8-1.8 1.5-3.5 1.6-2.7.1-3-.2-2.5-2 .3-1.2.7-1.7.9-1.1.2.6 1.5.9 3 .6zm38.3 1.3c.9 1.1.9 1.5.1 1.5-.6 0-1.1-.5-1.1-1 0-.7-.6-.7-1.9-.1-1.7 1-3.1.6-3.1-.8s4.9-1 6 .4zm-20.5 4.5c-.9 1.4-6.3.7-5.8-.8.3-.6 0-1.2-.6-1.2-2.4 0-.9-1.9 1.7-2.2 2.8-.3 5.9 2.3 4.7 4.2zm26.5-2c0 .5.7 1.6 1.7 2.5 1.3 1.4 1.4 1.8.3 2.5-1.6 1-3.3.3-2.5-.9.2-.5-.2-1.7-1-2.7-1.9-2.5-1.9-3.5 0-2.8.8.4 1.5 1 1.5 1.4zm-46 0c0 .5-.5 1-1.1 1-.5 0-.7-.5-.4-1 .3-.6.8-1 1.1-1 .2 0 .4.4.4 1zm43.4 2.6c.3.8.2 1.2-.4.9-.6-.3-1-1-1-1.6 0-1.4.7-1.1 1.4.7zm3.4 5.9c.3.3.3.8-.1 1.1-.8.8-4.7-.5-4.7-1.6 0-.9 3.8-.5 4.8.5zm-24.2 3.8c.6 2.1.7 2 2.8-.6 1.5-1.9 2.5-2.4 3.6-1.7 1.2.7.9 1.3-1.3 3.4-4 3.7-6.8 3.7-9.4-.2-1.3-1.8-2.3-3.4-2.3-3.6 0-.1 1.3-.1 3 .2 1.9.3 3.2 1.2 3.6 2.5zm17.4 2.2c0 .8.6 1.5 1.3 1.6.6 0 .3.4-.8.9-2.8 1.2-3.5 1.2-3.5-.1 0-.5.5-.7 1-.4 1.4.9 1.3-1.8-.2-3.3-.6-.6-1.3-1.9-1.4-2.8-.2-1.3.1-1.2 1.7.4 1 1.2 1.9 2.8 1.9 3.7zm-11.9 1.4c-1 1.8-.6 3.1 1.1 3.1.4 0 .7-.3.6-.8-.3-.7.5-1.2 2.3-1.2.5 0 .8.4.5.9-.8 1.2 1.9 3.3 3 2.3.4-.4.2.1-.5 1-.7 1-1.9 1.8-2.6 1.8-.8 0-1.5.6-1.8 1.2-.4 1-.7 1-1.8.1-1.1-1.1-1.5-.8-2.6 1.5l-1.2 2.7.5-2.6c.3-1.5.1-3-.5-3.4-.6-.3-.8-1.1-.5-1.7.5-.7.1-.9-.9-.5-1 .3-1.7.2-1.7-.3 0-.6.7-1 1.5-1 .9 0 2.1-1.1 2.7-2.5.6-1.4 1.5-2.5 2-2.5s.4.8-.1 1.9zm20.5 1.6c.4.8 1.2 1.5 2 1.5s1.4.4 1.4 1c0 .5-.6.7-1.4.4-1-.4-1.4.2-1.2 2 0 1.4.5 2.6 1 2.6.4 0 .6.7.2 1.5-.3.9 0 1.5 1 1.5 1.1 0 1.3.6.9 2-.3 1.1-.3 2 .2 2s.9.8.9 1.7c0 1 .4 3.3.8 5 .5 2.3.4 3.3-.4 3.3-.6 0-.9-.4-.5-.9.3-.5-.2-1.6-1-2.5-1.4-1.4-4-8.7-5-14.1-.1-1.1-.8-3.2-1.3-4.6-.6-1.5-.8-3-.5-3.3 1.1-1 2.3-.7 2.9.9zm-4.1 5.7c1.7-.2 1.7-.1.5.7-1.2.9-1.3 1.1-.1 1.1.8 0 1.2.3.9.6-.4.3-1.6.1-2.7-.6-1.8-.9-2.1-.8-2.1.8 0 1-.6 2.6-1.3 3.6-1.3 1.7-1.4 1.8-2 .2-.4-1-.3-1.5.3-1.1 1.6 1 1.2-1.1-.5-2.5-.8-.6-1.9-.9-2.5-.5-1.9 1.2-1-.7 1.2-2.5 1.8-1.4 2.7-1.6 4.3-.7 1.1.6 2.9 1 4 .9zm-7 9.6c-.2.2-1.3-.2-2.4-1-1.2-.8-1.8-1.7-1.5-2.1.3-.3 1.4.2 2.5 1.1 1 .9 1.7 1.8 1.4 2zm20.2 2.2c0 1.8-.6 3-1.4 3-1.6 0-1.7-1.4-.3-4.1 1.4-2.6 1.7-2.4 1.7 1.1zm-29.2-.5c0 .5-.9 1.1-2.1 1.3-1.3.2-2.1-.3-2.1-1.3s.8-1.5 2.1-1.3c1.2.2 2.1.7 2.1 1.3zm11.6.8c-1.5 1.9-.3 2.9 2 1.6 1.4-.7 1.7-.6 1.3.5-.7 1.9-6.2 2.6-6.9.9-.2-.8 0-1.1.5-.8.6.3 1 0 1-.9 0-1.2 1.1-2.1 2.9-2.5.2-.1-.2.5-.8 1.2zm-20.7 2.8c-.4.7-2.2.7-5.2 0-.2-.1-.1-.5.2-1 .3-.4 1.7-.6 3.1-.4 1.3.3 2.2.9 1.9 1.4zm28.4 2.8c-.7 1.2-1.6 2.1-2.1 2.1-.4 0-.3.9.3 2s1.5 1.8 1.9 1.5c.5-.3 1.1.2 1.5 1 .3.8 1.3 1.5 2.1 1.5.9 0 1.3.5 1 1.1-.4.6-1.2.8-1.9.6-4.1-1.5-5.6-1.7-5.6-.7 0 .6.5.8 1.1.4.7-.4 1-.1.7.7-.3.8-1.1 1.3-1.8 1.1-.9-.2-1.1.6-.6 2.8.5 2.6.3 3.1-1.2 2.8-.9-.2-1.6-1.1-1.4-2.1.1-.9-.5-2.9-1.5-4.4-1.8-2.6-1.8-2.7.2-2 1.9.7 1.9.6.2-.7-1.9-1.5-1.8-5.7.1-6.4.7-.2.9-.9.6-1.5-.5-.9-.3-.8.6 0 1 .9 1.8.8 3.8-.8 3-2.3 3.8-1.9 2 1zm-12.9 4.2c-.8.5-.9.9-.3.9.6 0 1.1.7 1.1 1.5 0 2.2-2 1.3-2.3-1-.4-2.4.4-3.7 1.8-2.9.6.4.5 1-.3 1.5zm-13.6.8c.3 1.5.1 1.8-1.2 1.4-1.4-.4-1.4-.3-.1.9.8.7 2 2.3 2.7 3.5 1 1.8 1 2-.8 1.6-1.1-.3-2.2-1-2.6-1.6-.3-.6-.1-.7.5-.3.7.4 1.2.3 1.2-.1 0-1.8-2.5-3.3-5.2-3.3-1.5 0-2.8-.5-2.8-1 0-1 2.1-1.4 4.8-1.1.6.1 1.2-.3 1.2-.9 0-1.8 1.7-1.1 2.3.9zm-10.6 1.8c.3.7-.4.9-1.6.6-1.2-.3-1.8-.9-1.5-1.5.7-1.1 2.6-.6 3.1.9zm42.8 4.3c.3.5-.1 1-1 1s-1.3-.5-1-1c.3-.6.8-1 1-1 .2 0 .7.4 1 1zm-5 3c.3.5-.3 1-1.4 1-1.2 0-2.1-.5-2.1-1 0-.6.6-1 1.4-1 .8 0 1.8.4 2.1 1zm9.7 1.7c0 1 .2 2.5.3 3.3.1.8-.3 2.1-.8 2.8-.6.8-.6 1.2.2 1.2.6 0 1.1.4 1.1 1 0 .5-.7 1-1.6 1-1.2 0-1.5-.7-1.2-2.8.2-1.6-.2-3.4-.9-4.1-1-.9-1.1-1.5-.1-2.6 1.7-1.9 2.8-1.8 3 .2z"/><path d="M540.5 632.9c-.2.5.4 1.1 1.5 1.4 1.1.3 2 .2 2-.3 0-1.2-2.8-2.1-3.5-1.1zm21.5 24c0 .5.9.7 2 .4 1.1-.3 2-.7 2-.9 0-.2-.9-.4-2-.4s-2 .4-2 .9zm3 19.5c0 .2.8 1 1.8 1.7 1.5 1.3 1.6 1.2.3-.4s-2.1-2.1-2.1-1.3zM99 539c0 .5.5 1 1.1 1 .5 0 .7-.5.4-1-.3-.6-.8-1-1.1-1-.2 0-.4.4-.4 1zm6 1c1.3 2.4 2.5 2.7 1.6.4-.5-1.2-.1-1.4 1.5-.9 1.5.5 1.9.4 1.5-.4-.4-.6-1.8-1.1-3.2-1.1-2.2 0-2.3.3-1.4 2zm385.7-1.3c-.4.3-.7 1.3-.7 2.2.1 1.3.2 1.3 1.1-.2.7-1.2 1.7-1.6 3.2-1.2 1.7.5 1.9.4.7-.4-1.7-1.2-3.4-1.4-4.3-.4zm-431.3 1.4c-.3.5-.1.9.5.9s.8.7.5 1.5c-.4 1.1-.2 1.3.9.9 2.4-.9 2.8-3.1.6-3.7-1-.3-2.2-.1-2.5.4zm29 4.1c.3 2 2.5 5.5 2.6 4 0-.6.5-1.1 1.1-1 1.9.5 2.1-1.9.2-2.6-1-.3-2.3-.9-3-1.2-.6-.3-1 .1-.9.8zm69.5 0c-.7 1.5-.6 5.8.2 5.8s1.3-1.5 1-3.3c0-.4.4-.7 1-.7.5 0 .7-.5.4-1-.6-.9-2.3-1.4-2.6-.8zM70 546.7c0 .7-.8 1.6-1.7 2.2-1 .5-1.4 1.3-1 1.7.5.5 1.2.2 1.7-.6.6-.8 1-1.1 1-.6 0 .5.7.2 1.7-.5.9-.8 1.9-1.2 2.2-.9.3.3.7-.2.9-1 .2-1-.6-1.5-2.3-1.5-1.4 0-2.5.5-2.5 1.2zm82.9-1c-.1.4-.1 1.1 0 1.5 0 .5-.4.8-1.1.8-.6 0-.8.3-.5.6.5.5-1.2 3.7-4 7.3-.7.9-3.2-2.2-2.6-3.3.4-.6-.2-.4-1.2.4-1.7 1.4-1.8 1.4-.6-.8.7-1.2 1.7-2 2.2-1.6.6.4.5-.4-.2-1.7l-1.2-2.4-1.5 3.5c-.8 1.9-1.9 3.8-2.5 4.2-.7.4-.5 1.2.5 2.2 1.4 1.3 1.7 1.4 2.2.1.3-.8 1-1.5 1.6-1.5.6 0 .8.4.5 1-.3.5-.1 1 .5 1s.8.5.5 1c-.4.6-1.1.7-1.7.4-.6-.4-.8.1-.6 1.1.5 2.9 2.7 2.9 3.8.1.5-1.4 1.4-2.6 2-2.6.5 0 1-.9 1-2s.7-2 1.5-2 1.5-.5 1.5-1.2c0-.6.6-1.9 1.4-2.7 1.2-1.4 1.2-1.8 0-2.9-.8-.7-1.5-.9-1.5-.5zm-94.6 1.5c-1.4 1.8-3.3 7.8-2.5 7.8.4-.1 1.7-.6 2.9-1.3 1.6-.9 2-1.6 1.3-2.7-.5-.8-.5-2.1.1-3.2 1.1-2.1-.3-2.5-1.8-.6zM82 547c0 .6.8 1 1.7.8 1.2-.2 2.1.8 3 3.2.6 1.9 1.2 2.9 1.2 2.2.1-.6.6-1.2 1.3-1.2.6 0 .3.8-.7 2-1.7 1.9-1.7 2 0 2.6 1.1.5 2.1.1 2.7-1 .5-.9 1.3-1.4 1.9-1.1.5.4.9.1.9-.5 0-.5-1.6-1.8-3.5-2.7-2-.9-3.4-2.2-3.1-2.9.3-.7-.2-1.5-1-1.8-2.4-.9-4.4-.7-4.4.4zm374.5 1c.2 1.3 1.4 2.9 2.5 3.7 1.1.8 1.8 1.9 1.5 2.4-.3.5.1.6.9.3.9-.3 1.6-1.1 1.6-1.7 0-.6-.3-.8-.6-.4-.7.7-3.4-1.7-3.4-3.1 0-.5-.7-1.5-1.5-2.2-1.2-1-1.3-.8-1 1zm-362.4-.1c-1 .6-1.1 1.4-.3 2.6.9 1.7 1 1.6 1.7-.4.8-2.7.4-3.3-1.4-2.2z"/><path d="M83.6 549.5c-.3.8-1 1.5-1.6 1.5-.6 0-.8-.5-.5-1 .4-.6-.8-1-2.9-1-3.3 0-3.5.2-3.3 2.9.1 1.6.6 2.6 1.2 2.3.6-.4 1.7-.7 2.5-.9 2.6-.4 6-2.6 6-4 0-1.7-.6-1.7-1.4.2zm428.5.7c0 1.6.2 2.9.7 2.9 6.2 1.2 9.3-.3 3.2-1.6-1.6-.3-3.1-1.4-3.3-2.3-.3-1-.5-.5-.6 1zM154.5 552c.3.5 1 1 1.6 1 .5 0 .9-.5.9-1 0-.6-.7-1-1.6-1-.8 0-1.2.4-.9 1zm-70.8.7c-.4.3-.7 1.1-.7 1.7 0 .6.5.5 1.2-.2.6-.6.9-1.4.7-1.7-.3-.3-.9-.2-1.2.2zm77.3.8c-.7.8-.9 2.2-.6 3.1.6 1.6-1.7 4.8-2.8 3.7-.3-.4-.6-1.4-.6-2.4s-.5-2.1-1-2.4c-1.1-.7-4.2 1.9-3.4 2.8.3.3 0 .8-.7 1.3-.8.4-1 .3-.5-.4.5-.8 0-1.2-1.3-1.2-2.5 0-2.6 1.5-.6 5.3 1.3 2.5 1.2 3-.4 4.6-1.4 1.4-1.6 2.2-.8 3 .8.8.7 1.1-.2 1.1-.8 0-1.1.6-.7 1.6.3.8.2 1.2-.4.9-.9-.5-1.5 1.5-1.1 3.7 0 .4-.6.5-1.3.2-1.3-.5-3.3 3-2.8 4.9.1.4-.4 1-1.2 1.3-1.2.5-1.1.9.5 2.5 2.5 2.5 2.9 2.4 2.3-.6-.3-1.8 0-2.5 1.1-2.5.8 0 1.5-.7 1.5-1.5s.9-1.5 2-1.5c1.6 0 2 .7 2 3.5 0 3.6-1.5 4.6-3.8 2.3-.7-.7-1.2-1-1.3-.8-.5 3.1-.4 5 .4 5 .6 0 .2 1-.9 2.2-1.8 2-1.8 2.1-.1 1.5 1.1-.4 1.6-.3 1.2.4-.4.6.2 1.3 1.3 1.6 1.8.4 1.9.8.9 2.4-1.6 2.5-2.9 2.4-2.5-.3.2-1.1-.3-2.3-1.1-2.6-1-.3-1.2.1-.8 1.9.4 1.3.7 3 .7 3.8 0 .8.6 1.1 1.6.7 1.4-.5 1.5 0 1 3.1-.4 2.5-.3 3.1.3 1.8l.8-2 .5 2c.5 1.8.6 1.8.7-.3 0-1.3.6-2 1.1-1.7.6.3 1-.2 1-1.2 0-1.5.2-1.6 1-.3.5.8.7 2.3.4 3.2-.3 1-.1 1.8.5 1.8s1.1-1 1.1-2.2c0-1.2.3-1.8.8-1.4.4.4.7 1.1.7 1.4 0 2 2.9 7.1 3.6 6.6.5-.3.9.3 1 1.3 0 1 .3 1.3.5.7.3-.8 2.1-.8 5.7-.2 7 1.2 14.9 1 16.3-.4.3-.4 1.2-.4 1.9-.2.7.3 1.6.1 1.9-.5.4-.6 1.3-.8 2.1-.4 1 .3 1.5-.1 1.5-1.3 0-1.5.2-1.6.9-.5.5.7 1.4 1 2 .7 1.4-.9-.3-4.5-3.1-6.4-1-.7-1.6-1.8-1.3-2.3.4-.5.1-.9-.6-.9-1.6 0-13.4-10.2-17.9-15.4-1.9-2.2-5.6-6.3-8.2-9.1l-4.8-5-.1 4.8c-.2 8.3-.4 9-1.7 9.5-.6.2-1 .8-.6 1.3.3.5 0 .9-.5.9-.6 0-1.1-.5-1.1-1.1 0-.5-.4-.7-1-.4-.6.4-1-.5-1-1.9 0-1.6.6-2.6 1.5-2.6.8 0 1.5-.8 1.5-1.8 0-1.4-.2-1.5-1-.2-.5.8-1.2 1.2-1.5.8-.3-.3 0-1.2.8-1.9 1.5-1.6 2.9-4.6 3.2-7.1.2-2.1 1.5-3.7 1.5-1.9 0 .7.4 1 .9.6.6-.3 1.4.1 1.8 1 .5.8 2.9 2.8 5.4 4.4 2.6 1.6 6.1 5.1 7.9 8 3.3 5.1 4.7 6.5 3.6 3.5-.3-.8-.2-1.2.4-.9.6.3 1 1.1 1 1.6 0 1.6 3.8 5.2 4.8 4.5.6-.3 1.9.5 3.1 1.9 1.1 1.5 2.2 2.5 2.5 2.3.3-.2 1.3.7 2.1 1.9.9 1.3 2.5 2.3 3.6 2.3 1 0 1.9.7 1.9 1.5 0 .9.6 1.2 1.5.9 1-.4 1.5 0 1.5 1.1 0 .9.4 1.3 1 1 .5-.3 1.7.3 2.7 1.5 1.8 2 6 2.6 9.6 1.2 1.4-.6.5-1.5-4.5-4.7-6.8-4.3-21.8-16.2-21.8-17.2 0-.4 1 .3 2.3 1.5 1.9 1.8 2.6 1.9 3.7.9 1-1 1.2-.9.7.5-.4 1.2.1 2.1 1.3 2.8 1.7.9 1.9.8 1.3-.7-.6-1.6-.5-1.6 1.1-.4.9.8 1.5 2 1.2 2.7-.3.7.2 1.8 1.1 2.6 1.4 1.1 1.5 1 1-1.2-.6-2-.4-1.9.8.5.8 1.6 1.4 2.5 1.5 2 0-.6.5-.2 1.1.8.6.9 1.4 1.5 2 1.2.5-.4.9 0 .9.7 0 .9.3.9 1-.2.8-1.2 1-1 1 .8 0 1.9.4 2.2 2.2 1.7 1.6-.6 2-.4 1.5.8-.3.9.1 1.8.9 2.1 2.2.8 2.6.7 1.9-.4-.3-.6-.1-1 .4-1 .6 0 1.1.8 1.1 1.7 0 1.3.3 1.4 1.2.5.8-.8 1.7-.8 3-.1 1.1.6 2.3.7 2.6.3.4-.4.1-.9-.6-1.1-.7-.3-1.9-1.1-2.7-1.9-.8-.8-1.6-1.4-1.7-1.3-.7.3-7.8-4.4-7.8-5.2 0-.5-.6-.9-1.4-.9-.7 0-2.5-1.1-4-2.5s-3.1-2.5-3.6-2.5-1.4-.8-1.9-1.8c-.6-.9-1.1-1.4-1.1-1 0 1.3-23-20.3-23-21.6 0-.4-.9-1.6-2-2.8-1-1.1-2.7-3.7-3.6-5.6-1.3-2.8-5.9-8.2-6.9-8.2-.2 0-.8.7-1.5 1.5zm-4.5 8.5c-.5.8-1.1.8-1.7.2-.6-.6-.7-1.6-.3-2.2.5-.8 1.1-.8 1.7-.2.6.6.7 1.6.3 2.2zm.2 6.2c.2 1.7 0 1.9-.7.8-.5-.8-.6-1.8-.4-2.2.8-1.2 1-1 1.1 1.4zm-5.3 9.2c-.3.9-1 1.3-1.5 1-.5-.3-.9 0-.9.5 0 .6-.4 1.1-1 1.1-1.9 0-1-2.7 1.3-3.7 2.6-1.3 2.9-1.1 2.1 1.1zM499 555c0 .5.4 1 1 1 .5 0 .7.6.4 1.4-.4 1.1 0 1.3 1.5.9 2.5-.6 2.5-.7.5-2.7-1.8-1.8-3.4-2.1-3.4-.6zm-417.5 2.1c-.4.6-.5 1.1-.4 1.2.2.1 1.3.7 2.4 1.3 3.1 1.7 5 .6 2.9-1.7-1.4-1.5-2-1.7-3.2-.6-1.3.9-1.4.9-.8-.1.4-.6.5-1.2.2-1.2s-.8.5-1.1 1.1zm435.2.1c.4.7.8 1.6.8 2 0 .5.3.8.8.8h1.7c1.6 0 1.1-2.7-.6-3.4-2.5-1-3.6-.7-2.7.6zm-46.9 2.1c-.4 2-.1 2.3 2.4 1.9 2.9-.4 2.9-1.5-.1-3.2-1.5-.8-2-.5-2.3 1.3zm-415.8.9c0 .4-.5.7-1.1.5-.6-.1-1.4.4-1.6 1-.6 1.5 1.3 1.7 2.2.3.3-.6 1.5-1 2.6-1 1 0 1.9-.4 1.9-.8s-.9-.8-2-.8-2 .4-2 .8zm15 .3c-.7.8-2.2 1.5-3.3 1.5-1.6 0-1.8.3-.9 1.2.8.8 1.5.8 2.4.1.7-.6 2.1-1.2 3-1.4 1.2-.3 1.5-.8.9-1.7-.6-1-1-1-2.1.3zm457.2.3c.2 1-.3 1.6-1 1.4-.8-.1-1.1.2-.7.8.5.8 1.1.8 2 0 .9-.7 1.6-.6 2.5.5 1.7 2 2.9 1.9 2.4-.3-.3-.9-1.6-2.2-3-2.9-2.1-1-2.4-.9-2.2.5z"/><path d="M61 562c-.8.5-1.8.6-2.3.3-.4-.3-1.1.4-1.4 1.6-.3 1.1-.9 1.9-1.3 1.6-.5-.3-1.2 0-1.6.6-.4.7-.3.9.4.5.6-.3 1.3-.2 1.7.4.3.5 1.3 1 2.2 1 1.3 0 1.3-.3.3-1.5-.7-.9-1-1.8-.6-2.2.7-.7 4.6 2.5 4.6 3.9 0 1.6-4.1 4.9-5.3 4.2-.7-.4-.3.2.7 1.4 1.1 1.2 1.5 2.2 1 2.3-.5 0 .4.5 2.1 1 4.2 1.2 5.4-.4 3.2-4.1-1.8-3-1.4-5.4 1.1-5.6 3.8-.3 4.3-.5 3.6-1.5-.4-.7-1-.7-1.6-.1-.6.6-2 .4-4-.5-2.2-1.2-2.7-1.8-1.7-2.4.7-.4 1.1-1 .8-1.3-.2-.3-1.1-.1-1.9.4zm15.6.7c-1.3 1.4-.5 2.2 2.7 2.5l3.2.4-2.5 1.1c-1.4.7-1.8 1.2-1 1.3.8 0 2.4.3 3.5.6s2.8-.1 3.9-.9c1.8-1.3 1.8-1.4 0-3.5-1.1-1.4-2.2-1.8-2.9-1.2-1.2 1-3.3.9-5.1-.3-.6-.3-1.4-.4-1.8 0zm63 .1c-.4.7-.2 1.2.4 1.2.6 0 .9.4.6.8-.2.4.4.8 1.4.9 1.3.1 1.7-.3 1.3-1.3-.3-.7-.9-1.2-1.3-.9-.5.3-1 0-1.2-.7-.3-.9-.6-.9-1.2 0zm402.3 3.5c.5.5.7 1.5.5 2.2-.3.7.3 1.5 1.4 1.7 1.8.5 2.1-.3 1.3-4.4 0-.4-1-.6-2.1-.5-1.2.1-1.6.5-1.1 1z"/><path d="M72.3 568c-.3 1.1-1 2-1.5 2s-.6.5-.2 1.2c.5.7.3.8-.7.3-1.8-1.2-4.9-1.4-4.9-.4 0 .4.6 1.4 1.3 2.1.6.7 1.2 2.5 1.1 4-.1 2.3.2 2.6 1.3 1.7 1.1-.9 1.2-.8.7.5-.3.9-1 1.6-1.4 1.6-.4 0-1 .8-1.2 1.8-.6 2-5.8 2.9-6.8 1.1-.5-.7-.9-.5-1.3.5-.4.9-.2 1.6.4 1.6.6 0 .7.5.3 1.1-.5.9.1 1 2 .5 1.5-.4 2.6-.2 2.6.4 0 .5-.4 1-1 1-.5 0-1 .4-1 .9s1 .7 2.2.3c1.4-.3 1.9-.2 1.4.7-.4.6-1.2.9-1.7.6-.5-.3-.6 0-.4.8.4.9 1.6 1.2 3.5.9 3.7-.5 4.1 1.8.9 5.1-1.2 1.2-1.9 1.6-1.4.9.4-.8-.1-2.1-1.4-3.3-2.6-2.4-3.1-2.4-3.1.3-.1 2.1-.1 2.2-1.1.5-.8-1.4-.7-2.1.6-3.1 1.5-1.1 1.5-1.3.1-2.5-1.3-1.1-1.6-.9-2.1 1.2-.4 1.3-.6 3.1-.5 3.8.4 2.7 0 4-1 3.4-1.5-.9-4.3 2.3-3.6 4 .5 1.4-.3 1.9-2.1 1.2-.5-.1-.7-1.1-.7-2.2.1-1.1-.2-2.3-.7-2.6-.5-.3-.2-1.4.7-2.5.8-1 1.3-1.4 1-.7-.4.6-.2 1.4.4 1.8.5.3 1 0 1-.9 0-.8.6-1.7 1.3-1.9.6-.3.3-.6-.8-.6-2.5-.1-4 .9-4.8 3.1-1.1 2.9-2.8 2.1-2.1-1 .9-4 3.2-7.2 5.1-7.2.9 0 1.3-.3 1-.6-.3-.4-.2-1.6.4-2.8.9-1.9.9-2-.4-.3-1.7 2.1-4.7 1.3-4.7-1.3 0-1.3.5-1.7 2-1.3 1.2.3 2 0 2-.6 0-.7.4-1 .9-.7.5.4.7-.3.4-1.4-.3-1.1 0-2 .6-2s1.1.5 1.1 1.2c0 .6.3.8.6.5.4-.3 1.5-.2 2.5.4 1.5.7 1.9.6 1.9-.6 0-.9-1-1.6-2.7-1.7-1.6 0-3.4-.2-4.1-.2-.7-.1-1.7-.8-2.2-1.6-.8-1.2-1-1.3-1-.1 0 .8-.3 1.2-.6.8-.3-.3-.2-1.3.4-2.3.6-1.1 1.1-1.3 1.6-.5.4.6 1.2 1.1 1.8 1.1.7 0 .6-.6-.2-1.5-1.8-2.2-3.5-1.8-5 1-.7 1.3-1.7 2.2-2.1 1.9-1.4-.8-2.1 1.7-.9 3.1 1.2 1.5 1.1 1.6-1.2 1.9-1.6.1-2 5-.7 7.9.8 1.9.9 1.8.4-.8-.4-2.6-.4-2.7.6-1.1.8 1.4 1.3 1.5 1.9.6.4-.7 1.3-.9 1.9-.6 1.9 1.2-.6 4.4-4.1 5.2-1.8.4-2.8.9-2.1 1.1.7.2.9 1.1.6 1.9-.3.9.1 1.4 1.3 1.4 1.4 0 1.5.3.6 1.2-.8.8-1.5.8-2.7-.2-1.2-1-1.5-1-1.5.5 0 1.6-.1 1.6-2.6 0-2.2-1.4-2.8-1.5-3.5-.4-1.3 2-1.1 2.9.5 2.3.8-.3 1.7 0 2.2.7.4.7.3 1-.4.5-1.2-.7-3.6 3-2.7 4.4.3.5.2 1.1-.3 1.4-1.2.7-1.3 6.4-.1 7.1.7.5.6 1.2-.4 2.3-1.9 2.2-2.8 6-1.6 6.8.5.3.7 1 .4 1.5-.4.5-.1.9.4.9.6 0 1.1-.5 1.1-1.2 0-.6.3-.8.7-.4.5.4 0 1.4-1 2.1-1.7 1.2-1.5 1.3 1.6 1.1 2.6-.2 4.2.3 6.1 2 3 2.9 3.6 3 3.7.6 0-1 .3-1.2.6-.5.3 1 .8 1 1.9-.1 1.7-1.8 1.8-2.7.1-2-.7.2-1.3-.4-1.4-1.6-.2-1.9-.1-1.9 1.8-.1 2.2 2 5.4 1.8 6.3-.5.3-.7-.2-1.8-1.1-2.3-1.4-.8-1.5-1.3-.5-3.5.6-1.4 1.6-2.6 2.2-2.6.5 0 1-.7 1-1.5 0-1 1-1.5 3.2-1.5h3.1l-2.3 2.5c-1.3 1.4-3 2.3-3.6 2.1-1.8-.7-2.4 1.7-.9 3.7 1.1 1.5 1.5 1.3 4-1.8 2.6-3.3 2.8-3.4 4.1-1.8 1.6 2.1 1.8 5.3.4 5.3-.6 0-.9-.3-.9-.8.3-1.8-.2-3.2-1.2-3.2-.5 0-.7.5-.4 1 .4.6.2 1.7-.4 2.4-.6.7-1.2 2.9-1.3 4.9-.2 2.2-.8 3.7-1.5 3.7s-1.3-.5-1.3-1c0-.6-.5-1-1.1-1-.5 0-.8.4-.4.9.5.9-2.6 2.4-4.9 2.6-.5 0-1.1.5-1.3 1.1-.5 1.5 3.1 2.4 4.8 1.3 1.6-1 4.1.9 3.2 2.4-.4.6-.9.3-1.4-.9-.7-1.7-.8-1.7-.8.3-.1 1.7.5 2.3 2.2 2.3 1.8 0 1.9.2.7 1-1 .6-1.1 1-.2 1 .6 0 1.2 1.1 1.2 2.5 0 2.1-.3 2.4-1.7 1.7-2.1-1.1-6.1.1-6.9 2.1-.5 1.4-6.4 1.1-6.4-.4 0-1.4 2.4-2.3 2.8-1.1.5 1.6 2.2.5 1.8-1.1-.1-.7-.1-.9.1-.4.9 1.5 2.3-.5 1.4-2.1-.4-.9-1.1-3.4-1.5-5.4-.4-2.1-1.2-4-1.8-4.4-.6-.4-.8-.3-.5.3.4.6-.5 1-2.2.9-1.9-.1-2.8-.6-2.6-1.6.1-.8-.3-2-.9-2.6-1.3-1.3-4.6-1.4-4.6-.2 0 .5-.4.6-1 .3-.5-.3-1.8-.1-2.7.4-1 .6-1.2 1.1-.5 1.1 1.2 0 1.1 5.8-.3 8-1.1 1.8 1.3 1.1 2.7-.8.7-1.1 2.3-1.8 3.6-1.7 1.2.1 2.2-.3 2.2-.9 0-.6.7-.3 1.4.6 1.4 1.8 3.2 2.5 2.1.9-.3-.5 0-1.3.6-1.7.8-.5.9-.3.4.6-.5.9-.2 1 1.4.5 1.1-.3 2.1-.4 2.1-.1 0 1.1-3.8 4.4-4.4 3.8-.4-.3-1.2-.7-1.9-.8-.7-.2-2.3-.6-3.6-1-1.6-.5-2.2-.4-1.7.4.3.6-.6 2-2 3.1-2.9 2.3-2.7 3.9.3 2.3 1-.5 2.3-.7 2.9-.5.6.2 1.4-.5 1.7-1.7.6-2.5 3.7-1.6 3.7 1.1 0 1.4-.7 1.9-3 1.9-2.8 0-3 .2-2.4 2.6.5 2.1.3 2.5-1.2 2.2-1.4-.2-1.8.4-2 2.9-.1 1.8.2 3.3.7 3.3 1.8 0 2.4-.5 2.4-1.9 0-2.9 2.2-2.1 2.3.9.1 2.9-.9 3.6-4.3 3.1-.5-.1-.1.5.9 1.4 1.5 1.1 2.3 1.2 3.3.3 1.1-.8 1.2-.7.7.6-.4.9-.1 1.6.6 1.6s1 .6.7 1.3c-.3.8 0 1.4.7 1.4.8 0 1-1.1.8-2.9-.3-2 0-2.8 1.1-2.8 2.3 0 1.5 4.5-1.3 7.5-1.3 1.4-2 2.8-1.6 3.2.4.4 1.2 0 1.8-1 .9-1.7 1.2-1.7 3.3-.3 1.3.9 3.2 1.3 4.2 1 1.7-.5 1.7-.5.1.9-2.2 1.7-2.3 3.1-.3 2.3.8-.3 1.5-.1 1.5.4 0 .6-.5 1-1.1 1-1.1 0-4.8 4-4.9 5.2 0 1.8 1.8.6 2.8-1.7.7-1.4 1.8-2.5 2.4-2.4 3.4.4 5.9-.2 5.5-1.4-.2-.6-1.1-1.1-1.8-.9-1 .1-.9-.2.3-1.1 2-1.6.6-4.9-1.7-4.1-.8.4-1.5.1-1.5-.6 0-.6-.4-.9-.9-.6-.5.3-.9-.6-.8-1.9 0-1.4.3-2.5.7-2.5.3 0 .7-.7.7-1.4 0-1.1-.5-1.2-1.8-.5-2.3 1.2-2.9 1.1-2.9-.1 0-.6.6-1 1.4-1 1.1 0 1.3-1.1 1.1-4-.2-2.2.1-4 .6-4s.9.3.9.7c.1 1.6 4 5.4 5 4.8.6-.4.5-1.1-.3-1.9-.6-.8-1.6-1.1-2.1-.8-.5.3-.6 0-.2-.7.6-.9 1.2-.9 2.4.1 1.8 1.4 3.6 4 3.5 4.8-.1.3.3 1 .8 1.7.7.8.5 1-1 .6-1.2-.3-2.1-1-2.1-1.5 0-.6-.6-.5-1.5.2-1.5 1.3-1 3.5.6 2.5 2.1-1.3 4.7.7 5.3 4 .5 2.4 1.3 3.5 2.4 3.5 1.6.1 1.6.1 0 1.1-1.4.8-2.7 4.9-1.5 4.9.1 0 1.6-.4 3.4-.9 2.5-.7 3.1-.6 2.7.4-.3.8-1.2 1.1-1.9.9-.7-.3-1.6 0-2 .6-1 1.6-3.5-.7-3.5-3.1 0-1.1-.7-1.9-1.6-1.9-1.1 0-1.4.5-1 1.6.3.8 0 2.2-.8 3-.8.7-1.6 1.9-1.9 2.6-.3 1-.9 1-2.7 0-2.3-1.4-3.6-1-2.5.7.3.6 1.1.9 1.6.6 1.5-1 1 1.5-.7 3.2-1.4 1.4-1.4 1.7-.1 2.5 1.8 1 4.9 0 4.1-1.3-.3-.5 0-.9.5-.9 1.4 0 1.4 1.7 0 2.5-.6.5-.4 1.1.7 1.9 1.2.9 1.4 1.5.6 2-.7.4-1.6.5-2.1.2s-1.4.1-2.1.9c-1.8 2.1 1.4 5.5 5.1 5.5 1.5 0 3.1.4 3.4 1 .3.5 1.6 1 2.8 1 1.6 0 1.8-.3.9-.9-1.1-.7-1.1-.9.2-1.4.9-.4 1.6-1.1 1.6-1.7 0-.6-.5-.8-1-.5-.5.3-1 .2-1-.4 0-.5.9-.9 2-.8 1.1.1 2 .7 2 1.4s.7 1.3 1.5 1.3 1.5.5 1.5 1.1c0 .7-1 .9-2.5.5-1.4-.4-2.5-.2-2.5.4 0 1.4 6.3 1.3 7.8-.2.8-.8 1.5-.8 2.6.1 1.5 1.3 8.8 1.2 8-.1-.3-.5-1.1-.5-1.7-.2-.8.5-.8.3.1-.7 1.4-1.6 1.6-3.3.2-2.4-.5.3-1 .2-1-.4 0-.6-1.2-.8-3.1-.4-2.7.5-3.1.3-2.7-1.3.2-1.1 1.3-2 2.6-2.2 1.6-.3 2.2-1 2.2-2.8 0-1.8.4-2.3 1.3-1.8.7.5.7.1-.3-1.2-.8-1-1-1.6-.6-1.2.5.5 1.6-.1 2.4-1.3.8-1.1 2-1.8 2.8-1.5.8.3 1.4-.1 1.4-1 0-.8-.4-1.2-1-.9-.6.3-1-.2-1.1-1.2 0-1.6-.1-1.6-1 .2-.7 1.5-.8 1.3-.3-1.2.4-2.4 0-3.7-1.5-5.2-1.2-1.2-2.1-2.6-2.1-3.2 0-.6-.7-.9-1.6-.7-1.2.2-1.7 1.6-1.9 4.6-.1 2.3.1 4.5.6 4.8 1.4.8 1 2.4-.6 2.4-.8 0-1.5.5-1.5 1.1 0 .5.4.8.9.5.5-.3 1.4.8 2 2.6 1 2.7.8 3.4-.9 5-2.2 2.1-5.2 2.6-3.2.6 1.6-1.6 1.5-3.1-.2-2.5-.7.3-1.8.1-2.4-.5-.8-.8-.9-.5-.5 1.1.3 1.2.1 2.1-.6 2.1-.6 0-1.1-.4-1.1-.8 0-.9-4.1-.8-5.7.1-.6.4-2.3.6-3.7.5-2.7-.2-3.1-1.6-1.7-5.2.7-1.8.8-1.8 1.4-.3.3.9.2 1.7-.3 1.7-.6 0-1 .4-1 1 0 1.7 2.8-.1 3.3-2.1.3-1.3 1.4-1.9 3.1-1.9 1.4 0 2.6-.5 2.6-1.1 0-.6-.7-.9-1.4-.6-1 .4-1.3.1-.9-.9.3-.7 1.1-1.4 1.8-1.4 2 0 3-4.1 1.4-5.1-1.1-.8-1-1.2.5-2.4 1.4-1.1 2.3-1.2 3.3-.4 1 .9 1.3.8 1.3-.5 0-.9-1.1-2.1-2.5-2.6-3.3-1.3-3.2-1.5.7-1.4 1.9.1 3.8-.6 4.5-1.5 1.1-1.4 1.2-1.4 1.3.1 0 4.2 3 .9 3-3.4 0-1.8-.1-1.8-1.6-.4-1.9 2-7.4 2.1-10 .1-1.7-1.3-1.7-1.4-.2-1.5.9 0 2 .4 2.3 1 1 1.7 3.5 1.1 3.5-.8 0-1.3-.2-1.4-.9-.4-.6 1.1-.9.9-1.3-.6-.4-1.4-.2-1.9.8-1.5 2.1.8 3.1-4.7 1-5.9-.9-.5-1.4-1.4-1-1.9.3-.6-.5-1.3-1.7-1.7l-2.4-.6 2.5-.6c1.8-.4 2.5-1.3 2.4-2.9-.1-1.7.4-2.1 1.8-1.8 1.1.3 1.8 0 1.8-.9 0-.8-.6-1.4-1.2-1.4-.8-.1-.5-.6.6-1.5 1.9-1.5 1.4-3.5-1-3.5-.8 0-1.4.8-1.5 1.7 0 1-.3 1.3-.5.6-.3-.7 0-2.2.6-3.3 1.1-2 1-2.1-1.2-1.5-2.1.5-2.1.5-.6-.8 1.5-1.2 1.6-2 .7-5.2-.8-2.8-1.3-3.4-1.9-2.4-.7 1-1.2 1.1-2 .3s-.6-1.3 1-1.7c1.4-.3 2.3 0 2.7 1 .5 1.2.7 1.2 1.4.2.4-.7.3-1.9-.3-2.6-.8-1-.6-1.3.6-1.3 1.9 0 2.1-1.1.4-2.8-1-1-1-1.5.1-2.1.9-.6 1-1.1.3-1.5-1.2-.7-.4-3.7 1.2-4.8.7-.5.7-.8-.2-.8-.7 0-1.1-.4-.7-.9.3-.5.1-1.2-.5-1.6-.6-.4-1 .4-1 1.9 0 1.4-.5 2.8-1 3.1-.6.4-.8 1.1-.5 1.6.4.5-.1.9-.9.9-.9 0-1.6-.5-1.6-1 0-1.7-4-1.1-4.6.7-1.5 4.5-1.7 4.8-2.1 2.6-.3-1.4-.9-2-1.9-1.6-.8.3-1.4 0-1.4-.7 0-.6-.5-.8-1.2-.4-.7.5-.8.3-.3-.5.5-.9 1-1 1.8-.2.7.7 1.6.7 2.9 0 2.5-1.4 2.3-2.8-.4-2.3-8 1.4-8.9 1.7-8.4 3 .3.8-.1 1.4-.8 1.4-.8 0-1.7-.7-2-1.5-.5-1.4-.8-1.4-3 0-1.3.9-2.7 2.3-3 3.2-.5 1.3-.4 1.4.9.3 1.2-1 1.5-1 1.5.1 0 1-1.3 1.4-4.2 1.4-4.1 0-4.4-.2-5.6-4-.7-2.2-1.8-4.2-2.4-4.6-.6-.4-.1-1 1.3-1.4 1.3-.4 2.6-1.1 2.9-1.6.7-1.1 5 0 5 1.3 0 .5-.5.6-1.2.2-.7-.5-.9-.2-.6.8.4 1 0 1.4-1.5 1.4-1.2-.1-2.3.6-2.5 1.5-.1.9.4 1.6 1.3 1.6.8 0 1.5-.4 1.5-.9s.5-.6 1.1-.3c.6.4 1.7-.1 2.5-1.1.9-1.1 1.3-1.4 1-.7-.8 1.5 1 2.7 1.9 1.2.4-.5 1.3-.8 2-.5.7.2 1.6-.2 1.9-1 .9-2.2.7-2.6-.6-1.8-.7.4-.8.3-.4-.4s1.2-1.2 1.8-1.2c.6 0 1.6-.7 2.3-1.6.6-.9 2.9-1.8 5.1-2 2.1-.3 4.5-.5 5.2-.6 1.1-.1 1.6-1.2 1.4-2.9-.1-.4 1.2-.6 2.7-.5 1.9 0 2.7.5 2.4 1.4-.3.7-1.3 1-2.4.7-1.4-.5-1.9-.1-1.9 1.4 0 1.4-.5 1.9-1.4 1.5-1.2-.5-3.6 2.2-3.6 3.9 0 .7 8.3-1.3 9.5-2.2 1.6-1.4 6.3-1 6.9.5.3.7.1 1.6-.5 1.9-1.8 1.1 0 2.2 2.8 1.7 3.4-.6 5.5-2.1 4.7-3.3-.3-.5-1.3-.2-2.2.8-1.6 1.6-1.7 1.6-2 0-.2-1-.7-1.5-1.2-1.2-.4.3-1-.1-1.3-.9-.6-1.5 2.4-4.8 3.9-4.5 2.9.5 3.7-.2 1.8-1.7-1.6-1.3-1.6-1.5-.1-1 1.3.4 1.7-.1 1.7-2.2 0-1.6.5-3.3 1-3.8.7-.7.5-1.7-.5-3-.8-1-1.5-1.5-1.4-.9.4 2.9-.1 3.6-2 2.5-2.5-1.3-3.8.4-2.1 2.5 1 1.2.9 1.5-.5 1.5-1.3 0-1.5.3-.6 1.3.6.8.8 1.7.4 2-.3.4-.1.7.6.7s.9.5.6 1.1c-.4.6-.9.8-1.2.5-.3-.3-1.4.5-2.4 1.7-1.7 2.1-2.5 1.5-2-1.6 0-.4-.4-.7-.9-.7-.7 0-.7-.7-.2-1.8.4-.9.8-2.9.7-4.4 0-1.5.4-2.6 1-2.5.5.1.9-.9.7-2.2-.2-1.5 0-2.1.7-1.7.6.4 1.1.3 1.1-.3 0-.5.3-1.7.7-2.6.5-1.4.2-1.6-1.8-1-1.3.3-1.9.3-1.4-.2.6-.4 1.5-1.8 2.2-2.9 1-1.9.9-2.3-1-2.9-1.2-.4-2.9-.7-3.7-.6-2.3.2-4.9-4.9-3.9-7.7.5-1.2.6-2.2.3-2.2s-.8.9-1.1 2zm.9 6.9c-.6.3-1 1.3-1 2.1.3 4.3-.3 6-1.9 6-1.1 0-1.4-.3-.7-.8 1.8-1.2 2.2-4.7.7-6-1.8-1.8-.8-3.1 1.8-2.5 1.1.3 1.6.9 1.1 1.2zM50.5 580c.7 1.2-.2 1.2-3 0-1.9-.8-1.9-.9.2-.9 1.2-.1 2.5.3 2.8.9zm25.5 3c0 1.8-.5 3-1.3 3-1.5 0-1.8-4.2-.3-5.2 1.6-1.1 1.6-1.1 1.6 2.2zm-28 2c0 .5-.5 1-1.1 1-.5 0-.7-.5-.4-1 .3-.6.8-1 1.1-1 .2 0 .4.4.4 1zm27.6 6.3c.7.4 1.4 1.6 1.7 2.7.4 1.7.2 1.8-1.5.9s-1.8-1.3-.7-2.1c1-.7.4-.8-1.8-.4-3.1.5-4.2-.2-2.7-1.7.8-.8 3.4-.5 5 .6zm-2.6 4.8c0 .5-.4.9-1 .9-.5 0-1-.7-1-1.6 0-.8.5-1.2 1-.9.6.3 1 1 1 1.6zm-3 9.5c0 .2-.7.4-1.5.4s-1.5-.4-1.5-1c0-.5.7-.7 1.5-.4.8.4 1.5.8 1.5 1zm2.1 9.4c.5 0 .9.8.9 1.7 0 1.5.2 1.6 1 .3.6-.9 1-1 1-.3 0 2.2-2.3 2.6-3.7.8-.7-1.1-1.3-1.5-1.3-1s-.5.4-1.2-.3c-.8-.8-.8-1.5.3-2.8 1.3-1.6 1.4-1.6 1.7-.1.2 1 .8 1.7 1.3 1.7zM39 617.7c0 .8-.4 1.1-1 .8-.6-.4-.7.1-.4 1.2.5 1.5.4 1.6-.5.3-1.5-2.1-1.4-3.7.4-3.7.8 0 1.5.7 1.5 1.4zm6.7 3.2c.9 1.1 1.2 1.2 1.3.3 0-.7.5-1 1-.7.6.3 1 0 1-.7 0-.9.3-.9 1 .2.5.8 1 1.7 1 2.1 0 .9-7 .8-7.6-.2-.3-.5-1.3-.5-2.5.1-1.1.6-1.7 1.5-1.4 2 .3.5.1 1.1-.5 1.5-1.1.7-1.3-.9-.4-4.1.7-2.6 5.3-3 7.1-.5zm-9 5.3c-.3.7-.5.2-.5-1.2s.2-1.9.5-1.3c.2.7.2 1.9 0 2.5zm31.3.4c0 .8-.5 1.2-1 .9-.6-.4-.8-1.1-.5-1.6.9-1.4 1.5-1.1 1.5.7zm1.7.6c-.3.8-.6.5-.6-.6-.1-1.1.2-1.7.5-1.3.3.3.4 1.2.1 1.9zm-3.9 3.3c-.3.3-.9-.2-1.2-1.2-.6-1.4-.5-1.5.5-.6.7.7 1 1.5.7 1.8zM73 634c1.1.8.7 1-1.7.8-1.7-.1-2.9-.6-2.7-1 .7-1.1 2.6-1 4.4.2zm-7.7 2c-.3 1.1-.9 1.8-1.3 1.5-.5-.3-1-.2-1.3.2-.2.5-.2.2-.1-.5.2-.6-.1-1.2-.6-1.2-.6 0-1 .7-1 1.5s-.4 1.5-1 1.5c-.5 0-1-.6-1-1.4 0-1.5 2.7-2.9 4-2.1.5.3 1.1.1 1.5-.5 1-1.6 1.4-1.2.8 1zm4.4 4.8c.7.7 1.3 1.9 1.3 2.7 0 .7.6 1.6 1.3 1.8.7.4.6.6-.4.6-.9.1-1.9-.8-2.2-1.9-.3-1.1-1.1-2-1.8-2-1 0-1 .3-.1 1.2.7.7 1.2 2.1 1.2 3.2 0 1.7-.2 1.8-1 .6-.8-1.2-1-1-1 .8 0 1.3-.4 2.1-1 1.7-.6-.4-.6-1.5 0-3 .6-1.6.6-2.5 0-2.5s-1 .9-1 1.9c0 1.1-.4 2.3-1 2.6-1.5 1-1.2 3.5.4 2.9.8-.3 1.7-.1 2.1.5.3.6 0 1.1-.7 1.1-.8 0-1.4 1-1.5 2.1-.2 2.6-1.9 4.6-3 3.5-.4-.4-.3-1 .3-1.4 1.1-.8 1.1-3.7 0-7.1-.6-1.6-.4-2.6.5-3.2 1.1-.7 1-.9-.3-.9-1 0-1.8-.6-1.8-1.4 0-2.8 1.2-4.6 3.2-4.6 1.2 0 2.2-.9 2.5-2.1.6-2 .6-2 1.6-.3.6 1.1 1.7 2.5 2.4 3.2zm3.6-3.4c.3-.4.5.3.4 1.5-.1 1.8-.3 1.9-1.7.6-.9-.8-2-1.2-2.3-.8-.4.3-.7-.1-.7-1.1 0-1.3.4-1.5 1.9-.7 1 .6 2.1.8 2.4.5zM48.5 658c.2 1.1-.4 1.5-2.4 1.4-1.4-.1-3.2-.3-3.8-.3-1.8-.1-1.6-2.3.3-4.7.8-1 1.3-1.4 1-.7-.4.6-.1 1.5.5 1.8.6.4 1.3-.3 1.6-1.6l.6-2.3.9 2.5c.6 1.3 1.1 3.1 1.3 3.9zm19.7-1.8c-.7.7-1.2 2-1.2 2.9 0 2.1-2.2 3-4.1 1.8-.8-.5-.9-.9-.3-.9.6 0 1.7-1.1 2.4-2.5s2-2.5 2.9-2.5c1.2 0 1.2.3.3 1.2zm-.3 11.2c2 2.4-.6 6.6-3.9 6.5-1 0-.9-.3.4-.8 2.6-1 3.1-4.5.6-3.8-1.6.4-1.7.2-.7-1.4 1.4-2.3 2.1-2.4 3.6-.5zM83 673c0 .5-.2 1-.4 1-.3 0-.8-.5-1.1-1-.3-.6-.1-1 .4-1 .6 0 1.1.4 1.1 1zm-24 6.5c-.7.9-1.5 1.3-1.9 1-.3-.3.1-1 .9-1.5 2.1-1.4 2.4-1.2 1 .5zm18.5 16.3c1.1.6 1.6 1.4 1.2 1.8-.5.5-1.1.3-1.5-.3-.4-.6-1.6-1.1-2.7-1.1-3.3.1-4.5-.2-4.5-1 0-1.1 5.3-.7 7.5.6z"/><path d="M78.9 569.7c0 .5-.2 1.6-.4 2.5-.4 2 2.9 2.6 4 .8.3-.6-.1-1-.9-1-1 0-1.3-.6-1-1.5.4-.8.1-1.5-.5-1.5s-1.1.3-1.2.7zm466.6 3.3c-1.9.7-1.9.8-.2 1.5 1 .4 1.6 1.4 1.3 2.2-.3.7.1 1.6 1 2 .8.3 1.3 1.1 1 1.8-.6 1.6 2 5.3 3 4.2.4-.4-.1-1.4-1.2-2.2-2.5-1.9-1.1-1.9 2.6 0 1.7.9 3 1.1 3 .5 0-.5-.5-1-1.2-1-.6 0-.8-.3-.5-.7.4-.3-.1-1.5-1-2.5-1.4-1.6-1.5-2.1-.4-2.7 1.4-.9.7-3.1-1-3.1-.6 0-.7.5-.3 1.1.3.6-.4.4-1.7-.4-1.5-.9-3.1-1.2-4.4-.7zm3.9 3.5c.3.8.1 1.5-.4 1.5-.6 0-1-.7-1-1.5s.2-1.5.4-1.5.6.7 1 1.5zm-524.3-.7c-.6.2-1.1.8-1.1 1.3 0 1.4 3.4 1.1 5.6-.6 1.8-1.4 1.8-1.4-.7-1.3-1.5.1-3.2.4-3.8.6zm502.6.6c-.4 1-.5 2.1-.2 2.4.9.9 1.7-.6 1.3-2.5-.3-1.7-.4-1.7-1.1.1zm-54.7.7c0 .5.5.7 1 .4.6-.3 1-.2 1 .4 0 .5-.6 1.4-1.2 1.8-.7.4-1.4 1.6-1.5 2.6-.1 1.4.4 1.8 1.8 1.4 1.6-.4 1.9-.1 1.7 1.6-.2 1.6.2 2.1 1.5 1.9 1-.2 1.7.3 1.7 1.3 0 .8.5 1.5 1 1.5.6 0 1-1.1 1-2.5 0-2.9 2.1-3.3 4.1-.8.8.9.9 1.4.4 1.1-.6-.4-1.7-.3-2.4.2-1.1.6-.9 1.3.7 3 2 2.2 2.1 4.7.1 3.5-.5-.4-.9-.1-.9.4 0 .6 1.1 1.1 2.5 1.1s2.5.5 2.5 1.1c0 .5-.4.8-.9.4-1.8-1-2.1 1.3-.5 3 1.2 1.1 2 1.3 2.7.6 1.4-1.4 3.7-1.4 3.7-.1 0 .5-.7 1-1.5 1s-1.5.5-1.5 1.1c0 .5.3.8.8.6.4-.3 1.3.1 2 .9 1 1.1.8 1.5-.8 2.4-1.5.8-2 .8-2-.3 0-.7-1.1-1.3-2.4-1.3-1.5 0-2.2.5-1.9 1.2.3.7 1.1 1 1.8.8.7-.3 1.6 0 2.1.7.4.7.2 1.5-.4 1.7-1.5.5-1.6 2.9-.2 3.7.6.4.9.3.8-.2-.1-.4.1-1.8.5-3 .7-1.8 1.2-2 3.7-1.3 2.7.8 2.9.7 2-1-1.3-2.5-1.3-2.7.6-3.4.9-.4 2.3-.1 3 .5 1.1.9 1.4.8 1.4-.2 0-.8.8-2.3 1.7-3.4 1.4-1.7 1.5-1.8.9-.2-.5 1.5-.2 1.7 1.3 1.2 1.4-.4 2.2.2 3.2 2.4.8 1.9 1.7 2.7 2.4 2.1.5-.4 2.4-1 4-1.2l3-.3-4.7-2.8c-2.6-1.6-5.2-2.6-5.8-2.2-.5.3-1 .1-1-.4 0-.6-.9-1.1-1.9-1.1-1.1 0-2.3-.4-2.6-1-.3-.6.1-.7.9-.4.9.3 1.6.1 1.6-.5s-.3-1-.7-1c-1.9.3-5.7-.3-4.6-.7 1.5-.6.5-3.4-1.2-3.4-.6 0-2.3-.9-3.6-2.1-2.1-1.8-2.4-1.8-2.7-.5-.4 1.7-.4 1.7-3.8 2.1-1.8.2-2-.1-1-2.1.6-1.3 1.7-2.2 2.4-1.9 2.6 1 1-1.3-1.7-2.5-1.6-.6-3.9-2.2-5.2-3.6-1.2-1.3-2.7-2.4-3.1-2.4-.5 0-1.6-.7-2.4-1.5-1.8-1.7-3.4-2-3.4-.4zm23.8 17.6c-.9 1.1-.9 1.6.3 2.3 1.1.8 1.1 1.2-.6 2.4-2.8 2-4 .3-2-2.7.9-1.5 1.4-3.1 1-3.6-.3-.7 0-.8 1-.5 1.2.5 1.3.9.3 2.1zm4.2 7.5c0 .4-.9.8-2 .8s-2-.4-2-.8.9-.8 2-.8 2 .4 2 .8zm40-23.3c0 .6.5 1.3 1 1.6.6.3 1-.1 1-.9 0-.9-.4-1.6-1-1.6-.5 0-1 .4-1 .9zm-519.7 5.5c-2.4 1.1-3.1 2.6-1.2 2.6.8 0 .7.6-.2 1.7-.8.9 0 .7 1.9-.7 1.7-1.3 3.2-2.7 3.2-3.1 0-1.4-1.5-1.5-3.7-.5zm62 1.1c0 .8.4 1.2.9.9.4-.3.8-.9.8-1.5 0-.5-.4-.9-.8-.9-.5 0-.9.7-.9 1.5zm-44.5 3.7c-1.7 2.7-1.7 3.7 0 6.3 1.2 1.9 1.3 1.8.9-.8-.3-2 0-2.7 1.2-2.7 1.4 0 1.4-.2.1-1-1-.6-1.1-1-.2-1 .6 0 1.2-.7 1.2-1.5 0-2.2-1.6-1.8-3.2.7zm-7.2.5c-.3.8.2 1.3 1.3 1.3 1 0 2.1-.6 2.4-1.3.3-.7-.3-1.3-1.4-1.3-1 0-2.1.6-2.3 1.3zM13.5 596c.4.6 1.1.8 1.6.5 1.4-.9 1.1-1.5-.7-1.5-.8 0-1.2.5-.9 1zm-3.5 3c0 .5.5 1.2 1 1.5.6.3 1 .1 1-.5s.5-.8 1.3-.3c1.8 1.1 3.7 1.2 3.7.2 0-.5-.8-.9-1.7-1-1 0-2.6-.2-3.5-.4-1-.2-1.8.1-1.8.5zm82.5-.2c-1.7 1.2-3.6 5.2-2.5 5.2.6 0 1.4-.8 1.7-1.8.4-.9 1.4-2.2 2.2-2.9 1.7-1.3.3-1.8-1.4-.5zm44.8 3c-2.2.3-3.7 2.7-2.7 4.3.9 1.6 2.4 1 2.4-1 0-1.3.8-2.1 2.3-2.3 1.2-.2 1.8-.5 1.2-.9-.5-.3-2-.3-3.2-.1zm-125.5 1.9c-1.8.9-2.5 1.9-2.1 2.9.6 1.7 2.9 1.2 2.5-.5-.1-.7.2-1 .8-.6.5.3 1 .2 1-.3s.6-.9 1.4-.9c.8 0 1.2.6.9 1.4-.3.7-.9 1-1.4.7-.5-.3-.9.2-.9 1 0 .9-.7 1.6-1.6 1.6-1.4 0-1.4.2-.3 1.6.7.9 1.5 2.5 1.6 3.7.4 2.7.7 2.9 3.7 3.1 2.7.1 3.7 1.6 1.2 1.6-.8 0-1.8.5-2.2 1.2-.5.7-.3.8.6.3.9-.6 1.2-.4.8.7-.8 2.1 1.8 1.9 3.9-.4.9-1.1 1.1-1.8.5-1.8-.7 0-1.2-.5-1.2-1 0-.6.6-1 1.4-1 .7 0 1.9-.6 2.5-1.4.9-1 .8-1.5-.4-2-1.8-.6-2-3.3-.3-3.8.6-.2.8-1 .4-1.7-1.1-1.7-3.5 1.7-3.1 4.1.4 1.9-1 2.5-1.9.9-.4-.5 0-1.2.6-1.5.7-.3.4-.4-.7-.3-1.2.2-1.9 1-1.9 2 .2 1.3-.1 1.5-1 .7-.7-.5-1.5-.9-1.7-.7-.2.1.4-.6 1.3-1.6.9-.9 2.5-1.7 3.4-1.7 1.3 0 1.4-.3.4-1.5-1-1.2-1-1.8 0-3 .7-.9 1-1.8.7-2.1-1.1-1.2-6.4-1-8.9.3zm16.8.9c-.3.8-.1 1.4.4 1.4 1.3 0 1.3 3.7 0 4.5-.5.3-1 1.3-1 2.1s.5 1.4 1 1.4c.6 0 1-.7 1-1.5s.5-1.5 1.1-1.5c.7 0 .8-1.1.4-3.1-.5-2.2-.4-2.9.4-2.5.6.4 1.1.1 1.1-.6 0-1.9-3.7-2-4.4-.2zm35.4-.7c0 .5-1.3.7-3 .6-3.6-.3-3.6-.1-.9 2.8 2 2.2 2.1 2.2 3.5.3 1.4-1.9 1.9-4.6.9-4.6-.3 0-.5.4-.5.9z"/><path d="M138 604.5c0 1 2.9 2.4 3.4 1.7.3-.6-.3-1.2-1.4-1.5-1.1-.3-2-.4-2-.2zm-5.8 2.1c.4.4.2 1.6-.4 2.7-.9 1.7-.8 1.9.7 1.4.9-.4 1.9-.7 2.1-.7 1.2 0 .1-2.9-1.3-3.4-1-.4-1.4-.4-1.1 0zm17.8 1.6c0 2.4 1.1 4.8 2.2 4.8.5 0 .6-.5.3-1-.3-.6.3-1 1.5-1s1.8-.5 1.5-1c-.4-.6-1.1-.7-1.7-.4-.6.4-1.7-.1-2.5-1.1-1.1-1.6-1.3-1.6-1.3-.3zm-62.9 1.2c-.8.9-.8 2.1-.2 3.7l.9 2.4 1.1-2.5c1-2.3 1.1-2.2 1 1.5-.2 5.8-.1 6.5 1.5 6.5.8 0 1.6.5 1.8 1.2.2.6.9.8 1.5.5 1.3-.8.5-4.7-1-4.7-.6 0-.7-.3-.4-.6.4-.4 1.3-.1 2.1.5.8.7 2.1.9 2.7.5.9-.5.5-1-1.2-1.7-1.4-.5-1.9-1.1-1.2-1.4 1-.3.9-.8-.2-1.9-.8-.8-1.1-2.2-.8-3.2.6-1.6.6-1.6-1 0-1.8 1.8-2.3 3.3-.8 2.4.5-.3 1.1.1 1.5.9.9 2.6-1.1 2.5-2.5-.1-1.1-2.1-1.1-2.7 0-3.3 1-.6.9-1-.4-1.5-2.4-.9-3.1-.8-4.4.8zm47.8 2.3c0 .4-.2 1.6-.4 2.5-.2 1 .2 1.5.9 1.2.9-.3 1.1.5.8 2.8-.2 1.8-.2 3 .2 2.7 1.2-1.1 1.1-9.2-.1-9.6-.7-.3-1.3-.1-1.4.4zm9.5 1.4c.5 2.1.2 2.6-1.1 2.5-1.1-.1-2 1-2.6 3.1-.6 1.8-1.4 3.3-1.8 3.3-.5 0-1.8.9-2.8 1.9-1.9 1.9-1.9 1.9 0 2.4 1.2.3 1.9 0 1.9-.8s.8-1.2 2-1c1.1.2 1.9.1 1.9-.3-.1-.4 0-1.2.1-1.7.1-.6.3-1.8.4-2.7 0-1 .5-1.7.9-1.5.5.1 1.3-.6 1.8-1.6.6-.9 1.4-1.5 1.8-1.2.5.2 1.1-.4 1.4-1.5.3-1.1.1-2-.4-2s-.9.6-.9 1.2c0 .8-.8.4-1.7-.7-1.5-1.9-1.5-1.9-.9.6zM491 612c0 .5.5 1 1.1 1 .5 0 .7-.5.4-1-.3-.6-.8-1-1.1-1-.2 0-.4.4-.4 1zM0 614.5c0 1.4.3 2.5.8 2.6.4 0 1.5.2 2.6.4 1 .2 2.4.1 3-.1 1.6-.6 1.7-3.6.2-3.1-.6.2-2.3-.2-3.8-1C.1 612 0 612 0 614.5zm155.5-1.4c-.4.5-.4 2.2 0 3.7.7 2.5.8 2.5 1.5.7.4-1.1.4-2.5-.1-3.1-.5-.6-.6-1.4-.2-1.7.3-.4.4-.7 0-.7-.3 0-.9.5-1.2 1.1zm348.2-.4c-.4.3-.7 1-.7 1.5 0 1.1 4.6.5 5.7-.7.4-.4.2-.5-.4-.1-.7.4-1.3.2-1.3-.3 0-1.2-2.3-1.5-3.3-.4zm-10.9 1.4c-.7.4-.6.8.3 1.1 1.8.6 4.9-.2 4.9-1.3 0-.9-3.6-.8-5.2.2zM79 615.5c-.9 1.1-1 1.9-.2 2.7 1.4 1.4 3.2.1 3.2-2.3 0-2.3-1.3-2.5-3-.4zm71.9.3c-.8 1-1.4 2.3-1.2 2.9.3.7-.1 2.1-.7 3.2-.9 1.7-.8 2 .5 1.5.8-.3 1.2-1 .9-1.5-.3-.5 0-.9.7-.9s1-.3.7-.6c-.4-.3-.2-1.9.2-3.5 1-3.4.9-3.5-1.1-1.1zm-38.3.7c.4.8.2 1.5-.4 1.5-.5 0-1.2 1-1.5 2.2-.5 2.1-.4 2 1.4-.5 1.2-1.5 2.5-2.5 3-2.1.5.3.9-.2.9-1 0-.9-.9-1.6-2-1.6-1.3 0-1.8.5-1.4 1.5zm389.7.2c-1.5.5-1.7 2.3-.4 2.3.5 0 1.1-.7 1.5-1.5.3-.8.4-1.5.3-1.4-.1 0-.8.3-1.4.6zm5.7.3c0 .7-.7 1-1.4.7-.9-.4-1.7.2-2.1 1.4-.4 1-1.1 1.9-1.6 1.9s-.9.5-.9 1c0 .6 1.3.9 2.8.8 1.5-.1 3.3.1 4 .6.8.5 1 .2.5-1-.5-1.3-.3-1.5.7-.9.8.5 1.1.4.6-.3-.3-.6.3-1.3 1.4-1.7 1.1-.4 1.8-1.1 1.4-1.6-.3-.5-1-.7-1.5-.3-.5.3-1.6 0-2.4-.6-1.2-1-1.5-1-1.5 0zm0 3c-2.4 1.5-3.6 1.1-1.4-.4 1-.8 2.1-1.2 2.4-1 .2.3-.2.9-1 1.4z"/><path d="M146.6 620c.1 1.6-.1 2.9-.5 2.8-1.8-.2-3.1.3-3.1 1.3 0 .5.4.8.9.5.5-.4 1.1 0 1.4.6.2.7 1.2-.2 2.1-2 1-1.9 1.5-4 1.2-4.8-1-2.5-2.2-1.5-2 1.6zm351.4-1.5c-1.1 1.3-1 1.4.4.9.9-.3 1.6-1 1.6-1.5 0-1.3-.6-1.1-2 .6zm-416.1 2.7c-1.5 2.8-3.5 4.9-4.1 4.3-.3-.3-.5.3-.5 1.2 0 2.1 2.3 4.6 3.6 3.9.4-.3.6-1.8.4-3.3-.5-2.7-.5-2.8 1.2-.8 1 1.3 1.5 1.4 1.2.5-.2-.8.3-2.2 1.1-3 1.4-1.3 1.5-1.2.9.3-.3.9-.2 1.7.3 1.7 1.9 0 1 1.8-2.7 5.5-2.1 2.1-3.2 3.5-2.5 3.1.7-.5 1.2 0 1.3 1.1 0 1.4.2 1.5.6.3.4-.8 1.4-2.2 2.4-3.1 1-.9 1.6-1.9 1.2-2.3-.3-.3.2-.6 1.1-.6 1.2 0 1.6-.5 1.3-1.4-.7-1.7 1.5-2.7 3.4-1.6 1.1.7 1 1.2-.5 2.8-2.3 2.6 0 3.6 2.5 1.1 2.3-2.3 2.8-5.4.9-5.5-.8-.1-1.9-.3-2.5-.4-.5-.1-1.3-.2-1.7-.1-.5 0-.8-.4-.8-.9 0-.6.6-1 1.3-1 .8 0 .7-.3-.3-.9-1.9-1.3-3.1-.4-2.3 1.7.6 1.5.4 1.5-1.5-.1-1.2-1.1-2.6-1.6-3.3-1.1-.9.5-1.1.1-.7-1.4.8-2.8.2-2.8-1.3 0zm13.4 6.3c-.3.9-.8 1.4-1 1.1-.3-.3-.2-.9.2-1.5.9-1.6 1.5-1.3.8.4z"/><path d="M143 620c0 .5.7 1 1.5 1s1.5-.5 1.5-1c0-.6-.7-1-1.5-1s-1.5.4-1.5 1zM.2 623.9c-.1 2.2 0 2.4.9.8.6-.9 1.4-1.5 2-1.2.5.4.9.2.9-.3s-.8-1.2-1.8-1.4c-1.4-.4-1.8.1-2 2.1zm498.8-1.8c0 .5.5.7 1 .4.6-.3 1-.8 1-1.1 0-.2-.4-.4-1-.4-.5 0-1 .5-1 1.1zm-346 .7c0 1.6 2.2 3 4.1 2.5 3.1-.8 2.3-3.3-1.1-3.3-1.6 0-3 .4-3 .8zm-6 3.2c0 .5.5 1 1 1 .6 0 1-.5 1-1 0-.6-.4-1-1-1-.5 0-1 .4-1 1zm350.3-.3c-.7.2-1.3.9-1.3 1.4 0 .6.7.6 1.9 0 1-.6 2.1-.7 2.5-.4.3.3.6.1.6-.5 0-1.2-1.5-1.4-3.7-.5zm3.5 1.7c-1.6 1.3-1.7 1.7-.5 1.3.9-.4 1.7-.3 1.7.1 0 .6 1.7.7 7.7.3.6-.1 1.1-1 1-2.1-.1-1.6-.8-1.9-3.8-1.7-2.1.1-4.8 1.1-6.1 2.1zm7.2-.4c0 .5-.5 1-1.1 1-.5 0-.7-.5-.4-1 .3-.6.8-1 1.1-1 .2 0 .4.4.4 1zm-365.6-.1c.4.6.3 1.1-.1 1.1-.5 0-.9 1-1 2.2 0 3.2-.6 5-2 6.5-1.5 1.7-2 1.6-2-.2 0-.8.4-1.2.8-1 .4.3.9-.2 1.3-1 .4-1-.1-1.5-1.4-1.5-1.1 0-2 .5-2 1.1 0 .6-.9 2.4-2 3.9l-2 2.8 2.5-.2c1.6-.2 2.5.2 2.5 1s-.7 1.4-1.5 1.4-1.5.4-1.5 1c0 .5 1.1 1 2.5 1s2.9.8 3.5 1.9c1.3 2.4-.5 3.9-1.8 1.5-.5-.9-2-1.7-3.3-1.8-1.9-.1-2.3-.6-2.1-2.5.2-1.9-.1-2.2-1.5-1.6-2.3.9-3.3.9-5.8-.1-1.8-.7-1.9-.6-.6.9 1.2 1.5 1.2 1.7-.1 1.2-.9-.4-1.5 0-1.5.9 0 .8.5 1.2 1 .9.7-.4.8.1.3 1.2-.5 1.3.1 1 1.8-.8 3.5-3.8 4.7-3.3 2.5 1-1.3 2.5-1.5 4-.9 4.9.7.8.6 1.3-.4 1.7-.8.3-1.7.1-2-.6-.2-.7-.5-.4-.5.5-.1.9.7 2.1 1.6 2.7 1 .5 1.4 1.3 1 1.7-.5.5-1.1.4-1.5-.1-.4-.6-1.6-1.2-2.7-1.3-2.3-.4-1.5.6 1.7 2.2 1.3.6 2.5 2.2 2.6 3.5.4 2.2.2 2.3-1.2.8-.9-.8-1.6-2.1-1.6-2.7 0-.6-.5-.8-1-.5-.6.4-.8 1.5-.5 2.5.3 1.1.2 2.8-.4 3.8-.7 1.4-.6 2.4.3 3.8 1.1 1.4 1.2 2.3.3 3.9-.6 1.1-1 2.3-.9 2.7.1.5-.2.8-.7.8-.9 0-2.5 4.7-2.2 6.6 0 .6-.6 1.7-1.4 2.4-.8.7-1.5 1.9-1.5 2.6 0 .8-.4 1.4-1 1.4-.5 0-1 .7-1 1.7 0 1.5.2 1.4 2-.2 1-.9 1.9-2 1.8-2.4-.2-2.2.4-3.2 1.7-2.7.8.3 1.4.1 1.2-.5-.1-.6.8-1.8 2.1-2.6 2-1.4 2.2-1.4 2.2 0 0 .8.6 1.8 1.3 2 .7.3.5.6-.5.6-1 .1-1.8.5-1.8 1.1 0 .5-.6 1-1.4 1-.8 0-2.7 1.1-4.2 2.3-2 1.7-2.5 2.9-2 4.3.6 1.6.9 1.6 1.6.4.8-1.3 1-1.2 1 .2 0 1.6 1.1 2.3 3.3 1.9.4 0 .7.3.7.9 0 1.2 10.3 1.4 11.4.3.7-.8 1.1-.9 3.7-1.2.5 0 .7-.6.4-1.1-.3-.6-.1-1 .5-1 .8 0 .8-.6 0-2-.6-1.1-.8-2-.5-2 .4 0-.4-1.5-1.6-3.3-1.2-1.7-1.9-2.9-1.4-2.5 1.2 1.1 3.4-3.8 2.8-6.2-.4-1.6-.2-1.9 1.1-1.4 1.2.5 1.6 0 1.6-2 0-1.4.5-2.6 1-2.6.6 0 1 .6 1 1.4 0 .8.4 1.7.9 2 .5.4.7-.2.4-1.3-.3-1 0-2.2.6-2.5.6-.4 1.1-1.8 1.1-3.1s.4-2.6 1-3c.5-.3.6-1.3.3-2.2-.6-1.5-.7-1.4-1.4.3-.7 1.8-.8 1.8-.8-.1-.1-2.1-4-8.7-4.2-7-.1.5-.1 1.9 0 3 0 1.4-.1 1.6-.6.5-.3-.8-1.2-1.9-1.9-2.3-2.1-1.2-1.7-2.7.6-2.7 1.1 0 2-.4 2-.9s.7-1.2 1.6-1.5c.8-.3 1.3-.2 1 .3-.3.4.6 1.3 1.9 1.9 1.5.7 2.5.8 2.5.2 0-.6.6-.9 1.3-.7.7.1 1.2-1.1 1.3-3.3 0-3.1.5-5.3 2.1-11.3.2-.9 0-1.7-.6-1.7s-1.1 1.5-1.1 3.4-.4 3.8-1 4.1c-.5.3-1-.3-1-1.4 0-1.1-.4-2.3-1-2.6-1.6-1-1.2-2.8.5-2.1 1.1.4 1.5-.1 1.4-1.7 0-1.2-.3-1.6-.6-1-.5 1.4-3.4 1.8-3.2.5.1-.4.1-1.6 0-2.7-.1-1.7-.3-1.8-1.1-.5-.5.8-1 1.2-1 .8 0-.4-.9 0-1.9.9-1.1.9-1.8 2-1.5 2.5.3.4 0 .8-.5.8-.6 0-1.1-.9-1.1-2s.5-2 1.1-2c.6 0 .9-.7.5-1.5-.3-.8-.1-1.5.3-1.5.5 0 1.4-1.2 1.9-2.8l1-2.7.1 2.9c.1 3.2 1.4 2.6 2.5-1 .5-1.5.1-2.3-1.1-2.8-1-.3-2.4-.9-3.2-1.2-.9-.4-1.1-.2-.7.5zm1.5 15.7c-.5.6-.5 1.4-.1 1.9.4.4-.2.3-1.2-.2-1-.6-2.7-.8-3.8-.5-1.3.3-1.7 0-1.3-1 .4-.9 1.9-1.4 3.9-1.4 2.4.1 3.1.4 2.5 1.2zm-8.2 10.7c1.1-.4 1.4-.2.9.5-.4.7-1.6 1.2-2.7 1.2s-1.7.4-1.4 1c.3.5-.3 1-1.4 1-2.7 0-2.6-1 .1-4 1.9-2.1 2.3-2.2 2.6-.8.2 1.1.9 1.5 1.9 1.1zm-.9 5.9c1.4 1.8 1.9 4.7.7 4.7-.5 0-.9-.8-.7-1.8.2-1-.7-2.2-2-2.9-1.6-.7-1.8-1.1-.7-1.1.9-.1 2.1.5 2.7 1.1zm4.6 2.3c.3.9 0 1.5-.9 1.5-.8 0-1.5-.7-1.5-1.5s.4-1.5.9-1.5 1.1.7 1.5 1.5zm.1 4.7c.9 2.6 1.2 3.9 1.4 5.2 0 .6.8.1 1.6-1 .8-1 1.5-1.6 1.5-1.2 0 .4-1.1 1.9-2.5 3.4-1.3 1.4-2.2 3-1.9 3.5.3.5 0 .9-.5.9-.6 0-1.1-.8-1.1-1.8-.1-1.5-.2-1.5-1.5.2-1.2 1.6-1.8 1.7-2.7.8-1-1-1-1.5 0-2.1 1.1-.7 1-.9-.2-1.4-1.9-.7-2.1-3.3-.4-4.3.7-.5.9-.2.6.8-.7 1.6 2.7 4.2 4.2 3.3 1.9-1.2 1.1-3.8-1-3.2-2.4.6-2.8-2-.5-2.9.8-.4 1.2-1 .9-1.5-.3-.5-.1-.9.4-.9s1.3 1 1.7 2.2zm-8.3 4.1c-.3 3.6.1 5 1.8 6.7 1.1 1.1 2.4 1.9 2.9 1.6.4-.3.8 0 .8.7s.2 1.6.3 2.2c.5 2 0 3.6-1 3-.6-.4-1 .5-1 1.9 0 3.5-1.5 3.3-1.7-.1 0-1.5.6-3.2 1.4-3.9 1.2-.8 1.3-1.3.5-1.8-.7-.4-1.2-.2-1.2.5 0 1-.3 1-1.2.1-.7-.7-1.7-.8-3-.1-1 .5-1.8.7-1.8.4 0-1.1 2.8-3.5 4.2-3.6.7 0 .3-.4-.8-.9-1.2-.4-2.4-1.8-2.7-2.9-.3-1.2-.1-1.9.4-1.6.4.3.2-.6-.6-2.1-1-2-1.1-3-.2-4 2.1-2.3 3.2-.8 2.9 3.9zm-5.9 23.4c-.9 2.7-2.4 4.3-3.4 3.8-.4-.3-.6-1.2-.3-2 .4-.8 1-1.3 1.4-1 .4.3 1-.2 1.4-1 .8-2.1 1.7-1.9.9.2zm31.7-65.6c-1 1.7-.8 2.4 1.1 3.9 2.9 2.6 3.9 1.7 2.6-2.5-1.2-4-2.2-4.4-3.7-1.4z"/><path d="M132.1 631.3c-1.1 2.5-2.6 4.8-3.3 5-.8.4-.7.6.4.6.9.1 1.9.7 2.1 1.3.4.8.6.7.6-.3.1-.9.8-2.2 1.6-2.9.8-.7 1.3-1.5 1.1-1.9-.3-.4-.1-1.3.5-2.1.5-.8.9-1 .9-.5 0 .6.9 1.1 2 1.2 1.3.1 2-.4 2-1.6 0-1.2-.7-1.7-2.2-1.6-1.3.1-2.6-.3-3-.8-.3-.6-1.5 1-2.7 3.6zM510 631c-1.4 1-2.1 2.2-1.7 2.6.4.4.7.2.7-.4 0-.6 1-1.2 2.2-1.4 1.2-.2 2.3-.9 2.6-1.6.5-1.7-.9-1.5-3.8.8zm-387.3 1.4c-.9.7-1.7 1.9-1.7 2.7 0 .9.8.6 2.2-.9 2.5-2.4 2.2-3.7-.5-1.8zm-29.4 3.9c.1 1.5.5 2.7 1 2.7 1 0 .9-2.2-.2-3.9-.7-1-.9-.7-.8 1.2zm59.3-.7c-.8 2.1-.8 2.4.4 2.4.6 0 1-.7 1-1.6 0-.9.5-1.2 1.2-.8.7.4.8.3.4-.4-1-1.7-2.3-1.5-3 .4zm-152.1.5c.4.6 1.3.8 2.1.5.7-.3 1.6-.1 1.9.5.4.5 1.1.6 1.7.3.8-.5.9-.1.5 1-.4 1-.7 2-.7 2.2 0 .3-.9 0-2-.6-1.6-.9-1.8-.8-1.4.5.5 1.1.2 1.3-1 .9-1.2-.5-1.6 0-1.6 2 0 1.8.4 2.4 1.4 2 .8-.3 1.6-1.3 1.8-2.2.2-1.1 1.3-1.7 2.8-1.7 2.1 0 2.5-.5 2.4-2.8-.1-3.2-.1-3.2 2.1-1 1.6 1.6 1.7 1.5 1.3-.3-.3-1.6-1.3-1.9-6.1-2.2-4-.1-5.6.1-5.2.9zm117.5 1.4c0 1.7.4 2.3 1.5 1.9 1.1-.5 1.2-1.1.4-2.5-1.3-2.6-1.9-2.4-1.9.6zm39-1.4c0 .4.6 1 1.3 1.2.9.4.9.6 0 .6-.7.1-1 .8-.7 1.6.4.8.1 1.5-.5 1.5-.9 0-.9.5-.2 1.7.7 1.3.5 2.3-.7 3.7-.9 1.1-1.1 1.6-.4 1.2.8-.5 1.2 0 1.3 1.6 0 2.1.1 2.2.8.3.4-1.1.7-3.5.5-5.3-.1-2 .2-3.2.8-3 2 .7 1.6 4.9-.9 9.9-1.4 2.7-2.7 4.9-2.9 4.9-.3 0-.2-.5.1-1 .3-.6.4-1 0-1-.9 0-2.6 5.1-1.9 6.1.3.6 1.4.3 2.5-.7 1.8-1.6 1.9-1.6 1.9 1 0 1.6-.4 2.5-1 2.1-1.2-.8-6 2.1-6 3.5 0 .6.3.9.8.9 4.2-.7 4.4 3.4.2 5.3-1.6.7-3 1.9-3 2.5 0 1.5 1.7 1.8 2.2.4.2-.4 1.2-.5 2.3 0 1.9.7 1.9.8-.2.8-2.2.1-2.8 1.3-2.5 5.1.4 4.8 1.1 8.8 2 11.2 1 2.3.9 2.6-.5 2.1-1.1-.4-1.4-.2-.9.5.4.7-.1 1-1.3.7-1.1-.2-2.2.3-2.5 1.1-.3.8-1.6 1.9-2.8 2.4-1.7.7-.5.9 4.9.8 6-.1 7.1-.3 6.2-1.4-.6-.8-1.6-1.1-2.2-.7-.6.3-.7.1-.3-.5.4-.7 1.2-1.2 1.8-1.2.6 0 2.6-1.1 4.4-2.5 4.6-3.5 6.1-3 2.8 1.1-.8 1-1.3 1.2-.9.4.4-.8-.1-.6-.9.4-.9 1.1-1.6 2.7-1.5 3.5 0 1.2.3 1 .9-.4.7-1.7.9-1.7.9-.3.1 1.4 1 1.8 4.1 1.8 3 0 3.8-.3 3.4-1.4-.3-.8 0-1.7.6-2.1.7-.4 1.4.2 1.7 1.4l.5 2.1h172.7c94.9 0 173.2-.4 173.9-.8 1-.7.9-1.6-.4-4.8-3.6-8.8-8.3-18.1-9.8-19.3-.9-.7-1.4-1.7-1.1-2.1.2-.4-1.1-3.3-3-6.5-1.9-3.1-3.5-5.9-3.5-6.2 0-1.3-4.2-9.3-4.9-9.3-.5 0-1.6-1.9-2.6-4.3-3-7.5-5.4-10.8-7.3-9.7-.9.5-8 2.7-15.7 4.9-7.7 2.2-18.1 5.1-23.1 6.6-5 1.4-10.1 2.8-11.4 3-1.2.2-5.9 1.3-10.4 2.4-4.4 1.1-9.2 2.2-10.6 2.5-1.4.2-5.9 1.4-10 2.5s-14.2 3.5-22.5 5.1c-8.2 1.7-16.6 3.5-18.6 4-4.4 1.2-11.6 2.1-18.6 2.3-4 .1-5.3.5-5.4 1.6 0 1.1-.2 1.2-.6.3-.7-1.8-5-1.5-6.3.6-1.1 1.6-1.1 1.6-.6 0 .3-1 .1-1.8-.4-1.8-1.7 0-2.2 2.1-.8 3.7 1.2 1.5 1.1 1.5-.9.3-1.2-.8-2-1.7-1.7-2.1.2-.4-.1-1.1-.7-1.5-.6-.3-1.5-.1-1.9.6-.4.7-1 .8-1.3.3-.8-1.2-8.1-.6-8.5.7-.2.5-.9.7-1.4.3-1.6-.9-39.8-.4-41.7.7-.9.4-3.9.9-6.6 1.1-2.8.1-5.8.6-6.7 1.1-.9.4-4.9.9-8.8.9-3.9.1-9.3.7-11.8 1.3-2.6.7-7.8 1.1-11.7.8-13.6-.9-20.2-.2-18.8 2.1.5.9.3.9-.9 0-.8-.7-1.7-1.1-2-.8-.3.3-2.5.8-4.9 1.1-5.4.6-14.1 2.5-15.4 3.3-.5.3-2.1.6-3.3.7-1.3 0-2.7.5-3 1-.4.5-2 .9-3.6.9-2.3 0-3-.5-3.3-2.4-.4-3-1.3-4.1-1.3-1.7 0 .9-.5 1.4-1 1.1-.6-.4-.9-.1-.8.7.2.7-.3 1.2-1.1 1-.8-.2-1.1.3-.8 1.2.4.9.2 1.8-.3 2.1-.6.4-1-.3-1-1.4 0-1.2-.6-2.1-1.2-2.1-.9 0-.8-.3.2-1 .8-.5 1.1-1.2.8-1.6-.4-.3-.1-1.3.7-2.1 1.7-1.6 2-4.9.6-5.8-.5-.3-1.3 0-1.7.6-.5.8-.3.9.6.4.8-.5 1.1-.4.7.3-.4.5-1.6.8-2.7.5-1.2-.3-1.7-1-1.3-1.7.8-1.2 1-1.8 1.2-4.1.2-2.2 1.9-1.8 2.6.6.5 1.5.9 1.8 1.5.9 1.4-2.3 0-4.8-2.6-4.5-1.4.1-2.7-.2-3-.6-.3-.5-.1-.9.4-.9 1.4 0 3.5-5.7 2.6-7.1-.4-.8-.3-1 .4-.5.7.4 1.2.2 1.2-.3 0-.6-.4-1.1-1-1.1-.5 0-1-1.8-1-4 0-2.5-.5-4-1.2-4-1 0-.9-.3.1-.9.7-.5 1-1.4.7-2-.4-.6-.9-2-1.1-3.2-.2-1.1-.7-2.9-1-4-.4-1.2-.2-1.9.6-1.9 1 0 1-.3.1-1.2-1.3-1.3-5.2-1.9-5.2-.7zm.7 30.3c-.8 1.6-1.4 2.1-1.9 1.3-.4-.7 0-1.7.9-2.5 2.2-1.6 2.3-1.6 1 1.2zm.5 15.3c.7.9.7 1.3-.1 1.3-.6 0-1.1.7-1.1 1.5 0 .9-.7 1.8-1.5 2.1-.8.4-1.3.9-1 1.3.2.4-.1.8-.8.8-.7 0-1.3-1.3-1.4-2.9-.1-1.6.2-2.6.7-2.3.5.3 1.1.1 1.4-.4.3-.5-.3-1.1-1.4-1.4-2-.5-2.8-2.7-1-2.7.6 0 1 .4 1 .8 0 1.9 3 .7 3.1-1.2.1-2 .1-2 .6-.1.3 1.1 1 2.6 1.5 3.2zm4.3 1.4c-.3.9-.1 2.9.5 4.4 1 2.6.9 2.7-.7 1.4-.9-.8-1.4-.9-1-.3.4.7 0 1.7-.8 2.4-1.2 1-1.5.9-1.5-.4 0-.9-.7-1.6-1.5-1.6s-1.5-.5-1.5-1.2c0-.6.3-.9.6-.5.9.9 3.2-1.6 2.7-2.9-.2-.7 0-1.5.6-1.9 1.7-1 1.3-2.8-.4-2.1-.8.3-1.5.1-1.5-.3 0-.5.6-1.1 1.3-1.4 1.7-.6 3.8 2.3 3.2 4.4zm2.5-3.1c0 .5-.4 1-1 1-.5 0-1-.5-1-1 0-.6.5-1 1-1 .6 0 1 .4 1 1zm4.1 13.3c-1.7 1.7-2.4-1.8-.9-4.5l1.3-2.3.3 2.9c.2 1.6-.1 3.3-.7 3.9zm4.3.2c.4 3.1.3 3.6-.5 2.2-.6-.9-1.5-1.4-2.1-1.1-.6.4-.8.1-.4-.7.3-.8.9-2.2 1.2-3.2.9-2.3 1.1-2 1.8 2.8zm-69.5-53c-1.1 2.8-1.5 3.2-2.2 1.9-.7-1.3-1.2-1-2.7 1.8-1 1.8-1.6 3.6-1.3 4 .2.5-.1.8-.8.8-.9 0-.9.3 0 1.4.9 1 .8 1.5-.2 1.9-1.6.6-3 4.7-1.7 4.7 1.9 0 3.9-1.3 3.4-2.1-.3-.5.2-1.2 1-1.5.9-.3 1.6-1.2 1.6-2s.4-1.4 1-1.4c.5 0 .7-.7.4-1.5-.4-.8-.1-1.5.6-1.5.6 0 .9-.3.7-.8-.8-1.2 1.2-5.4 2.3-4.7.6.4 1-.5 1-1.9 0-3.7-1.7-3.2-3.1.9z"/><path d="M329.6 638.7c-.6 1.4-.5 1.5.5.6.7-.7 1-1.5.7-1.8-.3-.3-.9.2-1.2 1.2zm25.1-.1c.5 1.3.3 1.5-.7.9-.9-.5-1.1-.4-.6.3.4.7 1.1 1.2 1.7 1.2 1.2 0 1.2-2.7-.1-3.5-.6-.4-.7.1-.3 1.1zm-246.8 3.7c-1.1 2-1.1 2.1.4.8 1-.7 1.7-1 1.7-.5 0 1.9-1.6 3.1-3.6 2.9-1.5-.1-2.1.4-1.9 1.4.2.9.4 2.4.4 3.4.1 1 .6 1.5 1.1 1.2.6-.4.8-1 .5-1.5-.3-.4.3-.6 1.4-.3 1 .3 2.2 0 2.5-.6.4-.6.1-1.1-.6-1.1-1 0-.9-.3.2-.9.8-.6 1.8-.7 2.3-.4.4.3.7-.3.5-1.2-.2-1 .2-2 .7-2.2.6-.2 1.2 1.3 1.3 3.2.2 2.9-.1 3.5-1.5 3.3-1.3-.2-1.9.6-2.3 3.4-.4 2.1-.2 4.2.3 4.7.7.7.5 1.2-.6 1.7-.9.3-1.4 1-1.1 1.5.7 1.1 3.4-1.5 3.4-3.3 0-1 .3-.9 1 .2.6 1 .9.6.8-1.7-.1-2.1-.7-3.4-1.7-3.6-1.3-.3-1.2-.5.4-1.2 1.1-.5 2.6-1.5 3.3-2.2.8-.7 1.8-1.1 2.3-.8.5.4.9.2.9-.4 0-.5-.4-1.2-1-1.6-.6-.4-.6-1.5 0-3 .5-1.4.6-2.5.1-2.5s-1.2.7-1.5 1.6c-.4 1.1-1 1.3-1.9.7-.6-.5-2.4-1.4-3.9-2.1-2.5-1-2.9-.9-3.9 1.1zM11 643c-.8.5-2.3.7-3.2.4-2.1-.6-2.4.9-.4 2.5 1 .8 1.5.9 1.8.1.5-1.5 3.8-.2 3.8 1.5 0 .8-1.5 1.2-4.1 1.2-2.4 0-4.5.6-5 1.4-.5.8-.9.9-.9.3 0-.7-.7-1.4-1.5-1.8-1-.3-1.5.1-1.5 1.2 0 1.2.9 1.8 2.5 2 1.4.1 2.5-.3 2.5-.8 0-.6.4-1 1-1 .5 0 .7.6.4 1.3-.3.8.3 2 1.2 2.8 1.6 1.3 1.7 1.1 1.1-1.6-.6-3-.5-3.1 2.9-2.7 2.9.4 3.3.2 2.7-1.4-.4-1.2-.3-1.5.5-1s1.2-.1 1.2-1.5c0-1.8.2-2 1.6-.8.8.7 1.3 2.1 1.1 3-.4 1.5-.2 1.6 1.4.6 1.6-1 1.6-1.3.4-2.7-.8-.9-1.5-2.2-1.5-2.8 0-1.4-5.9-1.6-8-.2zm73.7.1c.6.6.9 1.7.6 2.4-.6 1.7 3.3 4 4.2 2.5.3-.5-.1-1-.9-1-.9 0-1.5-.3-1.4-.8.3-1.3-1.4-4.2-2.5-4.2-.8 0-.8.3 0 1.1zm-33.7 1c0 1.5 1.8 1.9 2.3.6.3-.8-.1-1.4-.9-1.4s-1.4.4-1.4.8zm43.5.9c-1.3 1.5-1.5 2.4-.8 3.1.8.8 1.3.8 1.7 0 .4-.6.5-1.1.1-1.1-.3 0-.1-.9.5-2 1.4-2.6.8-2.5-1.5 0zm-3.5 3.4c0 .8-.3 2.3-.7 3.3-.6 1.7-.6 1.7 1 .1 1.9-1.9 2.2-3.4.7-4.3-.5-.3-1 0-1 .9z"/><path d="M10.9 651.7c-.1.5-.1 1.1-.1 1.5.1.3-.6 1.2-1.5 2-1.3 1-1.7 1.1-2.1 0-.3-1-.7-1-1.8-.1-.9.7-1.4.8-1.4.1 0-.5-.9-.8-2-.5-1.1.3-2 1-2 1.5s.6.6 1.2.2c.9-.5.9-.2-.1.9-1.2 1.5-1.1 1.7.3 1.7.9 0 1.6.5 1.6 1.1 0 .8.4.8 1.3.2 1.8-1.4 5-1 5.5.6.3.9 0 1.1-.8.6-.9-.5-1-.2-.5 1.5.5 1.5.4 2-.4 1.6-.7-.5-1.1.1-1.1 1.4 0 1.2.5 1.8 1 1.5.6-.3 1 .1 1 1s-.4 1.3-1 1c-.5-.3-1-.2-1 .3 0 .6-.8 1.3-1.7 1.7-1.5.5-1.6.4-.5-.6 1.4-1.5 1.6-5.3.2-4.4-.5.3-1 .1-1-.5 0-.7-.6-1-1.2-.8-.7.3-1.3 1-1.3 1.6 0 .5-.3 1.4-.7 1.8-1.2 1.1-1 2.6.2 1.9.7-.4.8.3.4 2.2-.4 1.5-.3 2.5.1 2.1.5-.4 1.4-.3 2.1.3 1 .9 1.5.7 2-.5.7-1.8 3.4-2.2 3.4-.5 0 .5-.4.7-1 .4-.5-.3-1-.1-1 .4 0 .9 1.1 1.4 3 1.3.3 0 1 .6 1.7 1.3 1.6 1.8-1.2 4.4-2.9 2.7-1.4-1.4-5.1 2.8-3.8 4.3.6.7.1 1.6-1 2.3-1.7 1.1-2 1-1.7-.8.2-1.1.6-2.3 1-2.6 1.5-1.5.6-2.6-1-1.3-.9.8-1.4.9-1.1.4.3-.6.2-1.9-.3-3-.5-1.3-.8.8-.8 5.9l-.1 7.9 4.2-.7c2.6-.4 3.8-.3 3 .2-1.1.7-1 1.1.4 1.6 1.6.6 1.6.8.4 1.6-1 .6-1.8.4-2.4-.7-.8-1.5-1-1.5-2.2.1-.6 1-1.6 1.6-2.1 1.5-.4-.1-.9.5-1.1 1.5-.3 1.5.5 1.7 7.2 1.5 6.8-.2 7.4-.3 5.9-1.6-1.7-1.4-1.7-1.4 0-.9 2.6.8 2.1-1-1.3-4.4-1.8-1.8-3.5-2.7-4.5-2.4-.8.3-1.5.1-1.5-.5s.7-1.1 1.6-1.1c1.1 0 1.5-.6 1.1-2-.3-1.1-.2-2 .1-2.1 4.3-.5 6.5-.2 7.5.9 1 1.2.6 1.3-2.1.8-3-.7-3.2-.6-3.2 1.9 0 1.5.4 2.4 1 2 .5-.3 1 .1 1 .9 0 .9.7 1.6 1.6 1.6.8 0 1.2.4.9 1-.4.6.6.7 2.5.4 1.9-.4 3-.2 3 .5 0 .6-1 1-2.1.8-1.2-.1-2.4.4-2.6 1-.3.8.5 1.3 2.1 1.3 1.3 0 2.8.4 3.1 1 .3.5 3.3 1 6.6 1 4.7 0 5.9-.3 5.9-1.6 0-.8.4-1.3.9-1 1.3.9 2.3-2.5 1.1-3.9-.6-.7-2.7-1.1-5-.9-3 .2-4-.1-4-1.2 0-1.1 1.1-1.4 4.8-1.2 2.6.2 5 .7 5.4 1.3.4.5.6 0 .5-1.2 0-1.2-.4-2-.8-1.7-.4.2-1-.3-1.3-1.2-.3-.8-.2-1.2.4-.9.6.3 1 .1 1-.4 0-.6-.5-1.1-1.1-1.1-.5 0-.7-.5-.3-1.2.5-.7.2-.9-.8-.5-1.2.4-1.6-.1-1.5-2.1 0-5-.3-6.2-1.8-6.2-.8 0-1.5-.5-1.5-1.1 0-.5.4-.8.9-.5.5.3.9-.6.9-2v-2.6l-1.7 2.4c-2.1 3-4.1 3.4-4.8.9-.3-1.1-1.1-1.7-1.8-1.5-.7.3-1.5-.2-1.8-1-.4-.9-1.4-1.6-2.4-1.6-1.7-.1-1.7-.1.1-1.1 1.3-.8 2-.8 2.5 0 .8 1.2 6.9.7 8.4-.8 1.1-1.1-2.6-5.1-4.7-5.1-.8 0-.8-.3 0-.8 1.5-1 1.2-5.2-.3-5.2-.7 0-1.3.4-1.3 1 0 .5-.7 1-1.5 1s-1.5-.7-1.5-1.5.6-1.2 1.3-.9c1.6.6 5.5-2.2 4.5-3.2-.4-.4-1.4-.1-2.2.5-.8.7-1.9 1-2.4.8-1.5-1-11.2-1.8-11.3-1zm8.3 4.6c1.7 1.9 1.7 2.1 0 3.4-1.6 1.3-1.5 1.4.6.8 2.8-.8 3 1.5.2 3.2-1.5 1-2.2 1-3.4-.2-1.6-1.7-4.6-2-4.6-.5 0 .5.7.7 1.5.4 1-.4 1.5 0 1.5 1.1 0 .9.5 1.3 1 1 .6-.3 1-.1 1 .4 0 1.6-2.6 1.3-4.4-.5-1.7-1.7-2.2-5.9-.6-4.9.6.3 1 .1 1-.6 0-.9.3-.9 1.4 0 1.2 1 1.3.8.9-.8-.3-1.2-.9-1.9-1.3-1.6-1.5.9-2.2-1.5-1-3 1.4-1.6 3.8-.9 6.2 1.8zM27 664c0 .5-.4 1-1 1-.5 0-1-.5-1-1 0-.6.5-1 1-1 .6 0 1 .4 1 1zm-7.3 7.2c-.3.8-.6.5-.6-.6-.1-1.1.2-1.7.5-1.3.3.3.4 1.2.1 1.9zm-4.3 2.7c.3.5-.1 1.1-.9 1.5-.8.3-1.5.1-1.5-.4s-.8-.7-1.7-.4c-1.5.5-1.6.4-.3-.5 1.8-1.3 3.7-1.4 4.4-.2zm18.4 11.7c.2.1.1 1.2-.3 2.4-.6 2-.7 2.1-2.1.3-.7-1-1.4-1.3-1.4-.7 0 .7-1.1.9-2.7.6l-2.8-.6 2.5-.7c1.6-.4 1.9-.7.8-.8-1-.1-1.8-.6-1.8-1.1 0-.9 6.7-.4 7.8.6zM23 692c0 1-4 .9-6.6 0-1.3-.5-2.4-1.6-2.4-2.4 0-1.3.6-1.3 4.5.2 2.5.9 4.5 1.9 4.5 2.2zm-10 3.6c0 .2-.7.4-1.5.4s-1.5-.4-1.5-1c0-.5.7-.7 1.5-.4.8.4 1.5.8 1.5 1zm13.4-.1c.3.8.1 1.5-.3 1.5-.5 0-1.7.3-2.6.6-1.7.7-1.8-1.5 0-2.8 1.5-1.1 2.2-1 2.9.7zm76-40.3c-.4 1.3-.9 2.9-1 3.7-.2.7-.7 1.8-1.3 2.4-.6.6-1.1 1.6-1.1 2.1 0 .6.7.3 1.5-.8.7-1 1.8-1.5 2.4-1.2.5.4 1.3.2 1.6-.4.4-.6.3-.9-.2-.8-.8.3-1.3-.5-1.3-2.3 0-.5.5-.7 1-.4.6.3 1-.3 1-1.4 0-2.9-1.7-3.5-2.6-.9zm404.3 2c-.4 1.2-.4 2.4-.1 2.7.6.7 2.4-2 2.4-3.7 0-2.1-1.7-1.3-2.3 1zm-410.2.7c-.3.6-1 .9-1.5.6-.4-.3-1 .2-1.4 1-.3.8-.1 1.5.5 1.5 1.4 0 4.3-2.9 3.6-3.6-.3-.3-.8 0-1.2.5zm47.8.7c0 .7.4 1.1.8.8.4-.2 1.4.3 2.3 1.1.8.8 1.7 1.1 2 .6.6-.9-.9-2.5-3.5-3.3-.9-.4-1.6-.1-1.6.8zm-32.3 5c-.6 1.4-1 3.5-1 4.7.1 1.8.4 1.6 2-1.3 1.1-1.9 1.9-4.1 2-4.8 0-2.2-2-1.3-3 1.4zm-14.9 1.6c0 1-.6 1.8-1.3 1.8-.9 0-.9.3 0 1.2 1.6 1.6 2.5.5 1.9-2.4-.3-1.4-.5-1.6-.6-.6zm4.1 1.3c-.1 1.4.5 2.4 1.6 2.7 1.4.4 1.8-.1 1.7-2 0-3.2-3-3.9-3.3-.7zm-44.5-.8c-.2.5.4 1.6 1.5 2.5 1.8 1.8 2.3 1.2 1.2-1.6-.6-1.7-2-2.1-2.7-.9zm465.8 1.3c-.3.6-.1 1 .5 1 .7 0 .9.8.5 2-.8 2.5.1 2.6 1.4.2 1-1.9-1.3-5-2.4-3.2zm-406.2 1.5c-1.8 1.9-1.7 2 1.7 1.9 4.3-.2 4.4-.2 3-1.9-1.5-1.9-3.1-1.9-4.7 0zm-17.8 1.6c-.4.6-.2 1.6.5 2.2 1 .9 1.1.9.6 0-.3-.6-.1-1.3.6-1.5.9-.3.9-.6.1-1.1-.7-.4-1.5-.2-1.8.4zm7.5.7c0 .5-1 1.2-2.2 1.5-1.2.4-1.9.9-1.5 1.3.4.4-.3 1.2-1.5 1.8-1.2.6-2.3 1.7-2.6 2.5-.3.8 0 1.1.6.7.6-.3 1.3 0 1.5.6.3.8.6.5.6-.6.1-1.3.6-1.7 2.1-1.3 1.1.3 2 0 2-.6 0-.7.5-.5 1 .3.8 1.3 1 1.3 1 .1 0-1.1.4-.9 1.5.5 1.7 2.2 2 1.2.4-1.7-.6-1.1-1.7-1.8-2.4-1.5-.9.3-1.2 0-.8-.9.3-.8.9-1.2 1.4-.9.5.3.9.1.9-.5 0-.5-.4-1.3-1-1.6-.5-.3-1-.2-1 .3zm6.5.2c-.3.5-.1 1 .4 1 .6 0 1.1-.5 1.1-1 0-.6-.2-1-.4-1-.3 0-.8.4-1.1 1zM72 673.5c1.4 1.7 6.5 2.1 5.5.5-.4-.6-1-.8-1.5-.5-.5.3-1.1.1-1.5-.5-.3-.5-1.3-1-2.2-1-1.3 0-1.3.3-.3 1.5zm48-.6c0 .5.7 1.1 1.5 1.5.8.3 1.5.1 1.5-.3 0-.5-.7-1.1-1.5-1.5-.8-.3-1.5-.1-1.5.3zm-6.3 1.9c.1.8.3 1.6.3 1.8 0 .2.7.4 1.5.4s1.5-.5 1.5-1c0-.6-.6-1-1.4-1-.8 0-1.6-.3-1.9-.8-.2-.4-.2-.1 0 .6zM71.5 677c-.6 1 1.7 4 3 4 .4 0 1.3-.6 2-1.4 1.2-1.2 1.2-1.5-.1-2-1-.4-1.3-.1-.9.7.4.6 0 .4-.8-.6-1.6-2-2.3-2.1-3.2-.7z"/><path d="M102 679.6c0 .8.4 1.4.9 1.4s.7.9.4 2c-.3 1.1-1 1.7-1.7 1.3-.6-.3-.6 0 .2.8.9 1 1.5 1 2.4.1.7-.7.9-1.2.5-1.2-.3 0-.2-1.1.3-2.4.7-2 .5-2.5-1.1-2.9-1.2-.3-1.9 0-1.9.9zm-31.4 2.8c.3.8 1.2 1.2 2 .9 1.7-.6.9-2.3-1.1-2.3-.8 0-1.2.6-.9 1.4zm-24.1 1.3c-2 1.5-1.9 1.5.5.9 1.4-.3 2.8-.6 3.3-.6.4 0 .7-.5.7-1 0-1.5-2.2-1.2-4.5.7zM67 685c0 .5.5 1 1 1 .6 0 1-.5 1-1 0-.6-.4-1-1-1-.5 0-1 .4-1 1zm82 4.8c0 .7-.7 1.2-1.5 1.2-1.9 0-3.6 3.2-2.6 4.9.6.9 1.5.1 3-2.4 1.2-2.1 1.9-4 1.6-4.3-.3-.3-.5 0-.5.6zm-97.4 7.9c-1.1 1.1-.6 2.3.9 2.3.8 0 1.5-.4 1.5-.9 0-1.3-1.6-2.2-2.4-1.4zm58.7.7c0 .6 1.1 1.2 2.4 1.2 2.6.2 2.3-1.1-.5-1.8-1-.3-1.9 0-1.9.6zM91 699c0 .5.7 1 1.5 1s1.5-.5 1.5-1c0-.6-.7-1-1.5-1s-1.5.4-1.5 1zm-74.2.7c.7.3 1.6.2 1.9-.1.4-.3-.2-.6-1.3-.5-1.1 0-1.4.3-.6.6z"/></svg>
