<svg viewBox="0 0 162 158" width="22" height="22" fill="currentColor"><path d="M80.517 0C36.055 0 0 36.047 0 80.517c0 35.574 23.07 65.755 55.063 76.402 4.024.745 5.501-1.747 5.501-3.874 0-1.918-.075-8.262-.11-14.99-22.4 4.87-27.126-9.5-27.126-9.5-3.663-9.306-8.94-11.782-8.94-11.782-7.305-4.997.55-4.894.55-4.894 8.086.568 12.343 8.298 12.343 8.298 7.182 12.308 18.836 8.75 23.431 6.692.724-5.202 2.81-8.756 5.112-10.766-17.884-2.035-36.684-8.94-36.684-39.792 0-8.79 3.145-15.974 8.296-21.612-.836-2.028-3.592-10.218.781-21.308 0 0 6.762-2.163 22.147 8.254 6.423-1.784 13.31-2.678 20.153-2.71 6.843.032 13.736.926 20.171 2.71 15.368-10.417 22.12-8.254 22.12-8.254 4.383 11.09 1.627 19.28.79 21.308 5.163 5.638 8.286 12.822 8.286 21.612 0 30.926-18.836 37.734-36.765 39.728 2.888 2.498 5.461 7.398 5.461 14.91 0 10.774-.092 19.444-.092 22.096 0 2.144 1.448 4.654 5.53 3.864 31.975-10.658 55.017-40.829 55.017-76.392C161.035 36.047 124.985 0 80.517 0"/></svg>
