<svg viewBox="0 0 400 400" width="22" height="22" fill="currentColor"><path d="M200 0A200 200 0 000 200a200 200 0 00200 200 200 200 0 00200-200A200 200 0 00200 0zm52.3 114.5c13.9 0 26.4 5.8 35.2 15.2 11-2.2 21.3-6.2 30.6-11.7-3.6 11.3-11.2 20.7-21.2 26.7 9.8-1.2 19.1-3.8 27.7-7.6-6.5 9.7-14.7 18.2-24.1 25 .1 2 .1 4.1.1 6.2 0 63.7-48.5 137.2-137.2 137.2-27.2 0-52.6-8-73.7-21.8 3.8.5 7.6.7 11.5.7 22.6 0 43.4-7.7 59.9-20.6-21.1-.4-38.9-14.3-45-33.5 3 .6 6 .9 9.1.9 4.4 0 8.7-.6 12.7-1.7-22.1-4.5-38.7-23.9-38.7-47.3v-.6c6.5 3.6 13.9 5.8 21.8 6-13-8.6-21.5-23.4-21.5-40.1 0-8.8 2.4-17.1 6.5-24.2 23.8 29.2 59.3 48.4 99.4 50.4-.9-3.5-1.3-7.2-1.3-11 0-26.6 21.6-48.2 48.2-48.2z"/></svg>
