<svg viewBox="0 0 512 512" xmlns="http://www.w3.org/2000/svg"><style>path{fill:#3730a3}@media(prefers-color-scheme:dark){path {fill:#a5b4fc}}</style><path d="M263.894 413.435h166.908c46.463 0 81.198-40.149 81.198-89.77 0-54.132-41.05-73.98-70.823-73.98v-2.707c32.028-1.353 58.643-19.397 58.643-67.665 0-48.72-31.126-80.747-83.002-80.747H263.894zm68.568-129.918h78.942c18.044 0 29.322 10.376 29.322 28.42v15.337c0 18.044-11.278 28.42-29.322 28.42h-78.942zm0-127.21h68.116c18.044 0 28.87 10.826 28.87 28.87v13.533c0 18.044-10.826 28.87-28.87 28.87h-68.116zM68.567 413.435V284.418H188.11v-60.447H68.567v-64.508H208.86V98.566H0v314.868z"/></svg>
